<?xml version="1.0" encoding="UTF-8"?>
<svg id="Capa_2" data-name="Capa 2" xmlns="http://www.w3.org/2000/svg" viewBox="0 0 494.18 529.18">
  <defs>
    <style>
      .cls-1 {
        fill: #fff;
        stroke-width: 0px;
      }
    </style>
  </defs>
  <g id="Capa_1-2" data-name="Capa 1">
    <g>
      <g>
        <path class="cls-1" d="m202.01,446.01l-4.37,18.19c-.05.22-.22.32-.43.27l-1.21-.29c-.22-.05-.32-.22-.27-.44l4.37-18.19c.05-.22.22-.32.43-.27l1.21.29c.22.05.32.22.27.44Z"/>
        <path class="cls-1" d="m190.1,442.93l-6.04,17.71c-.07.21-.25.3-.46.22l-1.18-.4c-.18-.06-.26-.18-.31-.37l-3.96-17.31c-.02-.12-.13-.13-.17,0l-4.82,14.14c-.07.21-.25.3-.46.23l-1.18-.41c-.21-.07-.3-.25-.23-.46l6.04-17.71c.07-.21.25-.3.46-.22l1.18.4c.18.06.26.18.31.37l3.97,17.37c.02.12.13.13.18,0l4.81-14.2c.08-.24.25-.3.46-.23l1.18.41c.21.07.3.25.23.46Z"/>
        <path class="cls-1" d="m150.87,441.71c1.38-2.91,4.27-3.9,7.25-2.49l4.86,2.3c.08.04.15,0,.18-.07l3.49-7.37c.1-.2.28-.27.48-.17l1.13.54c.2.09.27.28.17.48l-8,16.93c-.1.2-.28.26-.48.17l-6.52-3.08c-2.94-1.39-3.97-4.27-2.57-7.23Zm1.77.8c-.96,2.03-.25,4.03,1.73,4.96l4.74,2.24c.08.04.15.01.18-.06l3.06-6.47c.04-.08,0-.15-.07-.19l-4.74-2.24c-1.98-.93-3.96-.25-4.91,1.76Z"/>
        <path class="cls-1" d="m146.32,430.07l-6.9,11.1c-.12.19-.31.23-.5.12l-1.06-.66c-.19-.12-.23-.31-.12-.5l6.93-11.15c1.39-2.24.76-4.75-1.59-6.22-2.35-1.46-4.89-.91-6.28,1.33l-6.93,11.15c-.12.19-.31.23-.5.12l-1.06-.66c-.19-.12-.23-.31-.12-.5l6.9-11.1c1.98-3.18,5.52-3.89,8.89-1.79,3.35,2.08,4.31,5.58,2.33,8.77Z"/>
        <path class="cls-1" d="m108.91,419.74l.64-.81c.14-.17.33-.2.5-.06l4.18,3.3c.07.05.14.04.19-.03l10.64-13.49c.14-.17.33-.2.51-.06l.98.77c.18.14.2.33.06.51l-10.64,13.49c-.05.07-.04.14.02.19l4.01,3.16c.18.14.2.33.06.51l-.64.8c-.14.18-.33.2-.5.06l-9.95-7.85c-.18-.14-.2-.33-.06-.51Z"/>
        <path class="cls-1" d="m111.38,403.15l-.54.56c-.15.16-.35.16-.51,0l-.85-.83c-.16-.16-.16-.35,0-.51l.47-.47c1.45-1.49,1.17-3.86-1.01-5.99-2.08-2.04-4.07-2.07-5.42-.69-1.38,1.41-.95,3.11.58,6.7,1.45,3.28,2.5,5.74.27,8.02-2.19,2.24-5.1,1.88-7.8-.76-2.94-2.87-3.25-6.12-1.04-8.38l.37-.38c.15-.16.35-.16.51,0l.87.85c.16.16.16.35,0,.51l-.29.3c-1.45,1.49-1.37,3.78.85,5.95,1.86,1.82,3.67,2.04,5.09.59,1.45-1.49.81-3.05-.68-6.33-1.47-3.38-2.42-6.13-.21-8.39,2.11-2.16,5.23-2.02,8.19.87,2.94,2.87,3.34,6.14,1.15,8.38Z"/>
        <path class="cls-1" d="m89,379.03l-.63.46c-.18.13-.37.1-.5-.08l-.71-.96c-.13-.18-.1-.37.08-.5l.54-.39c1.68-1.23,1.78-3.62-.02-6.08-1.72-2.35-3.67-2.71-5.24-1.56-1.59,1.16-1.44,2.92-.51,6.71.9,3.47,1.53,6.07-1.04,7.96-2.53,1.85-5.34,1.03-7.57-2.02-2.43-3.31-2.21-6.57.35-8.44l.42-.31c.18-.13.37-.1.5.08l.72.98c.13.18.1.37-.08.5l-.34.25c-1.68,1.23-1.97,3.51-.13,6.02,1.54,2.1,3.29,2.61,4.92,1.41,1.68-1.23,1.3-2.88.36-6.36-.9-3.57-1.39-6.45,1.16-8.32,2.44-1.79,5.49-1.14,7.94,2.19,2.43,3.31,2.3,6.61-.23,8.46Z"/>
        <path class="cls-1" d="m74.41,348.24l-2.38,2.65c-.04.05-.07.11-.03.18l4.13,7.17c.04.07.1.07.16.07l3.48-.75c.22-.06.36.01.46.18l.66,1.15c.13.22.05.42-.21.47l-19.26,4.04c-.22.06-.36-.01-.46-.18l-.89-1.54c-.1-.17-.09-.33.07-.49l13.15-14.65c.18-.2.39-.16.51.06l.66,1.15c.1.17.1.33-.07.49Zm.03,10.29l-3.56-6.18c-.04-.07-.12-.09-.2-.01l-8.04,8.79c-.11.09-.05.19.08.14l11.63-2.56c.11-.03.13-.11.09-.18Z"/>
        <path class="cls-1" d="m69.55,338.71l-17.14,7.49c-.2.09-.39.02-.47-.18l-.5-1.14c-.09-.2-.02-.38.19-.47l15.76-6.89c.08-.03.11-.11.07-.18l-3.88-8.87c-.09-.2-.02-.39.18-.47l.92-.4c.2-.09.39-.02.47.19l4.58,10.47c.09.2.02.39-.19.47Z"/>
        <path class="cls-1" d="m56.37,321.35l-12.49,3.87c-.21.07-.39-.03-.45-.24l-.37-1.19c-.06-.21.03-.39.24-.45l12.54-3.89c2.52-.78,3.69-3.09,2.87-5.74-.82-2.65-3.09-3.89-5.61-3.11l-12.54,3.89c-.21.07-.39-.03-.45-.24l-.37-1.19c-.06-.21.02-.39.24-.45l12.49-3.87c3.58-1.11,6.72.68,7.89,4.47,1.17,3.77-.4,7.04-3.98,8.15Z"/>
        <path class="cls-1" d="m55.46,297.27l-18.39,3.44c-.22.04-.38-.07-.42-.29l-1.19-6.36c-.67-3.6.92-6.27,4.16-6.88l8.56-1.6c3.25-.61,5.7,1.31,6.37,4.91l1.19,6.36c.04.22-.07.38-.29.42Zm-1.72-1.82l-.89-4.72c-.44-2.37-2.2-3.59-4.54-3.16l-8.05,1.51c-2.37.44-3.57,2.19-3.12,4.59l.88,4.72c.01.08.08.13.16.11l15.44-2.89c.08-.01.13-.08.11-.16Z"/>
        <path class="cls-1" d="m43.18,255.02l-1-.02c-.22,0-.36-.15-.35-.37l.18-8.05c0-.22.15-.36.37-.36l1,.02c.22,0,.36.15.35.37l-.18,8.05c0,.22-.15.36-.37.35Z"/>
        <path class="cls-1" d="m53.06,226.71l-18.5-2.8c-.22-.03-.34-.19-.3-.41l.19-1.24c.03-.22.19-.34.41-.3l18.5,2.8c.22.04.33.19.3.41l-.18,1.24c-.03.22-.19.34-.41.3Z"/>
        <path class="cls-1" d="m55.1,214.59l-18.17-4.49c-.21-.05-.32-.22-.26-.44l.3-1.21c.05-.19.15-.28.34-.35l16.9-5.43c.12-.03.12-.14-.01-.17l-14.5-3.58c-.21-.05-.32-.22-.26-.44l.3-1.21c.06-.21.22-.32.44-.26l18.17,4.49c.21.05.32.22.26.44l-.3,1.21c-.05.19-.16.28-.34.35l-16.96,5.44c-.12.03-.12.14.02.18l14.56,3.57c.24.06.32.22.26.44l-.3,1.21c-.05.21-.22.31-.44.26Z"/>
        <path class="cls-1" d="m52.96,175.33c3.02,1.12,4.25,3.92,3.11,7.01l-1.88,5.05c-.03.08,0,.15.08.18l7.64,2.84c.21.08.29.25.21.46l-.44,1.17c-.08.21-.25.29-.46.21l-17.55-6.53c-.21-.08-.29-.25-.21-.46l2.51-6.76c1.13-3.04,3.91-4.32,6.98-3.18Zm-.65,1.83c-2.11-.78-4.03.1-4.8,2.15l-1.83,4.91c-.03.08,0,.15.08.18l6.71,2.49c.08.03.15,0,.18-.08l1.83-4.91c.76-2.06-.09-3.97-2.17-4.75Z"/>
        <path class="cls-1" d="m64.15,169.8l-11.66-5.92c-.2-.1-.26-.29-.16-.49l.57-1.11c.1-.2.29-.26.49-.16l11.71,5.95c2.35,1.19,4.81.35,6.06-2.12,1.26-2.48.49-4.95-1.86-6.15l-11.71-5.95c-.2-.1-.26-.29-.16-.49l.57-1.11c.1-.2.29-.26.48-.16l11.66,5.92c3.34,1.7,4.35,5.17,2.55,8.71-1.79,3.52-5.2,4.77-8.54,3.07Z"/>
        <path class="cls-1" d="m71.24,131.63l.86.56c.18.12.22.31.1.5l-2.93,4.45c-.05.07-.03.15.04.19l14.35,9.45c.19.12.23.31.1.5l-.69,1.04c-.12.18-.31.22-.5.11l-14.35-9.45c-.07-.05-.15-.03-.19.04l-2.81,4.26c-.12.19-.31.23-.5.1l-.86-.56c-.18-.12-.22-.31-.1-.5l6.97-10.59c.12-.18.32-.22.5-.1Z"/>
        <path class="cls-1" d="m87.93,132.74l-.6-.5c-.17-.14-.19-.33-.05-.51l.76-.92c.14-.17.34-.19.51-.05l.51.42c1.61,1.33,3.95.84,5.89-1.51,1.86-2.25,1.72-4.23.22-5.47-1.52-1.25-3.18-.68-6.64,1.15-3.15,1.72-5.51,2.98-7.97.95-2.42-2-2.31-4.92.09-7.84,2.61-3.17,5.83-3.76,8.27-1.74l.41.33c.17.14.19.34.05.51l-.78.94c-.14.17-.34.19-.51.05l-.32-.26c-1.61-1.33-3.89-1.05-5.87,1.36-1.66,2.02-1.72,3.84-.16,5.12,1.61,1.33,3.11.55,6.26-1.21,3.24-1.75,5.91-2.94,8.35-.92,2.33,1.93,2.46,5.05-.17,8.24-2.61,3.17-5.84,3.86-8.26,1.86Z"/>
        <path class="cls-1" d="m110.09,108.39l-.51-.59c-.15-.17-.13-.36.03-.51l.9-.78c.17-.15.36-.14.51.03l.44.5c1.37,1.57,3.76,1.47,6.06-.54,2.19-1.92,2.38-3.89,1.1-5.36-1.3-1.48-3.03-1.19-6.73.06-3.38,1.19-5.92,2.05-8.02-.35-2.07-2.36-1.48-5.23,1.36-7.72,3.09-2.71,6.36-2.77,8.45-.39l.35.4c.15.17.14.36-.03.51l-.92.8c-.17.15-.36.13-.51-.03l-.27-.31c-1.37-1.57-3.67-1.66-6.01.39-1.97,1.72-2.32,3.51-.98,5.03,1.37,1.57,2.98,1.04,6.37-.19,3.49-1.21,6.31-1.94,8.39.44,1.99,2.28,1.61,5.38-1.5,8.11-3.09,2.7-6.39,2.86-8.45.5Z"/>
        <path class="cls-1" d="m139.54,91.17l-2.85-2.15c-.05-.03-.11-.06-.17-.01l-6.79,4.73c-.07.05-.06.11-.05.17l1.05,3.4c.08.21.02.36-.14.47l-1.09.76c-.2.14-.41.09-.49-.17l-5.68-18.85c-.08-.21-.02-.36.15-.47l1.46-1.01c.16-.11.32-.12.49.03l15.73,11.85c.21.16.19.38-.01.52l-1.09.76c-.16.11-.32.12-.49-.03Zm-10.25.92l5.86-4.08c.07-.05.08-.13,0-.2l-9.45-7.26c-.1-.1-.19-.04-.14.09l3.55,11.37c.04.11.12.12.19.07Z"/>
        <path class="cls-1" d="m148.59,85.52l-8.94-16.43c-.11-.19-.05-.38.14-.49l1.1-.6c.2-.11.38-.05.49.15l8.23,15.11c.04.08.12.1.19.06l8.51-4.63c.19-.11.38-.05.49.15l.48.88c.11.2.05.38-.15.49l-10.04,5.46c-.19.11-.38.05-.49-.14Z"/>
        <path class="cls-1" d="m164.82,70.86l-4.93-12.11c-.08-.21,0-.39.2-.47l1.16-.47c.2-.08.39,0,.47.2l4.95,12.16c.99,2.44,3.4,3.41,5.97,2.37,2.57-1.05,3.61-3.42,2.62-5.86l-4.95-12.16c-.08-.21,0-.39.2-.47l1.16-.47c.2-.09.39,0,.47.2l4.93,12.11c1.41,3.47-.1,6.75-3.78,8.25-3.65,1.49-7.05.2-8.46-3.27Z"/>
        <path class="cls-1" d="m188.62,67.93l-5-18.03c-.06-.21.04-.38.25-.45l6.23-1.73c3.53-.98,6.33.38,7.21,3.56l2.33,8.4c.88,3.18-.81,5.78-4.35,6.76l-6.23,1.73c-.21.06-.38-.04-.44-.25Zm1.67-1.87l4.62-1.28c2.33-.64,3.4-2.5,2.76-4.8l-2.19-7.89c-.65-2.33-2.49-3.37-4.84-2.72l-4.63,1.28c-.08.02-.12.09-.1.17l4.19,15.14c.02.08.09.12.17.1Z"/>
      </g>
      <g>
        <path class="cls-1" d="m306.28,68.18l5.71-17.82c.07-.21.24-.3.46-.23l1.19.38c.21.07.3.24.23.45l-5.71,17.82c-.07.21-.24.3-.46.23l-1.19-.38c-.21-.07-.3-.24-.23-.45Z"/>
        <path class="cls-1" d="m317.94,72.13l7.33-17.22c.09-.2.27-.28.47-.19l1.15.49c.18.08.25.2.29.4l2.66,17.55c0,.12.12.14.17.01l5.85-13.74c.09-.2.27-.28.47-.19l1.15.49c.2.09.28.27.19.47l-7.33,17.22c-.09.2-.27.28-.47.19l-1.15-.49c-.18-.08-.25-.2-.29-.39l-2.67-17.61c0-.12-.12-.14-.17-.01l-5.85,13.8c-.1.23-.27.28-.47.19l-1.15-.49c-.2-.09-.28-.27-.19-.47Z"/>
        <path class="cls-1" d="m356.97,76.26c-1.59,2.8-4.55,3.58-7.42,1.95l-4.68-2.65c-.08-.04-.15-.02-.19.05l-4.02,7.1c-.11.19-.3.24-.49.14l-1.09-.62c-.19-.11-.24-.3-.14-.49l9.24-16.29c.11-.19.3-.24.49-.14l6.27,3.56c2.82,1.6,3.64,4.55,2.02,7.4Zm-1.71-.93c1.11-1.95.55-3.99-1.36-5.08l-4.56-2.59c-.07-.04-.15-.02-.19.05l-3.53,6.22c-.04.07-.02.15.05.19l4.56,2.59c1.91,1.08,3.93.54,5.03-1.39Z"/>
        <path class="cls-1" d="m360.64,88.2l7.7-10.56c.13-.18.32-.21.5-.08l1.01.74c.18.13.21.33.08.5l-7.74,10.6c-1.55,2.13-1.11,4.68,1.13,6.32,2.24,1.64,4.81,1.27,6.36-.86l7.74-10.6c.13-.18.33-.21.5-.08l1.01.74c.18.13.21.32.08.5l-7.7,10.56c-2.21,3.03-5.79,3.47-9,1.13-3.18-2.32-3.88-5.89-1.67-8.92Z"/>
        <path class="cls-1" d="m397.18,101.28l-.7.76c-.15.16-.35.17-.51.02l-3.92-3.6c-.06-.06-.14-.05-.2,0l-11.61,12.66c-.15.16-.34.17-.51.02l-.92-.84c-.16-.15-.17-.35-.02-.51l11.61-12.66c.06-.06.05-.14,0-.2l-3.76-3.45c-.16-.15-.17-.35-.02-.51l.69-.76c.15-.16.35-.17.51-.02l9.35,8.57c.16.15.17.35.02.51Z"/>
        <path class="cls-1" d="m393.49,117.64l.58-.51c.17-.15.36-.13.51.03l.79.89c.15.17.14.36-.03.51l-.5.44c-1.56,1.38-1.46,3.76.56,6.05,1.93,2.19,3.9,2.37,5.36,1.09,1.48-1.3,1.18-3.03-.08-6.73-1.2-3.38-2.06-5.91.33-8.02,2.35-2.07,5.22-1.5,7.72,1.33,2.71,3.08,2.78,6.35.41,8.44l-.39.35c-.17.15-.36.13-.51-.03l-.81-.92c-.15-.17-.13-.36.03-.51l.31-.27c1.56-1.38,1.65-3.67-.41-6-1.72-1.96-3.51-2.31-5.03-.97-1.56,1.38-1.03,2.98.21,6.36,1.22,3.48,1.96,6.29-.41,8.39-2.27,2-5.37,1.63-8.1-1.47-2.71-3.08-2.88-6.37-.53-8.45Z"/>
        <path class="cls-1" d="m414.01,143.35l.66-.41c.19-.12.38-.07.5.12l.63,1.01c.12.19.07.38-.12.5l-.57.35c-1.76,1.1-2.05,3.47-.43,6.06,1.55,2.47,3.47,2.97,5.11,1.94,1.67-1.05,1.65-2.8,1.01-6.65-.64-3.53-1.08-6.17,1.63-7.86,2.66-1.66,5.4-.63,7.4,2.57,2.18,3.48,1.71,6.72-.97,8.39l-.45.28c-.19.12-.38.07-.5-.12l-.65-1.04c-.12-.19-.07-.38.12-.5l.35-.22c1.76-1.1,2.22-3.35.57-5.99-1.38-2.21-3.09-2.85-4.81-1.77-1.77,1.1-1.51,2.77-.83,6.31.63,3.63.91,6.53-1.77,8.21-2.57,1.6-5.57.73-7.76-2.77-2.18-3.48-1.81-6.76.85-8.42Z"/>
        <path class="cls-1" d="m426.28,175.14l2.57-2.47s.08-.1.04-.17l-3.58-7.46c-.04-.07-.1-.08-.16-.08l-3.52.49c-.22.05-.36-.04-.44-.22l-.58-1.2c-.11-.23-.02-.42.24-.46l19.51-2.6c.22-.05.36.04.45.22l.77,1.6c.08.17.07.34-.11.48l-14.21,13.63c-.19.18-.4.13-.51-.1l-.58-1.2c-.08-.18-.07-.34.11-.48Zm.73-10.27l3.09,6.43c.04.07.11.1.2.03l8.67-8.17c.11-.09.07-.19-.07-.15l-11.79,1.69c-.11.02-.14.1-.1.17Z"/>
        <path class="cls-1" d="m430.42,185l17.65-6.2c.21-.07.39,0,.46.22l.41,1.18c.08.21,0,.39-.22.46l-16.23,5.71c-.08.03-.12.1-.09.18l3.21,9.14c.07.21,0,.39-.22.46l-.94.33c-.21.07-.39,0-.46-.22l-3.79-10.78c-.07-.21.01-.39.22-.46Z"/>
        <path class="cls-1" d="m442.27,203.29l12.74-2.93c.22-.05.38.06.43.27l.28,1.22c.05.22-.05.38-.27.43l-12.79,2.95c-2.57.59-3.91,2.81-3.29,5.51.62,2.7,2.8,4.11,5.37,3.52l12.79-2.95c.22-.05.38.06.43.27l.28,1.22c.05.21-.06.38-.27.43l-12.74,2.93c-3.65.84-6.65-1.17-7.54-5.04-.88-3.84.93-6.99,4.58-7.83Z"/>
        <path class="cls-1" d="m441.39,227.39l18.59-2.07c.22-.03.37.1.4.32l.71,6.42c.41,3.64-1.38,6.18-4.66,6.55l-8.66.97c-3.28.36-5.58-1.72-5.99-5.37l-.72-6.43c-.02-.22.1-.38.32-.4Zm1.58,1.94l.53,4.78c.27,2.4,1.93,3.75,4.3,3.49l8.14-.91c2.4-.27,3.72-1.92,3.45-4.35l-.53-4.78c0-.08-.07-.13-.15-.12l-15.61,1.74c-.08,0-.13.07-.12.15Z"/>
        <path class="cls-1" d="m450.51,270.43l1,.1c.22.02.35.17.32.39l-.77,8.01c-.02.22-.17.34-.39.33l-1-.1c-.22-.02-.35-.17-.33-.39l.78-8.01c.02-.22.17-.35.39-.32Z"/>
        <path class="cls-1" d="m438.55,297.92l18.24,4.17c.21.05.32.21.27.43l-.28,1.22c-.05.22-.22.32-.43.27l-18.24-4.17c-.22-.05-.32-.22-.27-.43l.28-1.22c.05-.22.21-.32.43-.27Z"/>
        <path class="cls-1" d="m435.62,309.86l17.78,5.83c.21.07.3.24.23.46l-.39,1.19c-.06.18-.17.26-.37.32l-17.26,4.16c-.12.02-.13.13,0,.18l14.2,4.65c.21.07.3.24.23.46l-.39,1.19c-.07.21-.24.3-.46.23l-17.78-5.83c-.21-.07-.3-.24-.23-.46l.39-1.19c.06-.18.17-.26.37-.32l17.32-4.17c.12-.02.13-.13,0-.18l-14.26-4.64c-.24-.08-.3-.24-.23-.46l.39-1.18c.07-.21.24-.3.46-.23Z"/>
        <path class="cls-1" d="m434.83,349.16c-2.92-1.34-3.95-4.23-2.57-7.23l2.24-4.89c.04-.08,0-.15-.07-.18l-7.41-3.4c-.2-.09-.27-.28-.18-.48l.52-1.13c.09-.2.28-.27.48-.18l17.02,7.81c.2.09.27.28.18.48l-3.01,6.55c-1.35,2.95-4.22,4.01-7.2,2.65Zm.79-1.78c2.04.94,4.03.2,4.94-1.79l2.19-4.77c.03-.08,0-.15-.07-.18l-6.5-2.99c-.08-.04-.15,0-.18.07l-2.19,4.77c-.91,1.99-.2,3.96,1.81,4.89Z"/>
        <path class="cls-1" d="m423.27,353.85l11.19,6.77c.19.12.24.31.13.5l-.65,1.07c-.12.19-.31.24-.5.12l-11.24-6.8c-2.26-1.37-4.77-.71-6.2,1.67-1.44,2.37-.86,4.9,1.4,6.27l11.24,6.8c.19.12.24.31.12.5l-.65,1.07c-.12.19-.31.24-.5.12l-11.19-6.77c-3.21-1.94-3.95-5.48-1.9-8.87,2.04-3.37,5.54-4.38,8.74-2.43Z"/>
        <path class="cls-1" d="m413.37,391.39l-.81-.63c-.17-.14-.2-.33-.06-.5l3.25-4.22c.05-.07.04-.15-.03-.19l-13.6-10.48c-.18-.14-.2-.33-.07-.51l.76-.99c.13-.17.33-.2.5-.06l13.61,10.48c.07.05.15.04.19-.02l3.12-4.04c.14-.18.33-.2.5-.07l.81.63c.18.14.2.33.07.5l-7.74,10.05c-.13.17-.33.2-.5.06Z"/>
        <path class="cls-1" d="m396.8,389.04l.56.54c.16.15.16.35,0,.51l-.82.86c-.16.16-.35.16-.51.01l-.48-.46c-1.5-1.44-3.88-1.13-5.99,1.08-2.02,2.11-2.03,4.09-.63,5.43,1.43,1.36,3.12.91,6.7-.66,3.27-1.48,5.72-2.56,8.02-.35,2.27,2.17,1.94,5.08-.67,7.81-2.84,2.97-6.09,3.31-8.38,1.13l-.38-.37c-.16-.15-.16-.35,0-.51l.84-.88c.15-.16.35-.16.51-.01l.3.29c1.5,1.44,3.8,1.33,5.95-.92,1.8-1.89,2-3.7.54-5.1-1.5-1.44-3.06-.78-6.33.75-3.36,1.51-6.11,2.49-8.4.3-2.19-2.09-2.08-5.22.78-8.21,2.84-2.97,6.11-3.41,8.38-1.24Z"/>
        <path class="cls-1" d="m372.91,411.69l.47.62c.13.18.11.37-.07.51l-.96.72c-.18.14-.37.11-.51-.07l-.4-.53c-1.25-1.66-3.64-1.74-6.08.09-2.33,1.75-2.67,3.71-1.5,5.26,1.18,1.58,2.93,1.41,6.72.44,3.46-.94,6.05-1.6,7.97.95,1.89,2.51,1.09,5.33-1.93,7.6-3.28,2.47-6.55,2.29-8.45-.24l-.32-.42c-.13-.18-.11-.37.07-.51l.98-.74c.18-.13.37-.11.51.07l.25.33c1.25,1.67,3.54,1.93,6.02.06,2.08-1.57,2.57-3.32,1.35-4.94-1.25-1.67-2.9-1.26-6.36-.28-3.57.94-6.43,1.47-8.34-1.06-1.82-2.42-1.21-5.49,2.1-7.97,3.28-2.47,6.58-2.38,8.47.13Z"/>
        <path class="cls-1" d="m342.25,426.67l2.68,2.35c.05.03.11.07.18.02l7.12-4.21c.07-.04.07-.1.07-.17l-.79-3.47c-.06-.22.01-.36.18-.46l1.15-.68c.22-.13.42-.05.47.2l4.26,19.22c.07.22-.01.36-.18.46l-1.53.9c-.16.1-.33.1-.49-.07l-14.8-12.99c-.2-.17-.16-.39.05-.51l1.15-.68c.17-.1.33-.1.49.07Zm10.3-.15l-6.14,3.63c-.07.04-.09.12,0,.2l8.88,7.94c.09.11.19.05.14-.09l-2.69-11.6c-.03-.11-.11-.13-.18-.09Z"/>
        <path class="cls-1" d="m332.81,431.64l7.7,17.04c.09.2.02.39-.18.48l-1.14.51c-.2.09-.39.02-.48-.18l-7.08-15.68c-.04-.08-.11-.11-.18-.07l-8.83,3.99c-.2.09-.39.02-.48-.18l-.41-.91c-.09-.2-.02-.39.18-.48l10.42-4.71c.2-.09.39-.02.48.18Z"/>
        <path class="cls-1" d="m315.54,445.05l4.02,12.45c.07.21-.02.39-.23.46l-1.19.38c-.21.07-.38-.02-.45-.23l-4.03-12.5c-.81-2.51-3.14-3.66-5.78-2.8s-3.86,3.14-3.05,5.65l4.03,12.5c.07.21-.02.39-.23.46l-1.19.38c-.21.07-.39-.02-.46-.23l-4.02-12.44c-1.15-3.57.6-6.73,4.38-7.95,3.75-1.21,7.05.32,8.2,3.89Z"/>
        <path class="cls-1" d="m291.58,446.21l3.65,18.34c.04.22-.07.38-.28.43l-6.34,1.26c-3.59.71-6.28-.85-6.92-4.09l-1.7-8.55c-.64-3.24,1.24-5.71,4.84-6.42l6.34-1.26c.22-.04.38.07.42.29Zm-1.8,1.74l-4.71.94c-2.37.47-3.57,2.24-3.11,4.58l1.59,8.03c.47,2.37,2.24,3.55,4.63,3.07l4.71-.93c.08-.02.13-.08.11-.16l-3.06-15.41c-.02-.08-.08-.13-.16-.11Z"/>
      </g>
      <g>
        <path class="cls-1" d="m247.09,13.68c3.05,0,6.08.08,9.1.19.15-.33.29-.67.48-.99.91-1.54,1.79-3,2.61-4.45-4.04-.2-8.1-.3-12.18-.3C110.84,8.13,0,118.97,0,255.21c0,124.95,93.23,228.52,213.78,244.84-.59-1.95-1.1-3.91-1.56-5.82C95.5,477.27,5.55,376.56,5.55,255.21,5.55,122.03,113.9,13.68,247.09,13.68Z"/>
        <path class="cls-1" d="m301.43,14.16c-.93,1.71-1.91,3.39-2.96,5.04,108.58,23.62,190.15,120.46,190.15,236.02,0,129.86-103.01,236.09-231.6,241.32.18,1.79.04,3.68-.31,5.57,131.8-5.08,237.46-113.86,237.46-246.89,0-117.58-82.56-216.23-192.75-241.05Z"/>
      </g>
      <g>
        <path class="cls-1" d="m66.94,255.21c0-77.85,49.64-144.3,118.92-169.42.21-1.07.45-2.13.71-3.17-71.21,25.04-122.41,92.93-122.41,172.59,0,88.53,63.24,162.48,146.9,179.27-.01-.94,0-1.88.07-2.81-82.15-16.72-144.19-89.44-144.19-176.46Z"/>
        <path class="cls-1" d="m265.23,73.19c-.37.9-.97,1.78-1.73,2.65,91.67,8.32,163.74,85.57,163.74,179.37,0,84.77-58.88,155.98-137.88,175.06.09.94.09,1.9-.05,2.87,80.56-19.12,140.71-91.59,140.71-177.92,0-94.74-72.41-172.88-164.79-182.02Z"/>
      </g>
      <g>
        <g>
          <path class="cls-1" d="m300.98,257.82c-.34,1.77-1.14,3.43-2.07,5.03-2.18,3.74-3.75,7.75-5.02,11.87-1.2,3.89-.72,7.54,1.78,10.98,3.53,4.88,3,7.06-2.13,10.16-2.78,1.68-5.6,3.32-8.8,4.12-4.27,1.07-7.94.36-10.84-3.33-1.89-2.41-4.14-4.54-6.22-6.81-1.58-1.73-2.73-1.39-3.82.58-1.33,2.4-2.26,4.95-3.21,7.5-3.17,8.46-8.14,11.54-16.8,9.08-7.11-2.02-13.58-1.47-20.2,1.46-5.17,2.29-10.34,1.18-15.33-.97-2.27-.98-3.58-2.91-4.22-5.14-2.47-8.61-5.36-17.1-7.92-25.67-1.77-5.93-.37-9.33,5-12.44,8.82-5.11,18.49-7.61,28.66-7.87,4.03-.11,7.49,1.72,10.42,4.45,1.22,1.14,2.3,2.42,3.44,3.63,2.87,3.06,4.6,3.42,8.38,1.43,4.28-2.25,7.31-5.99,10.7-9.3,3.65-3.56,7.4-7,11.3-10.3,4.07-3.45,8.88-4.82,14.02-5.48,9.24-1.19,15.13,10.24,12.89,17.03Z"/>
          <path class="cls-1" d="m215.64,205.97c3.32.63,5.95,2.47,8.45,4.63,4.43,3.85,8.79,3.73,13.19-.18,3.82-3.39,6.47-7.87,10.52-11.05,4.59-3.6,9.43-6.3,15.49-6.46,10.41-.28,16.87,8.97,12.62,18.45-1.69,3.76-3.84,7.3-5.63,11.02-1.9,3.96-1.61,5.1,1.51,8.09.69.67,1.42,1.33,1.99,2.1,1.19,1.6,1.28,3.31-.1,4.81-2.4,2.59-5.06,4.92-8.35,6.29-5.57,2.32-10.67,1.4-15.14-2.67-1.69-1.54-3.3-3.16-4.91-4.78-1.26-1.26-2.09-1.29-2.84.55-1.48,3.65-2.43,7.5-4.45,10.96-2.74,4.7-6.77,7.09-12.05,6.15-8.07-1.43-16.14-2.2-24.33-2.28-6.16-.06-10.64-3.35-13.42-8.75-3.75-7.29-6.41-15.02-8.62-22.9-1.25-4.47-.04-6.87,4.26-8.56,8.79-3.46,17.82-5.98,27.38-5.95.7,0,1.41.02,2.1.1.78.09,1.56.27,2.33.42Z"/>
          <path class="cls-1" d="m207.73,155.47c2.65.77,4.92,2.25,6.94,4.11,1.49,1.37,2.91,2.81,4.36,4.22,4.35,4.25,9.54,4.03,13.4-.77,5.35-6.65,12.68-9.86,20.63-11.81,3.92-.97,7.8-.31,10.39,3.33,2.65,3.73,2.72,7.65.5,11.66-1.25,2.26-2.98,4.14-4.64,6.06-3.02,3.49-3.34,7.11-1.24,11.2,2.05,3.99,1.52,6.37-1.82,9.36-3.75,3.36-8.1,4.84-13.14,3.94-1.98-.35-3.55-1.19-4.67-3.04-1.22-2.02-2.72-3.89-4.23-5.71-2.4-2.88-3.59-2.68-5.12.82-.67,1.53-1.2,3.11-1.79,4.68-2.17,5.77-5.36,7.77-11.23,6.04-4.82-1.42-9.54-1.77-14.51-1.52-6.67.33-11.32-2.77-13.65-9.04-2.57-6.92-4.73-13.99-5.83-21.32-.82-5.44.5-7.46,5.51-9.58,6.48-2.74,13.15-3.71,20.14-2.61Z"/>
          <path class="cls-1" d="m223.3,395.64c.28-6.51.04-14.51,1.45-22.43.8-4.53,3.36-7.21,7.76-8.25,4.35-1.02,8.61-2.49,13.2-2.07,6.43.58,11.3,3.12,13.96,9.47,3.09,7.4,5.1,7.78,11.33,2.64,2.23-1.84,4.22-3.97,6.37-5.91,4.12-3.72,8.86-6.03,14.51-5.96,3.78.05,7.2,1.1,9.07,4.76,1.99,3.89,1.79,7.82-.41,11.58-1.12,1.92-2.84,3.34-4.6,4.67-1.33,1.01-2.67,2.01-3.93,3.1-4,3.43-4.53,6.69-1.89,11.16,2.76,4.67,2.29,7.26-1.97,10.65-1.45,1.15-2.97,2.21-4.7,2.9-4.82,1.92-8.16.56-10.26-4.2-1.09-2.49-1.96-5.09-3.1-7.55-1.47-3.17-2.41-3.26-4.45-.34-1.71,2.44-3.21,5.04-4.64,7.65-2.31,4.2-6.08,5.9-10.37,3.87-6.36-3-12.91-4.9-19.92-5.62-5.04-.52-7.06-3.27-7.41-10.12Z"/>
          <path class="cls-1" d="m209.41,109.11c4.54.58,8.08,3.67,10.01,9.03,1.81,5.03,3.78,5.66,8.68,3.33,3.88-1.85,7.51-4.23,11.62-5.62,3.67-1.25,7.38-1.71,11.09-.25,7.55,2.97,10.08,11.71,5.4,18.36-2.14,3.05-5.08,5.09-8.33,6.71-2.24,1.12-3.22,2.84-3.15,5.29.15,4.8-3.2,7.76-8.03,7.14-5.33-.68-8.37-3.98-10.21-8.77-1.34-3.5-1.4-3.46-4.28-1.01-2.47,2.11-4.83,4.35-7.74,5.91-2.43,1.3-4.86,1.61-7.23,0-4.9-3.34-10.57-4.69-16.15-6.24-3-.83-5.15-2.32-5.58-5.54-1.03-7.68-1.99-15.33,1.13-22.86,2.13-5.13,4.68-7.11,10.18-6.94,3.87.12,7.72.43,12.59,1.46Z"/>
          <path class="cls-1" d="m283.17,424.12c.14,4.24-2.08,8.39-5.54,12.01-.48.5-1.02,1-1.62,1.34-3.97,2.27-5.72,5.46-5.29,10.21.34,3.74-1.15,5.2-4.48,6.07-3.05.79-4.89.01-6.75-3.13-1.56-2.64-2.92-5.4-4.43-8.08-1.42-2.54-2.7-2.69-4.64-.56-1.38,1.52-2.19,3.37-3.03,5.22-2.44,5.37-6.36,6.48-10.92,2.88-3.66-2.89-7.31-5.67-11.63-7.6-3.03-1.36-4.42-4.21-4.5-7.51-.14-5.11.47-10.18,1.61-15.15,1.4-6.09,5.36-9.16,11.65-9.36,3.35-.11,6.68-.07,9.92.87,4.07,1.19,6.36,3.86,6.66,8.16.09,1.31.21,2.63.43,3.93.38,2.29,1.5,2.91,3.76,2.02,2.16-.85,3.84-2.46,5.53-3.98,3.11-2.8,6.43-5.15,10.61-6.07,5.97-1.31,11.84,2.33,12.66,8.74Z"/>
          <path class="cls-1" d="m213.32,70.6c4.8,1.42,9.35,4.46,11.59,10.15,1.02,2.58,2.96,3.28,5.42,3.27,2.68-.01,5.17-.94,7.69-1.7,2.63-.79,5.29-1.24,8.05-1.04,4.77.34,8.39,3.02,9.24,6.9.87,3.92-1.14,8.03-5.18,10.34-1.98,1.13-4.06,2.1-6.11,3.1-2.02.98-3.29,2.46-3.84,4.71-.73,3-1.46,6.28-5.28,6.74-4,.48-6.86-1.56-9.01-4.81-1.19-1.81-1.69-3.86-2.19-5.9-.42-1.7-1.17-1.7-2.38-.82-1.63,1.18-3.24,2.42-4.96,3.47-2.18,1.33-4.35,1.04-6.42-.41-4.02-2.82-8.06-5.62-12.1-8.41-1.46-1.01-2.69-2.27-3.77-3.65-1.44-1.84-1.66-3.9-.5-5.92,2.1-3.67,3.62-7.6,5.36-11.43,1.41-3.11,3.79-5.48,7.76-5.28,1.93.1,3.86.05,6.63.72Z"/>
          <path class="cls-1" d="m243.2,481.4c-.07-1.46-.58-3.37-1.5-5.22-.94-1.89-2.02-2.35-3.59-.78-1.3,1.31-2.56,2.65-3.8,4.01-1.98,2.18-3.76,2.35-5.88.34-2.35-2.23-4.53-4.59-7.41-6.25-2.31-1.33-2.68-3.75-1.7-6.04,1.75-4.06,2.85-8.26,3.75-12.58.74-3.55,2.66-4.44,6.28-3.72,5.99,1.2,10.05,4.2,11,10.7.46,3.12,1.1,3.26,4.1,2.12,2.63-1,4.94-2.66,7.71-3.38,3.85-1,6.93-.08,8.3,2.63,1.42,2.81.46,6.22-2.45,8.65-.61.51-1.22,1.03-1.91,1.4-3.81,2-6.54,4.62-6.27,9.41.09,1.53-.79,2.84-2.4,3.47-2.67,1.04-3.86-.14-4.23-4.76Z"/>
          <path class="cls-1" d="m242.82,54.25c-.49,1.41-1,2.81-1.48,4.22-.65,1.9.17,2.45,1.93,2.03,1.54-.37,3.05-.85,4.59-1.2,2.1-.48,4.15-.46,6.17.51,4.44,2.14,5.05,7.88,1.04,10.77-.91.65-2,1.32-3.06,1.45-4.5.54-7.9,2.29-9.56,6.88-.58,1.59-2.35,2.23-4.02,1.29-1.8-1.01-.67-2.36-.18-3.65.76-1.97,1.39-3.97,1.22-6.15-.28-3.65-1.27-4.38-4.7-3.31-1.01.31-2,.66-3.01.95-2.53.71-4.56-.08-5.87-2.31-2.02-3.42-3.4-7.13-4.56-10.91-.56-1.8-.06-3.47,1.11-4.94,2.03-2.55,4.2-4.98,6.65-7.12,3.11-2.72,6.1-2.7,9.24-.03,3.53,3.01,6.03,6.48,4.5,11.51Z"/>
          <path class="cls-1" d="m255.72,45.36c.26-1.08.46-1.76.57-2.45.34-2.05-.73-2.71-2.58-2.57-.17.01-.34.07-.52.11q-5.8,1.26-8.59-3.93c-.58-1.08-1.26-2.12-1.78-3.23-1.88-4-1.08-6.61,2.72-8.9,1.28-.77,2.62-1.44,3.95-2.11,3.76-1.9,6.24-1.58,9.13,1.12,2.61,2.43,3.05,4.84,1.58,8.61-.97,2.48-.73,2.81,1.83,2.57.79-.07,1.58-.21,2.36-.16,3.15.18,5.51,2.24,5.66,4.87.15,2.67-2.16,5.7-5.13,5.7-3.68,0-5.48,1.58-6.28,4.95-.25,1.07-1.09,1.93-2.36,1.59-1.18-.32-1.21-1.36-1.06-2.38.2-1.39.04-2.83.49-3.77Z"/>
          <path class="cls-1" d="m221.74,498.12c.25-3.43.68-6.92,1.99-10.2.62-1.56,2.08-2.02,3.75-1.62,3.07.74,5.17,2.49,5.98,5.63.22.85.5,1.68.8,2.5.47,1.3,1.33,1.53,2.47.81.15-.09.31-.17.45-.27,1.77-1.12,3.6-2.25,5.33-.07,1.26,1.58.59,3.41-1.89,5.17-1.26.89-1.56,2.03-1.44,3.42.1,1.13.33,2.27-.09,3.39-.46,1.23-1.2,2.17-2.63,2.22-1.5.06-2.21-.9-2.53-2.2-.33-1.36-.56-2.74-.86-4.11-.32-1.47-1.03-1.79-2.13-.64-1.23,1.3-2.54,2.79-4.49,1.79-2.31-1.19-4.04-3.04-4.71-5.81Z"/>
          <path class="cls-1" d="m266.64,13.9c1.42-3.03,3.18-5.51,6.09-6.93,1.42-.7,2.74-.37,3.82.81,1.05,1.14,1.94,2.51,1.57,4.03-.78,3.24-.61,5.35,3.55,5.75,1.91.18,2.35,2.26,1.22,4-.56.86-1.41,1.56-2.23,2.21-1.65,1.3-3.42,2.45-4.35,4.48-.44.95-1.34,1.43-2.43.98-.99-.42-1.08-1.29-.91-2.22.03-.17.08-.34.11-.52.79-4.73.81-4.77-3.32-7.03-2.32-1.27-2.85-3.35-3.12-5.55Z"/>
          <path class="cls-1" d="m221.34,520.65c.33-1.8.52-4.2,1.25-6.42.6-1.82,2.19-2.14,3.86-1.07,1.09.7,1.59,1.84,2.03,3,.49,1.31,1.3,1.81,2.66,1.22,1.21-.53,2.42-.67,3.36.48,1.02,1.26.45,2.53-.26,3.66-1.13,1.79-2.22,3.53-2.12,5.81.04,1.03-.63,1.87-1.81,1.87-1.22,0-1.58-.9-1.77-1.92-.12-.69-.2-1.4-.43-2.06-.48-1.41-1.23-2.25-2.95-1.59-2.22.85-3.28-.35-3.81-2.96Z"/>
          <path class="cls-1" d="m285.04,3.98c.41-1.92,3.36-4.1,5.27-3.97,2.29.16,2.84,1.75,2.8,3.69-.02,1.14.59,1.73,1.5,2.24,2.04,1.15,2.03,2.66.62,4.33-.23.27-.44.55-.71.77-1.25,1.02-2.29,2.88-4.15,2.26-1.93-.64-1.7-2.66-1.69-4.3,0-1.15-.34-1.75-1.52-2.03-1.6-.38-2.25-1.54-2.11-2.99Z"/>
        </g>
        <path class="cls-1" d="m388.18,181c-14.68-31.54-53.27-47.24-99.21-44.85-.77-7.46-3.74-12.54-3.74-12.54l-19.42,15.44c-.82.65-.58,1.96.42,2.27l21.77,6.87c.97-3.49,1.24-6.81,1.13-9.83,36.25.37,66.05,14.13,77.96,39.73,19.99,42.95-17.91,102.95-84.65,134-66.74,31.05-137.04,21.4-157.02-21.55-7.01-15.07-6.89-32.23-.91-49.51-11.31,23.5-20.01,46.97-10.46,67.51,22.67,48.72,102.42,59.67,178.12,24.45,75.7-35.22,118.69-103.28,96.02-152Z"/>
      </g>
    </g>
  </g>
</svg>