<?xml version="1.0" encoding="UTF-8"?>
<svg id="Capa_2" data-name="Capa 2" xmlns="http://www.w3.org/2000/svg" viewBox="0 0 754.4 172.55">
  <defs>
    <style>
      .cls-1 {
        fill: #4d4d4d;
        stroke-width: 0px;
      }
    </style>
  </defs>
  <g id="Capa_1-2" data-name="Capa 1">
    <g>
      <g>
        <g>
          <path class="cls-1" d="m61.29,82.72c-.11.57-.37,1.1-.66,1.61-.7,1.2-1.2,2.49-1.61,3.81-.39,1.25-.23,2.42.57,3.52,1.13,1.56.96,2.27-.68,3.26-.89.54-1.8,1.06-2.82,1.32-1.37.34-2.55.12-3.48-1.07-.61-.77-1.33-1.46-1.99-2.18-.51-.56-.87-.45-1.22.18-.43.77-.73,1.59-1.03,2.41-1.02,2.71-2.61,3.7-5.39,2.91-2.28-.65-4.36-.47-6.48.47-1.66.73-3.32.38-4.92-.31-.73-.31-1.15-.93-1.35-1.65-.79-2.76-1.72-5.49-2.54-8.24-.57-1.9-.12-2.99,1.6-3.99,2.83-1.64,5.93-2.44,9.2-2.53,1.29-.03,2.4.55,3.34,1.43.39.36.74.78,1.11,1.17.92.98,1.48,1.1,2.69.46,1.37-.72,2.35-1.92,3.43-2.98,1.17-1.14,2.38-2.25,3.62-3.3,1.31-1.11,2.85-1.55,4.5-1.76,2.97-.38,4.85,3.29,4.14,5.46Z"/>
          <path class="cls-1" d="m33.91,66.08c1.07.2,1.91.79,2.71,1.49,1.42,1.23,2.82,1.2,4.23-.06,1.23-1.09,2.07-2.52,3.38-3.55,1.47-1.16,3.02-2.02,4.97-2.07,3.34-.09,5.41,2.88,4.05,5.92-.54,1.21-1.23,2.34-1.81,3.54-.61,1.27-.52,1.64.48,2.6.22.21.46.43.64.67.38.51.41,1.06-.03,1.54-.77.83-1.62,1.58-2.68,2.02-1.79.74-3.42.45-4.86-.86-.54-.49-1.06-1.01-1.58-1.53-.4-.4-.67-.41-.91.18-.48,1.17-.78,2.41-1.43,3.52-.88,1.51-2.17,2.28-3.87,1.97-2.59-.46-5.18-.71-7.81-.73-1.98-.02-3.41-1.07-4.31-2.81-1.2-2.34-2.06-4.82-2.77-7.35-.4-1.43-.01-2.2,1.37-2.75,2.82-1.11,5.72-1.92,8.78-1.91.23,0,.45,0,.68.03.25.03.5.09.75.13Z"/>
          <path class="cls-1" d="m31.37,49.88c.85.25,1.58.72,2.23,1.32.48.44.93.9,1.4,1.35,1.4,1.36,3.06,1.29,4.3-.25,1.72-2.14,4.07-3.16,6.62-3.79,1.26-.31,2.5-.1,3.33,1.07.85,1.2.87,2.45.16,3.74-.4.72-.96,1.33-1.49,1.94-.97,1.12-1.07,2.28-.4,3.59.66,1.28.49,2.05-.58,3-1.2,1.08-2.6,1.55-4.22,1.26-.64-.11-1.14-.38-1.5-.97-.39-.65-.87-1.25-1.36-1.83-.77-.93-1.15-.86-1.64.26-.21.49-.39,1-.58,1.5-.7,1.85-1.72,2.49-3.6,1.94-1.55-.46-3.06-.57-4.66-.49-2.14.11-3.63-.89-4.38-2.9-.82-2.22-1.52-4.49-1.87-6.84-.26-1.75.16-2.39,1.77-3.08,2.08-.88,4.22-1.19,6.46-.84Z"/>
          <path class="cls-1" d="m36.37,126.94c.09-2.09.01-4.66.46-7.2.26-1.45,1.08-2.31,2.49-2.65,1.39-.33,2.76-.8,4.24-.66,2.06.19,3.63,1,4.48,3.04.99,2.37,1.63,2.49,3.64.85.72-.59,1.36-1.27,2.05-1.9,1.32-1.19,2.84-1.94,4.66-1.91,1.21.01,2.31.35,2.91,1.53.64,1.25.57,2.51-.13,3.71-.36.62-.91,1.07-1.47,1.5-.43.32-.86.65-1.26.99-1.28,1.1-1.45,2.15-.61,3.58.88,1.5.73,2.33-.63,3.42-.46.37-.95.71-1.51.93-1.55.62-2.62.18-3.29-1.35-.35-.8-.63-1.63-1-2.42-.47-1.02-.77-1.05-1.43-.11-.55.78-1.03,1.62-1.49,2.46-.74,1.35-1.95,1.89-3.33,1.24-2.04-.96-4.14-1.57-6.39-1.8-1.62-.17-2.27-1.05-2.38-3.25Z"/>
          <path class="cls-1" d="m31.91,35.01c1.46.18,2.59,1.18,3.21,2.9.58,1.61,1.21,1.82,2.78,1.07,1.25-.59,2.41-1.36,3.73-1.8,1.18-.4,2.37-.55,3.56-.08,2.42.95,3.23,3.76,1.73,5.89-.69.98-1.63,1.63-2.67,2.15-.72.36-1.03.91-1.01,1.7.05,1.54-1.03,2.49-2.57,2.29-1.71-.22-2.69-1.28-3.28-2.81-.43-1.12-.45-1.11-1.37-.33-.79.68-1.55,1.4-2.48,1.9-.78.42-1.56.52-2.32,0-1.57-1.07-3.39-1.5-5.18-2-.96-.27-1.65-.74-1.79-1.78-.33-2.46-.64-4.92.36-7.33.68-1.65,1.5-2.28,3.27-2.23,1.24.04,2.48.14,4.04.47Z"/>
          <path class="cls-1" d="m55.58,136.08c.04,1.36-.67,2.69-1.78,3.85-.15.16-.33.32-.52.43-1.27.73-1.84,1.75-1.7,3.28.11,1.2-.37,1.67-1.44,1.95-.98.25-1.57,0-2.16-1-.5-.85-.94-1.73-1.42-2.59-.46-.82-.87-.86-1.49-.18-.44.49-.7,1.08-.97,1.67-.78,1.72-2.04,2.08-3.5.92-1.18-.93-2.35-1.82-3.73-2.44-.97-.43-1.42-1.35-1.45-2.41-.04-1.64.15-3.26.52-4.86.45-1.95,1.72-2.94,3.74-3,1.07-.04,2.14-.02,3.18.28,1.31.38,2.04,1.24,2.14,2.62.03.42.07.84.14,1.26.12.73.48.93,1.21.65.69-.27,1.23-.79,1.78-1.28,1-.9,2.06-1.65,3.41-1.95,1.91-.42,3.8.75,4.06,2.8Z"/>
          <path class="cls-1" d="m33.16,22.65c1.54.45,3,1.43,3.72,3.26.33.83.95,1.05,1.74,1.05.86,0,1.66-.3,2.47-.55.84-.25,1.7-.4,2.58-.33,1.53.11,2.69.97,2.97,2.21.28,1.26-.37,2.58-1.66,3.32-.64.36-1.3.67-1.96.99-.65.32-1.06.79-1.23,1.51-.23.96-.47,2.02-1.69,2.16-1.28.15-2.2-.5-2.89-1.54-.38-.58-.54-1.24-.7-1.89-.13-.54-.38-.54-.76-.26-.52.38-1.04.78-1.59,1.11-.7.43-1.4.33-2.06-.13-1.29-.9-2.59-1.8-3.88-2.7-.47-.32-.86-.73-1.21-1.17-.46-.59-.53-1.25-.16-1.9.67-1.18,1.16-2.44,1.72-3.67.45-1,1.22-1.76,2.49-1.69.62.03,1.24.01,2.13.23Z"/>
          <path class="cls-1" d="m42.75,154.46c-.02-.47-.19-1.08-.48-1.68-.3-.61-.65-.75-1.15-.25-.42.42-.82.85-1.22,1.29-.64.7-1.21.75-1.89.11-.75-.72-1.45-1.47-2.38-2.01-.74-.43-.86-1.2-.55-1.94.56-1.3.91-2.65,1.2-4.04.24-1.14.85-1.43,2.01-1.19,1.92.38,3.23,1.35,3.53,3.43.15,1,.35,1.05,1.32.68.84-.32,1.59-.85,2.47-1.09,1.24-.32,2.22-.03,2.66.85.46.9.15,1.99-.79,2.78-.19.16-.39.33-.61.45-1.22.64-2.1,1.48-2.01,3.02.03.49-.25.91-.77,1.11-.86.33-1.24-.04-1.36-1.53Z"/>
          <path class="cls-1" d="m42.63,17.41c-.16.45-.32.9-.48,1.35-.21.61.05.79.62.65.49-.12.98-.27,1.47-.39.67-.15,1.33-.15,1.98.16,1.43.69,1.62,2.53.33,3.45-.29.21-.64.42-.98.47-1.44.17-2.53.74-3.07,2.21-.18.51-.76.72-1.29.42-.58-.33-.22-.76-.06-1.17.24-.63.45-1.27.39-1.97-.09-1.17-.41-1.4-1.51-1.06-.32.1-.64.21-.97.3-.81.23-1.46-.03-1.88-.74-.65-1.1-1.09-2.29-1.46-3.5-.18-.58-.02-1.11.36-1.59.65-.82,1.35-1.6,2.13-2.28,1-.87,1.96-.87,2.96,0,1.13.97,1.93,2.08,1.44,3.69Z"/>
          <path class="cls-1" d="m46.77,14.55c.08-.35.15-.57.18-.79.11-.66-.23-.87-.83-.82-.06,0-.11.02-.17.03q-1.86.4-2.76-1.26c-.19-.35-.41-.68-.57-1.04-.6-1.28-.35-2.12.87-2.86.41-.25.84-.46,1.27-.68,1.21-.61,2-.51,2.93.36.84.78.98,1.55.51,2.76-.31.8-.23.9.59.82.25-.02.51-.07.76-.05,1.01.06,1.77.72,1.81,1.56.05.86-.69,1.83-1.65,1.83-1.18,0-1.76.51-2.01,1.59-.08.34-.35.62-.76.51-.38-.1-.39-.44-.34-.76.07-.45.01-.91.16-1.21Z"/>
          <path class="cls-1" d="m35.86,159.82c.08-1.1.22-2.22.64-3.27.2-.5.67-.65,1.2-.52.98.24,1.66.8,1.92,1.81.07.27.16.54.26.8.15.42.43.49.79.26.05-.03.1-.06.15-.09.57-.36,1.15-.72,1.71-.02.4.51.19,1.09-.61,1.66-.4.29-.5.65-.46,1.1.03.36.11.73-.03,1.09-.15.39-.39.7-.85.71-.48.02-.71-.29-.81-.71-.1-.44-.18-.88-.28-1.32-.1-.47-.33-.57-.68-.2-.4.42-.81.9-1.44.57-.74-.38-1.3-.98-1.51-1.87Z"/>
          <path class="cls-1" d="m50.27,4.46c.46-.97,1.02-1.77,1.95-2.22.46-.22.88-.12,1.23.26.34.37.62.81.5,1.29-.25,1.04-.2,1.72,1.14,1.85.61.06.75.72.39,1.28-.18.28-.45.5-.72.71-.53.42-1.1.78-1.4,1.44-.14.31-.43.46-.78.31-.32-.13-.35-.41-.29-.71.01-.06.03-.11.04-.17.25-1.52.26-1.53-1.07-2.26-.74-.41-.92-1.07-1-1.78Z"/>
          <path class="cls-1" d="m35.74,167.05c.11-.58.17-1.35.4-2.06.19-.58.7-.69,1.24-.34.35.22.51.59.65.96.16.42.42.58.85.39.39-.17.78-.22,1.08.15.33.4.15.81-.08,1.17-.36.57-.71,1.13-.68,1.86.01.33-.2.6-.58.6-.39,0-.51-.29-.57-.62-.04-.22-.06-.45-.14-.66-.15-.45-.39-.72-.95-.51-.71.27-1.05-.11-1.22-.95Z"/>
          <path class="cls-1" d="m56.18,1.28c.13-.62,1.08-1.32,1.69-1.27.74.05.91.56.9,1.18,0,.36.19.55.48.72.65.37.65.85.2,1.39-.07.09-.14.18-.23.25-.4.33-.74.92-1.33.73-.62-.2-.55-.85-.54-1.38,0-.37-.11-.56-.49-.65-.51-.12-.72-.49-.68-.96Z"/>
        </g>
        <path class="cls-1" d="m56.24,39.66s2.09,3.55.89,7.89l-6.98-2.2c-.32-.1-.4-.52-.13-.73l6.23-4.95Z"/>
        <path class="cls-1" d="m4.67,77.34c-3.63,7.54-6.42,15.07-3.35,21.66,7.27,15.63,32.86,19.14,57.15,7.84,24.29-11.3,38.08-33.14,30.81-48.77-5.2-11.19-19.79-16.16-36.56-13.95.07.15.13.29.2.44,13.66-1.12,25.28,3.31,29.59,12.58,6.41,13.78-5.75,33.03-27.16,42.99-21.41,9.96-43.97,6.87-50.38-6.91-2.25-4.83-2.21-10.34-.29-15.88"/>
      </g>
      <g>
        <path class="cls-1" d="m139.34,20.38v115.24h-15.12V29.82c0-5.21,4.23-9.44,9.44-9.44h5.68Z"/>
        <path class="cls-1" d="m163.86,43.95v12.94c1.18-4.72,3.54-8.38,7.08-10.97,3.54-2.59,7.81-3.88,12.8-3.88,3.45,0,6.63.54,9.54,1.63,2.9,1.09,5.43,2.61,7.56,4.56,2.13,1.95,3.79,4.34,4.97,7.15,1.18,2.82,1.77,5.91,1.77,9.26v70.97h-15.12v-68.79c0-5.54-1.32-10.13-3.95-13.76-2.63-3.63-6.18-5.45-10.62-5.45-1.82,0-3.56.5-5.24,1.5-1.68,1-3.18,2.36-4.5,4.08-1.32,1.73-2.36,3.68-3.13,5.86-.77,2.18-1.16,4.49-1.16,6.95v69.61h-14.98V48.58l14.98-4.63Z"/>
        <path class="cls-1" d="m226.93,43.95l3.13,11.85c1.82-4.36,4.38-7.74,7.7-10.15,3.31-2.41,7.92-3.61,13.83-3.61,4.27,0,8.06,1.43,11.38,4.29,3.31,2.86,6.08,6.77,8.31,11.71,2.22,4.95,3.93,10.69,5.11,17.23,1.18,6.54,1.77,13.49,1.77,20.84,0,5.36-.66,10.54-1.98,15.53-1.32,5-3.15,9.45-5.52,13.35-2.36,3.91-5.22,7.04-8.58,9.4-3.36,2.36-7.13,3.54-11.31,3.54-5.27,0-9.38-1.34-12.33-4.02-2.95-2.68-5.24-6.47-6.88-11.37v50h-3.36c-6.5,0-11.77-5.27-11.77-11.77V48.58l10.49-4.63Zm4.63,64.16c0,2.36.5,4.95,1.5,7.76,1,2.82,2.34,5.47,4.02,7.97,1.68,2.5,3.59,4.59,5.72,6.27,2.13,1.68,4.34,2.52,6.61,2.52s4.27-.77,5.99-2.31c1.72-1.54,3.15-3.72,4.29-6.54,1.13-2.81,1.98-6.17,2.52-10.08.54-3.9.82-8.22.82-12.94,0-6.99-.5-13.71-1.5-20.16-1-6.45-2.38-12.12-4.15-17.03-1.77-4.9-3.84-8.81-6.2-11.72-2.36-2.9-4.9-4.36-7.63-4.36-1.54,0-3.04.77-4.49,2.31-1.45,1.55-2.72,3.38-3.81,5.52-1.09,2.14-1.98,4.38-2.66,6.74-.68,2.36-1.02,4.36-1.02,5.99v40.05Z"/>
        <path class="cls-1" d="m298.98,43.4v67.84c0,2.82.34,5.4,1.02,7.76.68,2.36,1.68,4.43,3,6.2,1.32,1.77,2.86,3.16,4.63,4.15,1.77,1,3.75,1.5,5.93,1.5s3.99-.48,5.72-1.43c1.72-.95,3.2-2.25,4.43-3.88,1.23-1.63,2.18-3.52,2.86-5.65.68-2.13,1.02-4.38,1.02-6.74V48.17l15.12-4.77v92.22h-11.99l-3.13-11.85c-1.18,3.81-3.61,6.86-7.29,9.13-3.68,2.27-7.88,3.4-12.6,3.4-3.36,0-6.47-.54-9.33-1.63-2.86-1.09-5.36-2.66-7.49-4.7-2.14-2.04-3.81-4.47-5.04-7.29-1.23-2.81-1.84-5.99-1.84-9.53V48.17l14.98-4.77Z"/>
        <path class="cls-1" d="m371.32,43.95h11.99v3.27h-11.99v69.75c0,1.91.38,3.84,1.16,5.79.77,1.95,1.77,3.72,3,5.31,1.23,1.59,2.63,2.86,4.22,3.81,1.59.95,3.25,1.43,4.97,1.43,2.27,0,4.77-1.09,7.49-3.27l1.36,3.27c-2,1.82-4.16,3.04-6.47,3.68-2.31.63-4.65.95-7.02.95-3.45,0-6.65-.57-9.6-1.7-2.95-1.13-5.47-2.72-7.56-4.77-2.09-2.04-3.72-4.47-4.9-7.29-1.18-2.82-1.77-5.95-1.77-9.4V47.22h-7.08v-3.27c12.81,0,20.21-7.45,22.21-22.34v22.34Z"/>
        <path class="cls-1" d="m440.93,57.3c-2-2.9-4.2-5.24-6.61-7.02-2.41-1.77-5.15-2.66-8.24-2.66-2,0-3.88.41-5.65,1.23-1.77.82-3.34,1.93-4.7,3.34-1.36,1.41-2.43,3.02-3.2,4.84-.77,1.82-1.16,3.73-1.16,5.72,0,3.81.7,7.11,2.11,9.88,1.41,2.77,3.66,5.02,6.74,6.74,3.45,2,6.92,3.91,10.42,5.72,3.5,1.82,6.65,3.86,9.47,6.13,2.81,2.27,5.11,4.93,6.88,7.97,1.77,3.04,2.66,6.79,2.66,11.24,0,3.45-.61,6.83-1.84,10.15-1.23,3.32-3.09,6.27-5.58,8.85-2.5,2.59-5.65,4.65-9.47,6.2-3.81,1.54-8.36,2.31-13.62,2.31-3,0-5.72-.43-8.17-1.29-2.45-.86-4.63-2.04-6.54-3.54-1.91-1.5-3.63-3.25-5.18-5.24-1.54-2-2.95-4.18-4.22-6.54l5.31-3.4c.73,1.73,1.7,3.45,2.93,5.18,1.23,1.73,2.61,3.27,4.16,4.63,1.54,1.36,3.2,2.48,4.97,3.34,1.77.86,3.61,1.29,5.52,1.29,2.82,0,5.27-.45,7.36-1.36,2.09-.91,3.81-2.13,5.18-3.68,1.36-1.54,2.36-3.27,3-5.18.63-1.91.95-3.9.95-5.99,0-3.81-.93-6.97-2.79-9.47-1.86-2.5-4.2-4.72-7.01-6.67-2.82-1.95-5.88-3.79-9.2-5.52-3.32-1.72-6.38-3.75-9.2-6.06-2.82-2.31-5.15-5.08-7.02-8.31-1.86-3.22-2.79-7.29-2.79-12.19,0-3.36.66-6.61,1.97-9.74,1.32-3.13,3.11-5.9,5.38-8.31,2.27-2.41,4.93-4.31,7.97-5.72,3.04-1.41,6.29-2.11,9.74-2.11,5.99,0,10.81.89,14.44,2.66,3.63,1.77,6.77,4.79,9.4,9.06l-4.36,3.54Z"/>
      </g>
      <g>
        <path class="cls-1" d="m524.55,35.44c-2.08-3.26-4.32-5.86-6.72-7.81-2.4-1.95-4.96-2.92-7.67-2.92s-5.32.52-7.53,1.56c-2.22,1.04-4.07,2.44-5.57,4.21-1.49,1.77-2.65,3.85-3.46,6.25-.82,2.4-1.22,4.91-1.22,7.53,0,4.16.86,7.92,2.58,11.27,1.72,3.35,3.94,6.56,6.65,9.64,2.72,3.08,5.79,6.09,9.23,9.03,3.44,2.94,6.88,6.04,10.32,9.3,3.44,3.35,5.91,7.33,7.4,11.95,1.49,4.62,2.24,9.14,2.24,13.58,0,8.87-2.69,15.89-8.08,21.05-5.39,5.16-12.88,7.74-22.47,7.74-5.61,0-10.52-1.4-14.73-4.21-4.21-2.81-7.35-6.93-9.44-12.36l5.43-3.4c.54,1.9,1.38,3.73,2.51,5.5,1.13,1.77,2.51,3.33,4.14,4.68,1.63,1.36,3.44,2.44,5.43,3.26,1.99.81,4.07,1.22,6.24,1.22s4.09-.52,6.04-1.56c1.95-1.04,3.64-2.58,5.09-4.62,1.45-2.04,2.6-4.55,3.46-7.53.86-2.99,1.29-6.38,1.29-10.18s-.75-7.58-2.24-11.34c-1.49-3.76-4.01-7.26-7.54-10.52-3.44-3.08-6.74-6.06-9.91-8.96-3.17-2.89-6.02-5.86-8.55-8.89-2.53-3.03-4.55-6.31-6.04-9.84-1.49-3.53-2.24-7.47-2.24-11.81,0-3.89.59-7.53,1.77-10.93,1.18-3.4,2.96-6.34,5.36-8.83,2.4-2.49,5.41-4.46,9.03-5.91,3.62-1.45,7.87-2.17,12.76-2.17s9.05,1.13,12.22,3.4c3.17,2.26,6.06,5.29,8.69,9.1l-4.48,3.53Z"/>
        <path class="cls-1" d="m542.74,54.45c6.06-8.15,15.11-12.22,27.15-12.22,3.98,0,7.56.57,10.73,1.7,3.17,1.13,5.84,2.67,8.01,4.62,2.17,1.95,3.85,4.21,5.02,6.79,1.18,2.58,1.77,5.32,1.77,8.21v60.15c0,4.98.95,8.87,2.85,11.68h-14.8c-1.18-1.72-2.01-3.53-2.51-5.43-.5-1.9-.75-3.94-.75-6.11-.73,1.81-1.56,3.58-2.51,5.3-.95,1.72-2.19,3.21-3.73,4.48-1.54,1.27-3.37,2.28-5.5,3.05-2.13.77-4.68,1.16-7.67,1.16-4.53,0-8.31-.68-11.34-2.04-3.03-1.36-5.48-3.21-7.33-5.57-1.86-2.35-3.19-5.11-4-8.28-.82-3.17-1.22-6.61-1.22-10.32,0-6.33,2.38-11.77,7.13-16.29,4.75-4.53,11.97-7.83,21.66-9.91,3.89-.81,7.08-2.19,9.57-4.14,2.49-1.95,4.19-4.82,5.09-8.62v-6.93c0-1.99-.45-4.05-1.36-6.18-.91-2.13-2.13-4.07-3.67-5.84-1.54-1.77-3.35-3.21-5.43-4.35-2.08-1.13-4.3-1.7-6.65-1.7-5.97,0-11.27,2.99-15.88,8.96l-4.62-2.17Zm37.61,24.98c-.36,2.72-1.43,4.89-3.19,6.52-1.77,1.63-4.1,2.94-6.99,3.94-12.22,3.98-18.33,10.23-18.33,18.74,0,2.9.23,5.84.68,8.83.45,2.99,1.24,5.66,2.38,8.01,1.13,2.35,2.62,4.28,4.48,5.77,1.85,1.49,4.14,2.24,6.86,2.24,3.17,0,5.88-1.65,8.15-4.96,2.26-3.3,4.07-7.35,5.43-12.15l.54-4.75v-32.18Z"/>
        <path class="cls-1" d="m619.32,18.2v117.17h-3.88c-6.18,0-11.19-5.01-11.19-11.19V22.81l15.07-4.62Z"/>
        <path class="cls-1" d="m643.21,43.58v67.62c0,2.81.34,5.39,1.02,7.74.68,2.36,1.67,4.41,2.99,6.18,1.31,1.77,2.85,3.15,4.62,4.14,1.77,1,3.73,1.49,5.91,1.49s3.98-.48,5.7-1.43c1.72-.95,3.19-2.24,4.41-3.87,1.22-1.63,2.17-3.51,2.85-5.63.68-2.13,1.02-4.37,1.02-6.72V48.34l15.07-4.75v91.92h-11.95l-3.12-11.81c-1.18,3.8-3.6,6.84-7.26,9.1-3.67,2.26-7.85,3.4-12.56,3.4-3.35,0-6.45-.54-9.3-1.63s-5.34-2.65-7.47-4.68c-2.13-2.04-3.8-4.46-5.02-7.26-1.22-2.8-1.83-5.97-1.83-9.5V48.34l14.93-4.75Z"/>
        <path class="cls-1" d="m754.4,18.2v117.31h-11.95l-3.12-10.73c-.91,1.81-1.9,3.51-2.99,5.09-1.09,1.59-2.42,2.97-4.01,4.14-1.59,1.18-3.42,2.1-5.5,2.78-2.08.68-4.53,1.02-7.33,1.02-4.07,0-7.74-1.38-11-4.14-3.26-2.76-6.04-6.59-8.35-11.47-2.31-4.89-4.1-10.66-5.36-17.31-1.27-6.65-1.9-13.83-1.9-21.52,0-5.43.56-10.63,1.7-15.61,1.13-4.98,2.78-9.35,4.96-13.1,2.17-3.76,4.84-6.76,8.01-9.03,3.17-2.26,6.79-3.4,10.86-3.4,5.16,0,9.46,1.15,12.9,3.46,3.44,2.31,6.11,6.09,8.01,11.34v-23.87c0-6.15,4.01-11.58,9.89-13.38l5.18-1.59Zm-15.07,53.36c0-1.99-.41-4.37-1.22-7.13-.82-2.76-1.95-5.41-3.4-7.94-1.45-2.53-3.17-4.66-5.16-6.38-1.99-1.72-4.16-2.58-6.52-2.58-5.07,0-8.92,2.56-11.54,7.67-2.63,5.12-3.94,12.61-3.94,22.47,0,6.43.5,12.9,1.49,19.42.99,6.52,2.37,12.38,4.14,17.58,1.77,5.21,3.87,9.46,6.31,12.76,2.44,3.31,5.07,4.96,7.87,4.96,1.36,0,2.74-.68,4.14-2.04,1.4-1.36,2.69-3.05,3.87-5.09,1.17-2.04,2.13-4.18,2.85-6.45.72-2.26,1.09-4.34,1.09-6.25v-41Z"/>
      </g>
    </g>
  </g>
</svg>