<?xml version="1.0" encoding="UTF-8"?>
<svg id="Capa_2" data-name="Capa 2" xmlns="http://www.w3.org/2000/svg" viewBox="0 0 181.58 308.7">
  <defs>
    <style>
      .cls-1 {
        opacity: .69;
      }

      .cls-1, .cls-2 {
        fill: #fff;
        stroke-width: 0px;
      }
    </style>
  </defs>
  <g id="Capa_1-2" data-name="Capa 1">
    <g>
      <path class="cls-1" d="m40.29,0v307.13H0V25.16C0,11.27,11.27,0,25.16,0h15.13Z"/>
      <g>
        <g>
          <path class="cls-2" d="m128.11,153.11c-.19,1.02-.65,1.97-1.19,2.89-1.25,2.15-2.15,4.45-2.88,6.8-.69,2.23-.41,4.32,1.02,6.3,2.03,2.8,1.72,4.05-1.22,5.83-1.59.96-3.21,1.9-5.05,2.36-2.45.61-4.55.21-6.21-1.91-1.09-1.38-2.38-2.6-3.56-3.9-.91-.99-1.56-.8-2.19.33-.76,1.38-1.3,2.84-1.84,4.3-1.82,4.85-4.67,6.62-9.63,5.21-4.08-1.16-7.79-.84-11.58.83-2.96,1.31-5.93.68-8.79-.55-1.3-.56-2.05-1.67-2.42-2.95-1.42-4.94-3.07-9.8-4.54-14.72-1.02-3.4-.21-5.35,2.87-7.13,5.06-2.93,10.6-4.36,16.44-4.51,2.31-.06,4.3.99,5.97,2.55.7.65,1.32,1.39,1.97,2.08,1.64,1.75,2.64,1.96,4.8.82,2.45-1.29,4.19-3.44,6.13-5.33,2.09-2.04,4.24-4.01,6.48-5.9,2.33-1.98,5.09-2.76,8.04-3.14,5.3-.68,8.67,5.87,7.39,9.76Z"/>
          <path class="cls-2" d="m79.18,123.38c1.9.36,3.41,1.42,4.84,2.66,2.54,2.21,5.04,2.14,7.56-.1,2.19-1.94,3.71-4.51,6.03-6.34,2.63-2.06,5.4-3.61,8.88-3.7,5.97-.16,9.67,5.14,7.24,10.58-.97,2.16-2.2,4.19-3.23,6.32-1.09,2.27-.92,2.92.86,4.64.4.38.81.76,1.14,1.2.68.92.74,1.9-.06,2.76-1.38,1.48-2.9,2.82-4.79,3.61-3.19,1.33-6.12.8-8.68-1.53-.97-.88-1.89-1.81-2.82-2.74-.72-.72-1.2-.74-1.63.32-.85,2.09-1.4,4.3-2.55,6.28-1.57,2.69-3.88,4.07-6.91,3.53-4.63-.82-9.25-1.26-13.95-1.31-3.53-.04-6.1-1.92-7.69-5.02-2.15-4.18-3.67-8.61-4.94-13.13-.72-2.56-.02-3.94,2.44-4.91,5.04-1.98,10.22-3.43,15.7-3.41.4,0,.81,0,1.21.06.45.05.89.16,1.34.24Z"/>
          <path class="cls-2" d="m74.64,94.42c1.52.44,2.82,1.29,3.98,2.36.85.78,1.67,1.61,2.5,2.42,2.5,2.44,5.47,2.31,7.68-.44,3.07-3.82,7.27-5.65,11.83-6.77,2.25-.55,4.47-.18,5.96,1.91,1.52,2.14,1.56,4.39.29,6.68-.72,1.29-1.71,2.37-2.66,3.47-1.73,2-1.91,4.08-.71,6.42,1.18,2.29.87,3.66-1.04,5.37-2.15,1.93-4.64,2.77-7.53,2.26-1.14-.2-2.04-.68-2.68-1.74-.7-1.16-1.56-2.23-2.42-3.27-1.37-1.65-2.06-1.53-2.93.47-.38.88-.69,1.79-1.03,2.68-1.24,3.31-3.07,4.46-6.44,3.47-2.76-.81-5.47-1.02-8.32-.87-3.82.19-6.49-1.59-7.83-5.19-1.47-3.97-2.71-8.02-3.34-12.23-.47-3.12.29-4.28,3.16-5.5,3.72-1.57,7.54-2.13,11.55-1.49Z"/>
          <path class="cls-2" d="m83.57,232.13c.16-3.73.02-8.32.83-12.86.46-2.6,1.93-4.14,4.45-4.73,2.49-.59,4.94-1.43,7.57-1.19,3.69.34,6.48,1.79,8,5.43,1.77,4.24,2.92,4.46,6.5,1.51,1.28-1.05,2.42-2.28,3.66-3.39,2.36-2.13,5.08-3.46,8.32-3.42,2.17.03,4.13.63,5.2,2.73,1.14,2.23,1.03,4.48-.24,6.64-.64,1.1-1.63,1.91-2.64,2.68-.76.58-1.53,1.16-2.25,1.78-2.29,1.97-2.6,3.84-1.09,6.4,1.58,2.68,1.31,4.16-1.13,6.1-.83.66-1.7,1.27-2.69,1.66-2.76,1.1-4.68.32-5.88-2.41-.63-1.43-1.12-2.92-1.78-4.33-.84-1.82-1.38-1.87-2.55-.19-.98,1.4-1.84,2.89-2.66,4.39-1.33,2.41-3.48,3.38-5.94,2.22-3.65-1.72-7.4-2.81-11.42-3.22-2.89-.3-4.05-1.87-4.25-5.8Z"/>
          <path class="cls-2" d="m75.6,67.84c2.6.33,4.63,2.1,5.74,5.18,1.04,2.88,2.16,3.25,4.98,1.91,2.23-1.06,4.31-2.42,6.66-3.22,2.11-.71,4.23-.98,6.36-.14,4.33,1.71,5.78,6.71,3.1,10.53-1.23,1.75-2.91,2.92-4.78,3.85-1.29.64-1.85,1.63-1.81,3.03.09,2.75-1.84,4.45-4.6,4.09-3.06-.39-4.8-2.28-5.85-5.03-.77-2.01-.8-1.99-2.45-.58-1.42,1.21-2.77,2.5-4.44,3.39-1.4.75-2.79.92-4.14,0-2.81-1.92-6.06-2.69-9.26-3.58-1.72-.48-2.95-1.33-3.2-3.17-.59-4.4-1.14-8.79.65-13.11,1.22-2.94,2.68-4.08,5.84-3.98,2.22.07,4.43.25,7.22.84Z"/>
          <path class="cls-2" d="m117.9,248.46c.08,2.43-1.19,4.81-3.18,6.88-.28.29-.59.57-.93.77-2.28,1.3-3.28,3.13-3.03,5.85.19,2.14-.66,2.98-2.57,3.48-1.75.46-2.8,0-3.87-1.79-.89-1.52-1.68-3.1-2.54-4.63-.82-1.46-1.55-1.54-2.66-.32-.79.87-1.26,1.93-1.74,2.99-1.4,3.08-3.64,3.72-6.26,1.65-2.1-1.66-4.19-3.25-6.67-4.36-1.74-.78-2.53-2.42-2.58-4.31-.08-2.93.27-5.83.93-8.69.8-3.49,3.07-5.25,6.68-5.37,1.92-.06,3.83-.04,5.69.5,2.33.68,3.65,2.22,3.82,4.68.05.75.12,1.51.25,2.25.22,1.31.86,1.67,2.15,1.16,1.24-.49,2.2-1.41,3.17-2.28,1.78-1.6,3.69-2.96,6.09-3.48,3.42-.75,6.79,1.33,7.26,5.01Z"/>
          <path class="cls-2" d="m77.85,45.76c2.75.81,5.36,2.56,6.65,5.82.58,1.48,1.7,1.88,3.11,1.87,1.54,0,2.97-.54,4.41-.98,1.51-.45,3.03-.71,4.62-.6,2.73.2,4.81,1.73,5.3,3.96.5,2.25-.65,4.61-2.97,5.93-1.14.65-2.33,1.2-3.5,1.78-1.16.56-1.89,1.41-2.2,2.7-.42,1.72-.84,3.6-3.03,3.86-2.29.27-3.93-.9-5.16-2.76-.68-1.04-.97-2.21-1.26-3.38-.24-.97-.67-.97-1.37-.47-.94.68-1.86,1.39-2.84,1.99-1.25.76-2.5.6-3.68-.24-2.31-1.62-4.62-3.22-6.94-4.82-.84-.58-1.54-1.3-2.16-2.09-.83-1.06-.95-2.24-.29-3.4,1.21-2.1,2.07-4.36,3.07-6.55.81-1.78,2.18-3.14,4.45-3.03,1.11.06,2.22.03,3.8.41Z"/>
          <path class="cls-2" d="m94.98,281.31c-.04-.84-.33-1.93-.86-3-.54-1.09-1.16-1.35-2.06-.44-.74.75-1.47,1.52-2.18,2.3-1.14,1.25-2.16,1.35-3.37.2-1.35-1.28-2.6-2.63-4.25-3.58-1.33-.76-1.54-2.15-.97-3.46,1-2.33,1.63-4.74,2.15-7.21.42-2.04,1.53-2.55,3.6-2.13,3.44.69,5.77,2.41,6.31,6.13.26,1.79.63,1.87,2.35,1.22,1.51-.57,2.83-1.53,4.42-1.94,2.21-.57,3.97-.05,4.76,1.51.81,1.61.27,3.56-1.4,4.96-.35.29-.7.59-1.1.8-2.19,1.15-3.75,2.65-3.6,5.4.05.87-.46,1.63-1.37,1.99-1.53.6-2.22-.08-2.43-2.73Z"/>
          <path class="cls-2" d="m94.76,36.39c-.28.81-.57,1.61-.85,2.42-.37,1.09.1,1.41,1.11,1.16.88-.21,1.75-.49,2.63-.69,1.2-.28,2.38-.27,3.54.29,2.55,1.22,2.89,4.52.59,6.17-.52.38-1.14.76-1.76.83-2.58.31-4.53,1.32-5.48,3.95-.33.91-1.35,1.28-2.3.74-1.03-.58-.39-1.35-.1-2.09.44-1.13.8-2.28.7-3.53-.16-2.1-.73-2.51-2.69-1.9-.58.18-1.15.38-1.73.54-1.45.41-2.61-.05-3.37-1.32-1.16-1.96-1.95-4.09-2.62-6.25-.32-1.03-.03-1.99.64-2.83,1.16-1.46,2.41-2.86,3.81-4.08,1.78-1.56,3.5-1.55,5.3-.02,2.02,1.73,3.46,3.71,2.58,6.6Z"/>
          <path class="cls-2" d="m102.16,31.29c.15-.62.26-1.01.33-1.41.2-1.18-.42-1.56-1.48-1.47-.1,0-.2.04-.3.06q-3.33.72-4.92-2.25c-.33-.62-.72-1.22-1.02-1.85-1.08-2.29-.62-3.79,1.56-5.1.73-.44,1.5-.82,2.27-1.21,2.16-1.09,3.58-.91,5.24.64,1.49,1.4,1.75,2.78.91,4.93-.55,1.42-.42,1.61,1.05,1.47.45-.04.91-.12,1.35-.09,1.8.1,3.16,1.28,3.24,2.79.09,1.53-1.24,3.27-2.94,3.27-2.11,0-3.14.9-3.6,2.84-.15.61-.62,1.11-1.35.91-.68-.18-.69-.78-.61-1.36.12-.8.02-1.62.28-2.16Z"/>
          <path class="cls-2" d="m82.67,290.89c.14-1.97.39-3.97,1.14-5.85.36-.9,1.19-1.16,2.15-.93,1.76.43,2.96,1.42,3.43,3.23.13.49.29.96.46,1.43.27.74.76.88,1.42.46.09-.05.18-.1.26-.15,1.01-.64,2.06-1.29,3.06-.04.72.9.34,1.95-1.08,2.96-.72.51-.89,1.16-.83,1.96.06.65.19,1.3-.05,1.94-.27.7-.69,1.24-1.51,1.27-.86.03-1.27-.51-1.45-1.26-.19-.78-.32-1.57-.49-2.36-.18-.84-.59-1.03-1.22-.36-.71.75-1.45,1.6-2.57,1.02-1.32-.68-2.31-1.74-2.7-3.33Z"/>
          <path class="cls-2" d="m108.42,13.25c.82-1.74,1.82-3.16,3.49-3.98.82-.4,1.57-.21,2.19.46.6.66,1.11,1.44.9,2.31-.45,1.86-.35,3.07,2.04,3.3,1.09.11,1.35,1.3.7,2.29-.32.49-.81.9-1.28,1.27-.95.75-1.96,1.4-2.5,2.57-.25.55-.77.82-1.39.56-.57-.24-.62-.74-.52-1.27.02-.1.05-.2.06-.3.45-2.71.47-2.74-1.9-4.03-1.33-.73-1.64-1.92-1.79-3.18Z"/>
          <path class="cls-2" d="m82.45,303.81c.19-1.03.3-2.41.72-3.68.34-1.04,1.26-1.23,2.21-.62.63.4.91,1.06,1.16,1.72.28.75.75,1.04,1.52.7.69-.3,1.39-.39,1.92.27.59.72.26,1.45-.15,2.1-.65,1.03-1.27,2.03-1.22,3.33.02.59-.36,1.07-1.04,1.07-.7,0-.91-.52-1.01-1.1-.07-.4-.12-.8-.24-1.18-.27-.81-.71-1.29-1.69-.91-1.27.49-1.88-.2-2.19-1.7Z"/>
          <path class="cls-2" d="m118.97,7.56c.23-1.1,1.92-2.35,3.02-2.28,1.31.09,1.63,1,1.61,2.12-.01.65.34.99.86,1.28,1.17.66,1.16,1.52.36,2.48-.13.15-.25.32-.41.44-.72.59-1.31,1.65-2.38,1.3-1.1-.37-.97-1.53-.97-2.47,0-.66-.19-1.01-.87-1.17-.92-.22-1.29-.88-1.21-1.71Z"/>
        </g>
        <path class="cls-2" d="m119.08,76.16s3.73,6.35,1.58,14.1l-12.48-3.94c-.57-.18-.71-.93-.24-1.3l11.14-8.85Z"/>
        <path class="cls-2" d="m26.92,143.49c-6.48,13.47-11.47,26.93-6,38.71,13,27.94,58.72,34.21,102.13,14.02,43.4-20.2,68.05-59.22,55.05-87.15-9.3-19.99-35.36-28.89-65.33-24.93.12.26.23.52.35.79,24.41-2.01,45.18,5.92,52.89,22.49,11.46,24.63-10.27,59.03-48.53,76.83-38.26,17.8-78.57,12.27-90.03-12.36-4.02-8.64-3.95-18.48-.52-28.39"/>
      </g>
    </g>
  </g>
</svg>