<?xml version="1.0" encoding="UTF-8"?>
<svg id="Capa_2" data-name="Capa 2" xmlns="http://www.w3.org/2000/svg" viewBox="0 0 194.74 362.52">
  <defs>
    <style>
      .cls-1 {
        fill: #4d4d4d;
      }

      .cls-1, .cls-2 {
        stroke-width: 0px;
      }

      .cls-2 {
        fill: #a7a7a7;
      }
    </style>
  </defs>
  <g id="Capa_1-2" data-name="Capa 1">
    <g>
      <g>
        <path class="cls-1" d="m130.86,176.62c-.23,1.22-.78,2.35-1.42,3.45-1.49,2.56-2.57,5.31-3.44,8.13-.82,2.67-.49,5.16,1.22,7.52,2.42,3.34,2.05,4.84-1.46,6.96-1.9,1.15-3.84,2.27-6.03,2.82-2.93.73-5.44.25-7.42-2.28-1.3-1.65-2.84-3.11-4.26-4.66-1.08-1.19-1.87-.95-2.61.39-.91,1.64-1.55,3.39-2.2,5.14-2.17,5.79-5.58,7.91-11.51,6.22-4.87-1.38-9.3-1.01-13.84,1-3.54,1.57-7.09.81-10.5-.66-1.55-.67-2.45-1.99-2.89-3.52-1.69-5.9-3.67-11.71-5.43-17.59-1.21-4.06-.25-6.39,3.42-8.52,6.04-3.5,12.67-5.21,19.64-5.39,2.76-.07,5.13,1.18,7.14,3.05.83.78,1.58,1.66,2.36,2.49,1.96,2.09,3.15,2.34,5.74.98,2.93-1.54,5.01-4.11,7.33-6.37,2.5-2.44,5.07-4.79,7.74-7.05,2.79-2.36,6.08-3.3,9.6-3.76,6.33-.82,10.36,7.02,8.83,11.67Z"/>
        <path class="cls-1" d="m72.4,141.1c2.27.43,4.08,1.69,5.79,3.17,3.04,2.64,6.02,2.56,9.04-.12,2.62-2.32,4.43-5.39,7.21-7.57,3.14-2.47,6.46-4.31,10.61-4.43,7.13-.19,11.56,6.14,8.65,12.64-1.15,2.57-2.63,5-3.85,7.55-1.3,2.71-1.1,3.49,1.03,5.54.48.46.97.91,1.36,1.44.81,1.09.88,2.27-.07,3.3-1.64,1.77-3.47,3.37-5.72,4.31-3.82,1.59-7.31.96-10.37-1.83-1.16-1.05-2.26-2.17-3.36-3.27-.86-.86-1.44-.88-1.95.38-1.02,2.5-1.67,5.14-3.05,7.51-1.88,3.22-4.64,4.86-8.26,4.22-5.53-.98-11.05-1.51-16.66-1.56-4.22-.04-7.29-2.29-9.19-6-2.57-4.99-4.39-10.29-5.9-15.68-.86-3.06-.02-4.71,2.92-5.86,6.02-2.37,12.21-4.1,18.76-4.08.48,0,.96.01,1.44.07.54.06,1.07.19,1.6.28Z"/>
        <path class="cls-1" d="m66.98,106.51c1.82.53,3.37,1.54,4.76,2.82,1.02.94,1.99,1.92,2.98,2.89,2.98,2.91,6.53,2.76,9.18-.53,3.67-4.56,8.69-6.75,14.13-8.09,2.68-.66,5.35-.21,7.12,2.28,1.81,2.55,1.87,5.24.34,7.99-.86,1.55-2.04,2.83-3.18,4.15-2.07,2.39-2.29,4.87-.85,7.67,1.4,2.74,1.04,4.37-1.24,6.41-2.57,2.3-5.55,3.32-9,2.7-1.36-.24-2.43-.81-3.2-2.08-.84-1.38-1.86-2.66-2.9-3.91-1.64-1.98-2.46-1.83-3.51.56-.46,1.05-.83,2.13-1.23,3.2-1.49,3.96-3.67,5.32-7.69,4.14-3.3-.97-6.54-1.22-9.94-1.04-4.57.23-7.76-1.9-9.35-6.2-1.76-4.74-3.24-9.59-3.99-14.61-.56-3.73.34-5.11,3.78-6.57,4.44-1.88,9.01-2.54,13.8-1.78Z"/>
        <path class="cls-1" d="m77.65,271.03c.19-4.46.03-9.94.99-15.37.55-3.1,2.3-4.94,5.31-5.65,2.98-.7,5.9-1.7,9.05-1.42,4.4.4,7.74,2.14,9.56,6.49,2.12,5.07,3.49,5.33,7.76,1.81,1.53-1.26,2.89-2.72,4.37-4.05,2.82-2.55,6.07-4.13,9.94-4.09,2.59.03,4.93.76,6.21,3.26,1.36,2.67,1.23,5.36-.28,7.93-.77,1.31-1.94,2.28-3.15,3.2-.91.69-1.83,1.38-2.69,2.12-2.74,2.35-3.1,4.58-1.3,7.64,1.89,3.2,1.57,4.97-1.35,7.29-.99.79-2.03,1.52-3.22,1.99-3.3,1.31-5.59.39-7.03-2.88-.75-1.71-1.34-3.49-2.13-5.18-1.01-2.17-1.65-2.24-3.05-.23-1.17,1.67-2.2,3.45-3.18,5.24-1.58,2.88-4.16,4.04-7.1,2.65-4.36-2.05-8.84-3.35-13.64-3.85-3.45-.35-4.84-2.24-5.08-6.93Z"/>
        <path class="cls-1" d="m68.13,74.75c3.11.39,5.54,2.51,6.86,6.19,1.24,3.44,2.59,3.88,5.94,2.28,2.66-1.27,5.14-2.9,7.96-3.85,2.52-.85,5.05-1.17,7.59-.17,5.17,2.04,6.91,8.02,3.7,12.58-1.47,2.09-3.48,3.49-5.71,4.6-1.54.76-2.21,1.94-2.16,3.62.1,3.29-2.19,5.31-5.5,4.89-3.65-.47-5.73-2.73-6.99-6.01-.92-2.4-.96-2.37-2.93-.69-1.69,1.44-3.31,2.98-5.3,4.05-1.67.89-3.33,1.1-4.95,0-3.36-2.29-7.24-3.21-11.06-4.27-2.05-.57-3.53-1.59-3.82-3.79-.7-5.26-1.37-10.5.77-15.66,1.46-3.52,3.2-4.87,6.97-4.76,2.65.08,5.29.3,8.62,1Z"/>
        <path class="cls-1" d="m118.66,290.55c.1,2.91-1.43,5.75-3.8,8.22-.33.35-.7.68-1.11.92-2.72,1.56-3.92,3.74-3.63,6.99.23,2.56-.79,3.57-3.07,4.16-2.09.54-3.35,0-4.62-2.14-1.07-1.81-2-3.7-3.03-5.54-.98-1.74-1.85-1.84-3.18-.38-.95,1.04-1.5,2.31-2.08,3.57-1.67,3.68-4.35,4.44-7.48,1.97-2.51-1.98-5.01-3.89-7.97-5.21-2.08-.93-3.03-2.89-3.09-5.15-.09-3.5.32-6.97,1.11-10.38.96-4.17,3.67-6.27,7.98-6.41,2.3-.07,4.57-.05,6.79.6,2.79.81,4.36,2.65,4.56,5.59.06.9.15,1.8.29,2.69.26,1.57,1.03,2,2.57,1.39,1.48-.58,2.63-1.68,3.79-2.72,2.13-1.91,4.41-3.53,7.27-4.16,4.09-.9,8.11,1.59,8.68,5.99Z"/>
        <path class="cls-1" d="m70.81,48.37c3.29.97,6.4,3.05,7.94,6.95.7,1.77,2.03,2.25,3.71,2.24,1.84,0,3.54-.65,5.27-1.17,1.8-.54,3.62-.85,5.52-.71,3.26.23,5.74,2.07,6.33,4.73.59,2.69-.78,5.5-3.55,7.08-1.36.77-2.78,1.44-4.19,2.12-1.38.67-2.26,1.69-2.63,3.23-.5,2.06-1,4.3-3.62,4.62-2.74.33-4.7-1.07-6.17-3.3-.82-1.24-1.16-2.64-1.5-4.04-.29-1.16-.8-1.16-1.63-.56-1.12.81-2.22,1.66-3.4,2.37-1.49.91-2.98.71-4.4-.28-2.76-1.93-5.52-3.85-8.29-5.76-1-.69-1.84-1.55-2.59-2.5-.99-1.26-1.14-2.67-.35-4.06,1.44-2.51,2.48-5.2,3.67-7.83.97-2.13,2.6-3.75,5.31-3.62,1.32.07,2.65.03,4.54.49Z"/>
        <path class="cls-1" d="m91.28,329.79c-.05-1-.4-2.31-1.03-3.58-.65-1.3-1.38-1.61-2.46-.53-.89.89-1.76,1.81-2.6,2.75-1.36,1.49-2.58,1.61-4.03.24-1.61-1.53-3.1-3.15-5.08-4.28-1.58-.91-1.84-2.57-1.16-4.14,1.2-2.78,1.95-5.66,2.57-8.62.51-2.43,1.82-3.04,4.3-2.55,4.11.82,6.89,2.88,7.54,7.33.31,2.14.76,2.23,2.81,1.45,1.8-.68,3.39-1.83,5.28-2.32,2.64-.69,4.75-.05,5.68,1.8.97,1.93.32,4.26-1.68,5.93-.41.35-.84.71-1.31.96-2.61,1.37-4.48,3.16-4.3,6.45.06,1.05-.54,1.95-1.64,2.37-1.83.71-2.65-.09-2.9-3.26Z"/>
        <path class="cls-1" d="m91.02,37.17c-.34.96-.68,1.93-1.01,2.89-.44,1.3.12,1.68,1.32,1.39,1.05-.25,2.09-.58,3.14-.82,1.44-.33,2.85-.32,4.23.35,3.04,1.46,3.46,5.4.71,7.38-.62.45-1.37.91-2.1.99-3.08.37-5.41,1.57-6.55,4.71-.39,1.09-1.61,1.53-2.75.89-1.23-.69-.46-1.62-.12-2.5.52-1.35.95-2.72.84-4.21-.2-2.5-.87-3-3.22-2.27-.69.21-1.37.45-2.07.65-1.73.49-3.12-.06-4.02-1.58-1.38-2.34-2.33-4.88-3.12-7.47-.38-1.24-.04-2.38.76-3.39,1.39-1.74,2.88-3.41,4.55-4.88,2.13-1.86,4.18-1.85,6.33-.02,2.42,2.06,4.13,4.44,3.09,7.88Z"/>
        <path class="cls-1" d="m99.86,31.07c.18-.74.31-1.21.39-1.68.24-1.4-.5-1.86-1.77-1.76-.12,0-.24.05-.35.07q-3.97.86-5.88-2.69c-.4-.74-.86-1.45-1.22-2.21-1.29-2.74-.74-4.53,1.87-6.1.88-.53,1.8-.98,2.71-1.45,2.58-1.3,4.27-1.09,6.26.76,1.79,1.67,2.09,3.32,1.08,5.9-.66,1.7-.5,1.92,1.25,1.76.54-.05,1.08-.14,1.62-.11,2.16.12,3.77,1.53,3.87,3.34.1,1.83-1.48,3.91-3.52,3.91-2.52,0-3.76,1.08-4.3,3.39-.17.73-.74,1.32-1.61,1.09-.81-.22-.83-.93-.72-1.63.14-.95.03-1.94.33-2.58Z"/>
        <path class="cls-1" d="m76.58,341.24c.17-2.35.47-4.74,1.36-6.99.43-1.07,1.42-1.39,2.57-1.11,2.1.51,3.54,1.7,4.1,3.85.15.58.34,1.15.55,1.71.32.89.91,1.05,1.7.55.1-.06.21-.12.31-.18,1.21-.77,2.46-1.54,3.65-.05.86,1.08.41,2.33-1.3,3.54-.86.61-1.07,1.39-.99,2.34.07.78.23,1.56-.06,2.32-.32.84-.82,1.49-1.8,1.52-1.03.04-1.52-.61-1.73-1.51-.22-.93-.39-1.88-.59-2.82-.22-1.01-.71-1.23-1.46-.44-.85.89-1.74,1.91-3.08,1.22-1.58-.81-2.77-2.08-3.23-3.98Z"/>
        <path class="cls-1" d="m107.34,9.52c.98-2.08,2.18-3.78,4.17-4.75.98-.48,1.88-.25,2.62.55.72.78,1.33,1.72,1.08,2.76-.54,2.22-.42,3.67,2.43,3.94,1.31.13,1.61,1.55.83,2.74-.38.59-.97,1.07-1.53,1.51-1.13.89-2.34,1.68-2.98,3.07-.3.65-.92.98-1.66.67-.68-.28-.74-.88-.62-1.52.02-.12.06-.23.08-.35.54-3.24.56-3.27-2.27-4.82-1.59-.87-1.95-2.29-2.14-3.8Z"/>
        <path class="cls-1" d="m76.31,356.67c.23-1.24.36-2.88.85-4.4.41-1.25,1.5-1.47,2.65-.74.75.48,1.09,1.26,1.39,2.06.34.9.89,1.24,1.82.83.83-.36,1.66-.46,2.3.33.7.86.31,1.73-.18,2.5-.78,1.23-1.52,2.42-1.46,3.98.03.71-.43,1.28-1.24,1.28-.83,0-1.08-.62-1.21-1.32-.08-.47-.14-.96-.29-1.41-.33-.97-.84-1.54-2.02-1.09-1.52.58-2.24-.24-2.61-2.03Z"/>
        <path class="cls-1" d="m119.94,2.72c.28-1.31,2.3-2.81,3.61-2.72,1.57.11,1.95,1.2,1.92,2.53-.02.78.4,1.18,1.03,1.54,1.4.79,1.39,1.82.43,2.97-.15.18-.3.38-.49.53-.86.7-1.57,1.97-2.85,1.55-1.32-.44-1.16-1.82-1.16-2.95,0-.79-.23-1.2-1.04-1.39-1.09-.26-1.54-1.05-1.45-2.05Z"/>
      </g>
      <path class="cls-1" d="m120.07,84.68s4.46,7.59,1.89,16.84l-14.91-4.71c-.68-.22-.85-1.11-.29-1.56l13.31-10.58Z"/>
      <path class="cls-2" d="m9.97,165.13c-7.75,16.1-13.71,32.18-7.16,46.25,15.53,33.38,70.16,40.88,122.02,16.75,51.86-24.13,81.31-70.75,65.78-104.13-11.11-23.88-42.25-34.51-78.06-29.79.14.31.28.63.42.94,29.17-2.4,53.98,7.07,63.19,26.87,13.69,29.43-12.27,70.52-57.99,91.8-45.72,21.27-93.88,14.66-107.57-14.76-4.8-10.32-4.72-22.08-.63-33.92"/>
    </g>
  </g>
</svg>