<?xml version="1.0" encoding="UTF-8"?>
<svg id="Capa_2" data-name="Capa 2" xmlns="http://www.w3.org/2000/svg" viewBox="0 0 124.69 212">
  <defs>
    <style>
      .cls-1 {
        fill: #769793;
      }

      .cls-1, .cls-2, .cls-3 {
        stroke-width: 0px;
      }

      .cls-2 {
        fill: #9e9e9e;
      }

      .cls-3 {
        fill: #253a37;
      }
    </style>
  </defs>
  <g id="Capa_1-2" data-name="Capa 1">
    <g>
      <path class="cls-1" d="m27.67,0v210.91H0V17.28C0,7.74,7.74,0,17.28,0h10.39Z"/>
      <g>
        <g>
          <path class="cls-2" d="m87.97,105.15c-.13.7-.45,1.35-.82,1.98-.86,1.47-1.48,3.05-1.98,4.67-.47,1.53-.28,2.97.7,4.32,1.39,1.92,1.18,2.78-.84,4-1.09.66-2.21,1.31-3.47,1.62-1.68.42-3.12.14-4.27-1.31-.75-.95-1.63-1.79-2.45-2.68-.62-.68-1.07-.55-1.5.23-.52.94-.89,1.95-1.27,2.95-1.25,3.33-3.21,4.54-6.62,3.58-2.8-.79-5.35-.58-7.95.57-2.04.9-4.07.47-6.04-.38-.89-.38-1.41-1.15-1.66-2.03-.97-3.39-2.11-6.73-3.12-10.11-.7-2.33-.15-3.67,1.97-4.9,3.47-2.01,7.28-3,11.29-3.1,1.59-.04,2.95.68,4.1,1.75.48.45.91.95,1.36,1.43,1.13,1.2,1.81,1.35,3.3.56,1.68-.89,2.88-2.36,4.21-3.66,1.44-1.4,2.91-2.76,4.45-4.05,1.6-1.36,3.5-1.9,5.52-2.16,3.64-.47,5.96,4.03,5.08,6.71Z"/>
          <path class="cls-2" d="m54.37,84.73c1.31.25,2.34.97,3.33,1.82,1.75,1.51,3.46,1.47,5.19-.07,1.5-1.33,2.55-3.1,4.14-4.35,1.81-1.42,3.71-2.48,6.1-2.54,4.1-.11,6.64,3.53,4.97,7.26-.66,1.48-1.51,2.88-2.22,4.34-.75,1.56-.63,2.01.59,3.19.27.26.56.52.78.83.47.63.51,1.31-.04,1.89-.94,1.02-1.99,1.94-3.29,2.48-2.19.91-4.2.55-5.96-1.05-.66-.61-1.3-1.24-1.93-1.88-.49-.5-.82-.51-1.12.22-.58,1.44-.96,2.95-1.75,4.32-1.08,1.85-2.67,2.79-4.75,2.42-3.18-.56-6.35-.87-9.58-.9-2.42-.03-4.19-1.32-5.28-3.45-1.48-2.87-2.52-5.92-3.39-9.02-.49-1.76-.01-2.7,1.68-3.37,3.46-1.36,7.02-2.36,10.78-2.34.28,0,.55,0,.83.04.31.04.61.11.92.16Z"/>
          <path class="cls-2" d="m51.26,64.84c1.04.3,1.94.89,2.73,1.62.59.54,1.15,1.11,1.72,1.66,1.71,1.67,3.76,1.59,5.28-.3,2.11-2.62,4.99-3.88,8.12-4.65,1.54-.38,3.07-.12,4.09,1.31,1.04,1.47,1.07,3.01.2,4.59-.49.89-1.17,1.63-1.83,2.39-1.19,1.37-1.31,2.8-.49,4.41.81,1.57.6,2.51-.72,3.69-1.48,1.32-3.19,1.91-5.17,1.55-.78-.14-1.4-.47-1.84-1.2-.48-.79-1.07-1.53-1.67-2.25-.94-1.14-1.42-1.05-2.02.32-.26.6-.47,1.23-.71,1.84-.85,2.27-2.11,3.06-4.42,2.38-1.9-.56-3.76-.7-5.71-.6-2.63.13-4.46-1.09-5.38-3.56-1.01-2.72-1.86-5.51-2.29-8.4-.32-2.14.2-2.94,2.17-3.77,2.55-1.08,5.18-1.46,7.93-1.03Z"/>
          <path class="cls-2" d="m57.39,159.41c.11-2.56.02-5.71.57-8.83.32-1.78,1.32-2.84,3.05-3.25,1.71-.4,3.39-.98,5.2-.81,2.53.23,4.45,1.23,5.5,3.73,1.22,2.91,2.01,3.06,4.46,1.04.88-.72,1.66-1.56,2.51-2.33,1.62-1.47,3.49-2.37,5.71-2.35,1.49.02,2.83.43,3.57,1.88.78,1.53.7,3.08-.16,4.56-.44.76-1.12,1.31-1.81,1.84-.52.4-1.05.79-1.55,1.22-1.57,1.35-1.78,2.63-.75,4.39,1.09,1.84.9,2.86-.78,4.19-.57.45-1.17.87-1.85,1.14-1.9.76-3.21.22-4.04-1.65-.43-.98-.77-2-1.22-2.97-.58-1.25-.95-1.28-1.75-.13-.67.96-1.26,1.98-1.83,3.01-.91,1.65-2.39,2.32-4.08,1.53-2.5-1.18-5.08-1.93-7.84-2.21-1.99-.2-2.78-1.29-2.92-3.99Z"/>
          <path class="cls-2" d="m51.92,46.59c1.79.23,3.18,1.44,3.94,3.56.71,1.98,1.49,2.23,3.42,1.31,1.53-.73,2.96-1.67,4.57-2.21,1.45-.49,2.9-.67,4.37-.1,2.97,1.17,3.97,4.61,2.13,7.23-.84,1.2-2,2.01-3.28,2.64-.88.44-1.27,1.12-1.24,2.08.06,1.89-1.26,3.05-3.16,2.81-2.1-.27-3.3-1.57-4.02-3.45-.53-1.38-.55-1.36-1.69-.4-.97.83-1.9,1.71-3.05,2.33-.96.51-1.91.63-2.85,0-1.93-1.32-4.16-1.85-6.36-2.46-1.18-.33-2.03-.91-2.2-2.18-.4-3.02-.78-6.04.45-9,.84-2.02,1.84-2.8,4.01-2.73,1.52.05,3.04.17,4.96.57Z"/>
          <path class="cls-2" d="m80.96,170.63c.05,1.67-.82,3.3-2.18,4.73-.19.2-.4.39-.64.53-1.56.89-2.25,2.15-2.08,4.02.13,1.47-.45,2.05-1.77,2.39-1.2.31-1.93,0-2.66-1.23-.61-1.04-1.15-2.13-1.74-3.18-.56-1-1.06-1.06-1.83-.22-.54.6-.86,1.33-1.19,2.05-.96,2.11-2.5,2.55-4.3,1.13-1.44-1.14-2.88-2.23-4.58-2.99-1.19-.53-1.74-1.66-1.77-2.96-.05-2.01.18-4.01.64-5.97.55-2.4,2.11-3.61,4.59-3.69,1.32-.04,2.63-.03,3.91.34,1.6.47,2.5,1.52,2.62,3.21.04.52.08,1.04.17,1.55.15.9.59,1.15,1.48.8.85-.34,1.51-.97,2.18-1.57,1.22-1.1,2.53-2.03,4.18-2.39,2.35-.51,4.66.92,4.99,3.44Z"/>
          <path class="cls-2" d="m53.46,31.43c1.89.56,3.68,1.75,4.56,4,.4,1.02,1.17,1.29,2.13,1.29,1.06,0,2.04-.37,3.03-.67,1.04-.31,2.08-.49,3.17-.41,1.88.13,3.3,1.19,3.64,2.72.34,1.54-.45,3.16-2.04,4.07-.78.45-1.6.83-2.41,1.22-.79.39-1.3.97-1.51,1.85-.29,1.18-.57,2.47-2.08,2.65-1.57.19-2.7-.62-3.55-1.89-.47-.71-.67-1.52-.86-2.32-.16-.67-.46-.67-.94-.32-.64.47-1.28.95-1.95,1.36-.86.52-1.71.41-2.53-.16-1.58-1.11-3.17-2.21-4.76-3.31-.58-.4-1.06-.89-1.49-1.44-.57-.73-.65-1.54-.2-2.33.83-1.45,1.42-2.99,2.11-4.5.55-1.22,1.49-2.16,3.05-2.08.76.04,1.52.02,2.61.28Z"/>
          <path class="cls-2" d="m65.22,193.18c-.03-.58-.23-1.33-.59-2.06-.37-.75-.79-.93-1.41-.31-.51.51-1.01,1.04-1.5,1.58-.78.86-1.48.93-2.31.14-.92-.88-1.78-1.81-2.92-2.46-.91-.52-1.06-1.48-.67-2.38.69-1.6,1.12-3.25,1.48-4.95.29-1.4,1.05-1.75,2.47-1.46,2.36.47,3.96,1.66,4.33,4.21.18,1.23.43,1.28,1.62.84,1.03-.39,1.95-1.05,3.03-1.33,1.52-.39,2.73-.03,3.27,1.04.56,1.11.18,2.45-.96,3.41-.24.2-.48.41-.75.55-1.5.79-2.58,1.82-2.47,3.71.03.6-.31,1.12-.94,1.36-1.05.41-1.52-.05-1.67-1.87Z"/>
          <path class="cls-2" d="m65.07,24.99c-.19.55-.39,1.11-.58,1.66-.26.75.07.97.76.8.6-.15,1.2-.33,1.81-.47.83-.19,1.64-.18,2.43.2,1.75.84,1.99,3.1.41,4.24-.36.26-.79.52-1.21.57-1.77.21-3.11.9-3.77,2.71-.23.63-.93.88-1.58.51-.71-.4-.27-.93-.07-1.44.3-.77.55-1.56.48-2.42-.11-1.44-.5-1.72-1.85-1.3-.4.12-.79.26-1.19.37-1,.28-1.79-.03-2.31-.91-.79-1.35-1.34-2.81-1.8-4.29-.22-.71-.02-1.37.44-1.95.8-1,1.65-1.96,2.62-2.8,1.22-1.07,2.4-1.06,3.64-.01,1.39,1.19,2.37,2.55,1.77,4.53Z"/>
          <path class="cls-2" d="m70.15,21.49c.1-.43.18-.69.23-.97.14-.81-.29-1.07-1.02-1.01-.07,0-.14.03-.2.04q-2.28.5-3.38-1.55c-.23-.43-.5-.83-.7-1.27-.74-1.58-.43-2.6,1.07-3.5.5-.3,1.03-.57,1.56-.83,1.48-.75,2.46-.62,3.6.44,1.03.96,1.2,1.91.62,3.39-.38.98-.29,1.11.72,1.01.31-.03.62-.08.93-.06,1.24.07,2.17.88,2.23,1.92.06,1.05-.85,2.25-2.02,2.25-1.45,0-2.16.62-2.47,1.95-.1.42-.43.76-.93.62-.46-.13-.48-.54-.42-.94.08-.55.02-1.11.19-1.48Z"/>
          <path class="cls-2" d="m56.77,199.77c.1-1.35.27-2.72.78-4.02.25-.61.82-.8,1.48-.64,1.21.29,2.04.98,2.36,2.22.09.33.2.66.32.99.19.51.52.6.97.32.06-.04.12-.07.18-.1.7-.44,1.42-.88,2.1-.03.5.62.23,1.34-.74,2.03-.49.35-.61.8-.57,1.35.04.45.13.89-.04,1.33-.18.48-.47.85-1.04.88-.59.02-.87-.35-.99-.87-.13-.54-.22-1.08-.34-1.62-.13-.58-.41-.7-.84-.25-.49.51-1,1.1-1.77.7-.91-.47-1.59-1.2-1.86-2.29Z"/>
          <path class="cls-2" d="m74.45,9.1c.56-1.19,1.25-2.17,2.4-2.73.56-.27,1.08-.15,1.5.32.41.45.76.99.62,1.59-.31,1.28-.24,2.11,1.4,2.27.75.07.92.89.48,1.57-.22.34-.55.62-.88.87-.65.51-1.35.96-1.71,1.76-.17.38-.53.56-.96.38-.39-.16-.43-.51-.36-.87.01-.07.03-.13.04-.2.31-1.86.32-1.88-1.31-2.77-.91-.5-1.12-1.32-1.23-2.18Z"/>
          <path class="cls-2" d="m56.62,208.64c.13-.71.21-1.65.49-2.53.23-.72.86-.84,1.52-.42.43.28.63.73.8,1.18.19.51.51.71,1.05.48.48-.21.95-.27,1.32.19.4.5.18.99-.1,1.44-.45.71-.87,1.39-.84,2.29.02.41-.25.73-.71.73-.48,0-.62-.35-.7-.76-.05-.27-.08-.55-.17-.81-.19-.55-.48-.89-1.16-.63-.87.34-1.29-.14-1.5-1.17Z"/>
          <path class="cls-2" d="m81.7,5.19c.16-.75,1.32-1.62,2.08-1.56.9.06,1.12.69,1.1,1.45,0,.45.23.68.59.88.8.45.8,1.05.25,1.7-.09.11-.17.22-.28.3-.49.4-.9,1.13-1.64.89-.76-.25-.67-1.05-.67-1.69,0-.45-.13-.69-.6-.8-.63-.15-.89-.6-.83-1.18Z"/>
        </g>
        <path class="cls-3" d="m122.31,74.9c-5.78-12.42-20.99-18.58-39.08-17.63-.3-2.94-1.45-4.96-1.45-4.96l-7.65,6.08c-.32.26-.23.77.17.89l8.57,2.7c.38-1.37.49-2.68.44-3.86,14.27.15,26.01,5.56,30.7,15.64,7.87,16.91-7.05,40.54-33.33,52.76-26.28,12.23-53.96,8.43-61.83-8.49-2.76-5.93-2.71-12.69-.36-19.49-4.45,9.25-7.88,18.5-4.12,26.58,8.93,19.19,40.33,23.49,70.13,9.63,29.81-13.87,46.73-40.67,37.81-59.85Z"/>
      </g>
    </g>
  </g>
</svg>