<?xml version="1.0" encoding="UTF-8"?>
<svg id="Capa_2" data-name="Capa 2" xmlns="http://www.w3.org/2000/svg" viewBox="0 0 640.11 397.75">
  <defs>
    <style>
      .cls-1 {
        fill: #769793;
      }

      .cls-1, .cls-2 {
        stroke-width: 0px;
      }

      .cls-2 {
        fill: #656666;
      }
    </style>
  </defs>
  <g id="Capa_1-2" data-name="Capa 1">
    <g>
      <g>
        <path class="cls-1" d="m279,40.66v134.11h-17.6V51.65c0-6.07,4.92-10.99,10.99-10.99h6.61Z"/>
        <path class="cls-1" d="m307.53,68.09v15.06c1.37-5.49,4.12-9.75,8.24-12.76,4.12-3.01,9.09-4.52,14.9-4.52,4.02,0,7.71.63,11.1,1.9,3.38,1.27,6.31,3.04,8.8,5.31,2.48,2.27,4.41,5.05,5.79,8.32,1.37,3.28,2.06,6.87,2.06,10.78v82.59h-17.6v-80.06c0-6.45-1.53-11.78-4.6-16.01-3.07-4.23-7.19-6.34-12.36-6.34-2.12,0-4.15.58-6.1,1.75-1.96,1.16-3.7,2.75-5.23,4.75-1.53,2.01-2.75,4.28-3.65,6.82-.9,2.53-1.35,5.23-1.35,8.08v81.01h-17.44v-101.3l17.44-5.39Z"/>
        <path class="cls-1" d="m380.93,68.09l3.65,13.79c2.11-5.07,5.1-9.01,8.96-11.81,3.86-2.8,9.22-4.2,16.09-4.2,4.97,0,9.38,1.67,13.24,4.99,3.86,3.33,7.08,7.87,9.67,13.63,2.59,5.76,4.57,12.44,5.94,20.05,1.37,7.61,2.06,15.7,2.06,24.25,0,6.24-.77,12.26-2.3,18.07-1.53,5.81-3.67,10.99-6.42,15.54-2.75,4.55-6.08,8.19-9.99,10.94-3.91,2.75-8.3,4.12-13.16,4.12-6.13,0-10.91-1.56-14.35-4.68-3.43-3.11-6.1-7.53-8-13.24v58.19h-3.91c-7.56,0-13.69-6.13-13.69-13.69V73.48l12.21-5.39Zm5.39,74.67c0,2.75.58,5.76,1.74,9.04,1.16,3.28,2.72,6.37,4.68,9.27,1.95,2.91,4.17,5.34,6.66,7.29,2.48,1.96,5.05,2.93,7.69,2.93s4.97-.9,6.98-2.69c2.01-1.8,3.67-4.33,4.99-7.61,1.32-3.27,2.3-7.18,2.93-11.73.63-4.54.95-9.56.95-15.06,0-8.14-.58-15.96-1.74-23.46-1.17-7.5-2.77-14.11-4.83-19.81-2.06-5.71-4.47-10.25-7.21-13.64-2.75-3.38-5.71-5.07-8.88-5.07-1.8,0-3.54.9-5.23,2.69-1.69,1.8-3.17,3.94-4.44,6.42-1.27,2.49-2.3,5.1-3.09,7.85-.79,2.75-1.19,5.07-1.19,6.98v46.61Z"/>
        <path class="cls-1" d="m464.78,67.46v78.95c0,3.28.4,6.29,1.19,9.04.79,2.75,1.95,5.15,3.49,7.21,1.53,2.06,3.33,3.67,5.39,4.83,2.06,1.17,4.36,1.75,6.9,1.75s4.65-.55,6.66-1.67c2.01-1.11,3.73-2.62,5.15-4.52,1.43-1.9,2.54-4.1,3.33-6.58.79-2.48,1.19-5.1,1.19-7.85v-75.62l17.6-5.55v107.32h-13.95l-3.65-13.79c-1.38,4.44-4.2,7.98-8.48,10.62-4.28,2.64-9.17,3.96-14.66,3.96-3.91,0-7.53-.63-10.86-1.9-3.33-1.27-6.24-3.09-8.72-5.47-2.49-2.38-4.44-5.21-5.87-8.48-1.43-3.27-2.14-6.97-2.14-11.1v-75.62l17.44-5.55Z"/>
        <path class="cls-1" d="m548.96,68.09h13.95v3.81h-13.95v81.17c0,2.22.45,4.47,1.35,6.74.9,2.27,2.06,4.33,3.49,6.18,1.43,1.85,3.07,3.33,4.91,4.44,1.85,1.11,3.78,1.67,5.79,1.67,2.64,0,5.55-1.27,8.72-3.81l1.59,3.81c-2.33,2.11-4.84,3.54-7.53,4.28-2.69.74-5.42,1.11-8.16,1.11-4.02,0-7.74-.66-11.18-1.98-3.44-1.32-6.37-3.17-8.8-5.55-2.43-2.38-4.33-5.2-5.71-8.48s-2.06-6.92-2.06-10.94v-78.63h-8.24v-3.81c14.9,0,23.51-8.66,25.84-26v26Z"/>
        <path class="cls-1" d="m629.97,83.62c-2.33-3.38-4.89-6.1-7.69-8.16-2.8-2.06-6-3.09-9.59-3.09-2.33,0-4.52.48-6.58,1.43-2.06.95-3.88,2.25-5.47,3.88-1.59,1.64-2.83,3.52-3.73,5.63-.9,2.12-1.35,4.34-1.35,6.66,0,4.44.82,8.27,2.46,11.49,1.64,3.23,4.25,5.84,7.85,7.85,4.01,2.33,8.06,4.55,12.13,6.66,4.07,2.12,7.74,4.49,11.02,7.14,3.27,2.64,5.94,5.73,8,9.27,2.06,3.54,3.09,7.9,3.09,13.08,0,4.02-.71,7.95-2.14,11.81-1.43,3.86-3.59,7.29-6.5,10.3-2.91,3.01-6.58,5.42-11.02,7.21-4.44,1.8-9.72,2.69-15.85,2.69-3.49,0-6.66-.5-9.51-1.51-2.85-1.01-5.39-2.38-7.61-4.12-2.22-1.74-4.23-3.78-6.02-6.1-1.8-2.32-3.44-4.86-4.91-7.61l6.18-3.96c.85,2.01,1.98,4.02,3.41,6.02,1.43,2.01,3.04,3.81,4.84,5.39,1.79,1.59,3.73,2.88,5.79,3.89,2.06,1.01,4.2,1.51,6.42,1.51,3.28,0,6.13-.53,8.56-1.59,2.43-1.05,4.44-2.48,6.02-4.28,1.59-1.8,2.75-3.81,3.49-6.02.74-2.22,1.11-4.54,1.11-6.97,0-4.44-1.09-8.11-3.25-11.02-2.17-2.91-4.89-5.49-8.16-7.77-3.28-2.27-6.84-4.41-10.7-6.42-3.86-2.01-7.43-4.36-10.7-7.05-3.28-2.69-6-5.92-8.16-9.67-2.17-3.75-3.25-8.48-3.25-14.19,0-3.91.77-7.69,2.3-11.34,1.53-3.65,3.62-6.87,6.26-9.67,2.64-2.8,5.73-5.02,9.28-6.66,3.54-1.64,7.32-2.46,11.33-2.46,6.98,0,12.58,1.03,16.8,3.09,4.23,2.06,7.87,5.58,10.94,10.54l-5.07,4.12Z"/>
      </g>
      <g>
        <path class="cls-2" d="m312.38,244.88c-2.86-4.48-5.94-8.05-9.24-10.73-3.3-2.67-6.81-4.01-10.54-4.01s-7.31.72-10.36,2.14c-3.05,1.43-5.6,3.36-7.65,5.79-2.05,2.43-3.64,5.29-4.76,8.58-1.12,3.3-1.68,6.75-1.68,10.36,0,5.72,1.18,10.89,3.54,15.49,2.36,4.6,5.41,9.02,9.14,13.25,3.73,4.23,7.96,8.37,12.69,12.41,4.73,4.04,9.45,8.3,14.18,12.78,4.73,4.6,8.12,10.08,10.17,16.42,2.05,6.34,3.08,12.57,3.08,18.66,0,12.19-3.7,21.83-11.1,28.93-7.4,7.09-17.7,10.64-30.88,10.64-7.71,0-14.46-1.93-20.25-5.79-5.79-3.86-10.11-9.52-12.97-16.98l7.47-4.67c.75,2.61,1.89,5.13,3.45,7.56,1.55,2.43,3.45,4.57,5.69,6.44,2.24,1.87,4.73,3.36,7.47,4.48,2.73,1.12,5.6,1.68,8.58,1.68s5.63-.72,8.3-2.15c2.67-1.43,5.01-3.54,7-6.34,1.99-2.8,3.57-6.25,4.76-10.36,1.18-4.1,1.77-8.77,1.77-14s-1.03-10.42-3.08-15.58c-2.05-5.16-5.51-9.98-10.36-14.46-4.73-4.23-9.27-8.33-13.62-12.32-4.35-3.98-8.27-8.05-11.76-12.22-3.48-4.17-6.25-8.68-8.3-13.53-2.05-4.85-3.08-10.26-3.08-16.24,0-5.35.81-10.36,2.43-15.02,1.62-4.67,4.07-8.71,7.37-12.13,3.29-3.42,7.43-6.13,12.41-8.12,4.97-1.99,10.82-2.99,17.54-2.99s12.44,1.56,16.79,4.67c4.35,3.11,8.33,7.28,11.94,12.5l-6.16,4.85Z"/>
        <path class="cls-2" d="m337.39,271c8.33-11.2,20.77-16.8,37.32-16.8,5.47,0,10.39.78,14.74,2.33,4.35,1.56,8.03,3.67,11.01,6.34,2.99,2.68,5.28,5.79,6.9,9.33,1.62,3.54,2.43,7.31,2.43,11.29v82.67c0,6.84,1.31,12.19,3.92,16.05h-20.34c-1.62-2.36-2.77-4.85-3.45-7.47-.68-2.61-1.03-5.41-1.03-8.4-1,2.49-2.14,4.92-3.45,7.28-1.3,2.36-3.02,4.42-5.13,6.16-2.12,1.74-4.64,3.14-7.56,4.2-2.92,1.06-6.44,1.59-10.54,1.59-6.22,0-11.42-.93-15.58-2.8-4.17-1.87-7.53-4.42-10.08-7.65-2.55-3.23-4.39-7.03-5.5-11.38-1.12-4.35-1.68-9.08-1.68-14.18,0-8.71,3.27-16.17,9.8-22.39,6.53-6.22,16.45-10.76,29.76-13.62,5.35-1.12,9.73-3.02,13.16-5.69,3.42-2.67,5.75-6.62,7-11.85v-9.52c0-2.73-.62-5.57-1.87-8.49-1.25-2.92-2.93-5.6-5.04-8.02-2.12-2.43-4.6-4.42-7.47-5.97-2.86-1.55-5.91-2.33-9.14-2.33-8.21,0-15.49,4.1-21.83,12.32l-6.34-2.99Zm51.69,34.33c-.5,3.73-1.96,6.72-4.39,8.96-2.43,2.24-5.63,4.04-9.61,5.41-16.79,5.48-25.19,14.06-25.19,25.75,0,3.98.31,8.03.93,12.13.62,4.11,1.71,7.78,3.27,11.01,1.55,3.24,3.61,5.88,6.16,7.93,2.55,2.05,5.69,3.08,9.42,3.08,4.35,0,8.08-2.27,11.2-6.81,3.11-4.54,5.6-10.11,7.46-16.7l.75-6.53v-44.23Z"/>
        <path class="cls-2" d="m442.63,221.18v161.04h-5.33c-8.49,0-15.38-6.88-15.38-15.38v-139.32l20.71-6.34Z"/>
        <path class="cls-2" d="m475.47,256.07v92.93c0,3.86.47,7.4,1.4,10.63.93,3.24,2.3,6.07,4.1,8.49,1.8,2.43,3.92,4.32,6.34,5.69,2.43,1.37,5.13,2.05,8.12,2.05s5.47-.65,7.84-1.96c2.36-1.31,4.39-3.08,6.06-5.32,1.68-2.24,2.99-4.82,3.92-7.74.93-2.92,1.4-6,1.4-9.24v-89.01l20.71-6.53v126.33h-16.42l-4.29-16.23c-1.62,5.22-4.94,9.39-9.98,12.5-5.04,3.11-10.79,4.67-17.26,4.67-4.6,0-8.86-.75-12.78-2.24s-7.34-3.64-10.26-6.44c-2.92-2.8-5.23-6.13-6.9-9.98-1.68-3.85-2.52-8.21-2.52-13.06v-89.01l20.53-6.53Z"/>
        <path class="cls-2" d="m628.3,221.18v161.22h-16.42l-4.29-14.74c-1.25,2.49-2.61,4.82-4.1,7-1.49,2.18-3.33,4.08-5.51,5.69-2.18,1.62-4.7,2.89-7.56,3.83-2.86.93-6.22,1.4-10.08,1.4-5.6,0-10.64-1.9-15.11-5.69-4.48-3.79-8.3-9.05-11.47-15.77-3.17-6.72-5.63-14.65-7.37-23.79-1.75-9.14-2.61-19-2.61-29.58,0-7.46.78-14.61,2.33-21.46,1.55-6.84,3.83-12.84,6.81-18.01,2.99-5.16,6.65-9.3,11.01-12.41,4.35-3.11,9.33-4.67,14.93-4.67,7.09,0,13,1.59,17.73,4.76,4.73,3.17,8.4,8.37,11.01,15.58v-32.8c0-8.45,5.52-15.91,13.6-18.38l7.12-2.18Zm-20.71,73.33c0-2.74-.56-6-1.68-9.8-1.12-3.79-2.68-7.43-4.67-10.92-1.99-3.48-4.36-6.4-7.09-8.77-2.74-2.36-5.72-3.54-8.96-3.54-6.97,0-12.25,3.52-15.86,10.54-3.61,7.03-5.41,17.32-5.41,30.88,0,8.83.68,17.73,2.05,26.69,1.37,8.96,3.26,17.01,5.69,24.16,2.43,7.16,5.32,13,8.68,17.54,3.36,4.54,6.97,6.81,10.82,6.81,1.87,0,3.76-.93,5.69-2.8,1.93-1.86,3.7-4.2,5.32-7,1.61-2.8,2.92-5.75,3.92-8.86,1-3.11,1.49-5.97,1.49-8.58v-56.35Z"/>
      </g>
      <g>
        <g>
          <path class="cls-2" d="m143.58,193.79c-.25,1.33-.86,2.58-1.56,3.78-1.64,2.81-2.82,5.83-3.78,8.92-.9,2.93-.54,5.66,1.34,8.26,2.66,3.66,2.25,5.31-1.6,7.64-2.09,1.26-4.21,2.49-6.61,3.09-3.21.8-5.96.27-8.15-2.51-1.42-1.81-3.11-3.41-4.67-5.12-1.19-1.3-2.05-1.05-2.87.43-1,1.8-1.7,3.72-2.42,5.64-2.38,6.36-6.12,8.67-12.63,6.83-5.34-1.52-10.21-1.11-15.18,1.09-3.89,1.72-7.77.89-11.53-.73-1.71-.73-2.69-2.19-3.17-3.87-1.86-6.47-4.03-12.85-5.95-19.3-1.33-4.46-.28-7.01,3.76-9.35,6.63-3.84,13.9-5.72,21.54-5.92,3.03-.08,5.63,1.29,7.83,3.34.92.85,1.73,1.82,2.59,2.73,2.15,2.3,3.46,2.57,6.3,1.08,3.22-1.69,5.5-4.51,8.04-6.99,2.74-2.68,5.56-5.26,8.49-7.74,3.06-2.59,6.67-3.62,10.54-4.12,6.95-.9,11.37,7.7,9.69,12.8Z"/>
          <path class="cls-2" d="m79.44,154.81c2.5.47,4.48,1.86,6.35,3.48,3.33,2.89,6.6,2.8,9.92-.13,2.87-2.55,4.86-5.91,7.91-8.31,3.45-2.71,7.09-4.73,11.64-4.86,7.83-.21,12.68,6.74,9.49,13.87-1.27,2.83-2.89,5.49-4.23,8.28-1.43,2.97-1.21,3.83,1.13,6.08.52.5,1.07,1,1.5,1.58.89,1.2.97,2.49-.08,3.62-1.8,1.95-3.8,3.7-6.28,4.73-4.19,1.74-8.02,1.05-11.38-2.01-1.27-1.16-2.48-2.38-3.69-3.59-.94-.95-1.57-.97-2.14.41-1.11,2.75-1.83,5.64-3.35,8.24-2.06,3.53-5.09,5.33-9.06,4.63-6.06-1.08-12.13-1.65-18.28-1.72-4.63-.05-8-2.52-10.09-6.58-2.82-5.48-4.82-11.29-6.48-17.21-.94-3.36-.03-5.16,3.2-6.43,6.61-2.6,13.39-4.5,20.58-4.47.53,0,1.06.01,1.58.07.59.07,1.17.21,1.75.31Z"/>
          <path class="cls-2" d="m73.49,116.86c1.99.58,3.7,1.69,5.22,3.09,1.12,1.03,2.19,2.11,3.27,3.17,3.27,3.19,7.17,3.03,10.07-.58,4.02-5,9.53-7.41,15.5-8.88,2.94-.73,5.87-.23,7.81,2.5,1.99,2.8,2.05,5.75.37,8.76-.94,1.7-2.24,3.11-3.49,4.55-2.27,2.62-2.51,5.34-.93,8.42,1.54,3,1.14,4.79-1.37,7.04-2.82,2.53-6.09,3.64-9.88,2.96-1.49-.27-2.67-.89-3.51-2.28-.92-1.52-2.04-2.92-3.18-4.29-1.8-2.17-2.7-2.01-3.85.61-.5,1.15-.91,2.34-1.35,3.51-1.63,4.34-4.03,5.84-8.44,4.54-3.62-1.07-7.17-1.33-10.91-1.15-5.01.25-8.51-2.08-10.26-6.8-1.93-5.2-3.55-10.52-4.38-16.03-.61-4.09.38-5.61,4.14-7.2,4.87-2.06,9.88-2.79,15.14-1.96Z"/>
          <path class="cls-2" d="m85.2,297.37c.21-4.89.03-10.91,1.09-16.86.6-3.4,2.53-5.42,5.83-6.2,3.27-.77,6.47-1.87,9.92-1.55,4.83.44,8.5,2.35,10.49,7.12,2.33,5.56,3.83,5.84,8.52,1.98,1.68-1.38,3.18-2.98,4.79-4.44,3.09-2.8,6.66-4.53,10.91-4.48,2.84.03,5.41.83,6.82,3.58,1.5,2.92,1.34,5.88-.31,8.7-.85,1.44-2.13,2.51-3.45,3.51-1,.76-2,1.51-2.95,2.33-3,2.58-3.41,5.03-1.42,8.39,2.07,3.51,1.72,5.45-1.48,8-1.09.86-2.23,1.66-3.53,2.18-3.62,1.44-6.14.42-7.71-3.16-.82-1.87-1.47-3.82-2.33-5.68-1.11-2.38-1.81-2.45-3.35-.26-1.28,1.84-2.41,3.79-3.49,5.75-1.74,3.16-4.57,4.43-7.79,2.91-4.78-2.25-9.7-3.68-14.97-4.22-3.79-.39-5.31-2.46-5.57-7.61Z"/>
          <path class="cls-2" d="m74.75,82.01c3.41.43,6.07,2.76,7.52,6.79,1.36,3.78,2.84,4.26,6.52,2.5,2.92-1.39,5.64-3.18,8.73-4.23,2.76-.94,5.54-1.28,8.33-.19,5.67,2.24,7.58,8.8,4.06,13.8-1.61,2.29-3.82,3.83-6.26,5.05-1.69.84-2.42,2.13-2.37,3.98.11,3.61-2.41,5.83-6.03,5.36-4.01-.51-6.29-2.99-7.67-6.59-1.01-2.63-1.05-2.6-3.22-.76-1.86,1.58-3.63,3.27-5.82,4.44-1.83.98-3.65,1.21-5.43,0-3.68-2.51-7.95-3.52-12.14-4.69-2.25-.63-3.87-1.74-4.2-4.16-.77-5.77-1.5-11.52.85-17.18,1.6-3.86,3.51-5.34,7.65-5.22,2.91.09,5.8.33,9.46,1.1Z"/>
          <path class="cls-2" d="m130.2,318.78c.1,3.19-1.57,6.31-4.17,9.02-.36.38-.77.75-1.22,1.01-2.99,1.71-4.3,4.1-3.98,7.67.25,2.81-.86,3.91-3.37,4.56-2.29.6-3.68,0-5.07-2.35-1.17-1.99-2.2-4.06-3.33-6.07-1.07-1.91-2.03-2.02-3.49-.42-1.04,1.14-1.65,2.54-2.28,3.92-1.83,4.03-4.78,4.87-8.21,2.16-2.75-2.17-5.5-4.26-8.74-5.71-2.28-1.02-3.32-3.17-3.39-5.65-.1-3.84.35-7.65,1.21-11.39,1.05-4.57,4.03-6.88,8.76-7.04,2.52-.08,5.02-.05,7.45.66,3.06.89,4.78,2.9,5.01,6.13.07.99.16,1.98.32,2.95.29,1.72,1.13,2.19,2.82,1.52,1.63-.64,2.89-1.85,4.16-2.99,2.34-2.1,4.83-3.87,7.98-4.56,4.48-.98,8.9,1.75,9.52,6.57Z"/>
          <path class="cls-2" d="m77.69,53.07c3.61,1.07,7.02,3.35,8.71,7.63.77,1.94,2.23,2.46,4.07,2.46,2.02,0,3.89-.71,5.78-1.28,1.98-.6,3.98-.93,6.05-.78,3.58.26,6.3,2.27,6.95,5.19.65,2.95-.86,6.04-3.89,7.77-1.49.85-3.05,1.58-4.59,2.33-1.52.74-2.48,1.85-2.89,3.54-.55,2.26-1.1,4.72-3.97,5.06-3,.36-5.16-1.18-6.77-3.62-.9-1.36-1.27-2.9-1.65-4.43-.31-1.28-.88-1.28-1.79-.62-1.23.89-2.43,1.82-3.73,2.61-1.64,1-3.27.78-4.83-.31-3.02-2.12-6.06-4.22-9.09-6.32-1.1-.76-2.02-1.7-2.84-2.75-1.08-1.38-1.25-2.93-.38-4.45,1.58-2.76,2.72-5.71,4.02-8.59,1.06-2.34,2.85-4.12,5.83-3.97,1.45.07,2.9.04,4.99.54Z"/>
          <path class="cls-2" d="m100.15,361.84c-.05-1.1-.44-2.53-1.13-3.93-.71-1.42-1.52-1.77-2.69-.58-.98.98-1.93,1.99-2.86,3.01-1.49,1.64-2.83,1.77-4.42.26-1.77-1.68-3.41-3.45-5.57-4.7-1.74-1-2.02-2.82-1.28-4.54,1.32-3.05,2.14-6.21,2.82-9.45.56-2.67,2-3.34,4.72-2.79,4.5.9,7.56,3.16,8.27,8.04.34,2.35.83,2.45,3.09,1.59,1.97-.75,3.72-2,5.79-2.54,2.89-.75,5.21-.06,6.24,1.98,1.07,2.12.35,4.67-1.84,6.5-.45.38-.92.78-1.44,1.05-2.87,1.5-4.92,3.47-4.72,7.07.06,1.15-.6,2.14-1.8,2.61-2.01.78-2.9-.1-3.18-3.58Z"/>
          <path class="cls-2" d="m99.87,40.78c-.37,1.06-.75,2.11-1.11,3.17-.49,1.43.13,1.84,1.45,1.52,1.15-.28,2.29-.64,3.45-.9,1.58-.36,3.12-.35,4.64.38,3.34,1.61,3.79,5.92.78,8.09-.68.49-1.5,1-2.3,1.09-3.38.41-5.94,1.72-7.19,5.17-.43,1.19-1.77,1.68-3.02.97-1.35-.76-.51-1.77-.13-2.74.57-1.48,1.05-2.98.92-4.62-.21-2.75-.95-3.29-3.53-2.49-.76.23-1.5.5-2.27.71-1.9.54-3.43-.06-4.41-1.73-1.52-2.57-2.55-5.36-3.43-8.2-.42-1.36-.04-2.61.84-3.71,1.53-1.91,3.16-3.74,4.99-5.35,2.33-2.04,4.59-2.03,6.94-.02,2.65,2.26,4.53,4.87,3.38,8.65Z"/>
          <path class="cls-2" d="m109.56,34.09c.19-.81.34-1.32.43-1.84.26-1.54-.55-2.04-1.94-1.93-.13.01-.26.05-.39.08q-4.36.95-6.45-2.95c-.44-.81-.95-1.59-1.34-2.43-1.41-3.01-.81-4.97,2.05-6.69.96-.58,1.97-1.08,2.97-1.59,2.83-1.43,4.69-1.19,6.86.84,1.96,1.83,2.29,3.64,1.19,6.47-.73,1.86-.55,2.11,1.38,1.93.59-.06,1.19-.15,1.77-.12,2.37.13,4.14,1.68,4.25,3.66.11,2.01-1.63,4.29-3.86,4.29-2.76,0-4.12,1.19-4.72,3.72-.19.81-.82,1.45-1.77,1.19-.89-.24-.91-1.03-.8-1.79.15-1.04.03-2.13.36-2.83Z"/>
          <path class="cls-2" d="m84.02,374.4c.19-2.58.51-5.2,1.49-7.67.47-1.17,1.56-1.52,2.82-1.22,2.3.56,3.88,1.87,4.5,4.23.16.64.38,1.26.6,1.88.35.98,1,1.15,1.86.61.11-.07.23-.13.34-.2,1.33-.84,2.7-1.69,4.01-.05.95,1.19.44,2.56-1.42,3.88-.94.67-1.17,1.52-1.08,2.57.07.85.25,1.71-.07,2.55-.35.92-.9,1.63-1.98,1.67-1.13.04-1.66-.67-1.9-1.66-.25-1.02-.42-2.06-.65-3.09-.24-1.11-.78-1.35-1.6-.48-.93.98-1.91,2.1-3.37,1.34-1.73-.89-3.03-2.29-3.54-4.37Z"/>
          <path class="cls-2" d="m117.77,10.45c1.07-2.28,2.39-4.14,4.58-5.21,1.07-.52,2.06-.28,2.87.61.79.86,1.46,1.89,1.18,3.03-.59,2.44-.46,4.02,2.67,4.32,1.43.14,1.76,1.7.91,3-.42.65-1.06,1.17-1.68,1.66-1.24.98-2.57,1.84-3.27,3.37-.33.72-1.01,1.07-1.82.73-.75-.31-.81-.97-.68-1.67.02-.13.06-.26.08-.39.59-3.55.61-3.59-2.5-5.28-1.74-.95-2.14-2.52-2.35-4.17Z"/>
          <path class="cls-2" d="m83.72,391.34c.25-1.36.39-3.16.94-4.82.45-1.37,1.65-1.61,2.9-.81.82.53,1.2,1.39,1.52,2.26.37.98.98,1.36,2,.91.91-.4,1.82-.51,2.52.36.77.95.34,1.9-.2,2.75-.85,1.35-1.67,2.66-1.6,4.36.03.78-.48,1.4-1.36,1.4-.91,0-1.19-.68-1.33-1.45-.09-.52-.15-1.05-.32-1.55-.36-1.06-.92-1.69-2.22-1.19-1.67.64-2.46-.26-2.87-2.23Z"/>
          <path class="cls-2" d="m131.6,2.99c.31-1.44,2.52-3.08,3.96-2.98,1.72.12,2.13,1.31,2.1,2.77-.02.85.44,1.3,1.12,1.68,1.53.87,1.52,2,.47,3.25-.17.2-.33.42-.53.58-.94.77-1.72,2.16-3.12,1.7-1.45-.48-1.28-2-1.27-3.23,0-.86-.25-1.32-1.15-1.53-1.2-.28-1.69-1.15-1.59-2.25Z"/>
        </g>
        <path class="cls-1" d="m209.12,136.04c-11.03-23.71-40.04-35.51-74.57-33.71-.58-5.61-2.81-9.42-2.81-9.42l-14.6,11.61c-.62.49-.44,1.47.32,1.71l16.36,5.16c.73-2.62.94-5.11.85-7.37,27.25.28,49.64,10.61,58.59,29.85,15.02,32.29-13.46,77.38-63.62,100.72-50.16,23.34-103,16.09-118.02-16.2-5.27-11.32-5.18-24.23-.69-37.21-8.5,17.66-15.04,35.3-7.86,50.74,17.04,36.62,76.98,44.85,133.88,18.37,56.9-26.47,89.21-77.62,72.17-114.25Z"/>
      </g>
    </g>
  </g>
</svg>