<?xml version="1.0" encoding="UTF-8"?>
<svg id="Capa_2" data-name="Capa 2" xmlns="http://www.w3.org/2000/svg" viewBox="0 0 754.4 172.55">
  <defs>
    <style>
      .cls-1 {
        fill: #769793;
      }

      .cls-1, .cls-2 {
        stroke-width: 0px;
      }

      .cls-2 {
        fill: #253a37;
      }
    </style>
  </defs>
  <g id="Capa_1-2" data-name="Capa 1">
    <g>
      <path class="cls-1" d="m60.62,84.34c.3-.51.56-1.05.66-1.62.72-2.18-1.17-5.85-4.14-5.46-1.65.21-3.19.65-4.5,1.76-1.25,1.06-2.45,2.16-3.62,3.3-1.09,1.06-2.06,2.26-3.43,2.98-1.21.64-1.77.52-2.69-.46-.37-.39-.71-.8-1.1-1.17-.94-.88-2.05-1.46-3.34-1.43-3.26.09-6.37.89-9.2,2.53-1.72,1-2.17,2.09-1.6,3.99.82,2.75,1.75,5.47,2.54,8.24.21.72.63,1.34,1.35,1.65,1.6.69,3.26,1.04,4.92.31,2.12-.94,4.2-1.11,6.48-.47,2.78.79,4.37-.2,5.39-2.91.31-.82.61-1.64,1.03-2.41.35-.63.72-.74,1.23-.18.66.73,1.39,1.41,1.99,2.18.93,1.19,2.11,1.41,3.48,1.07,1.03-.26,1.93-.78,2.82-1.32,1.65-.99,1.82-1.7.68-3.26-.8-1.11-.96-2.27-.57-3.52.41-1.32.91-2.61,1.61-3.81Z"/>
      <path class="cls-1" d="m25.1,77.92c.89,1.73,2.33,2.79,4.31,2.81,2.63.03,5.22.27,7.81.73,1.7.3,2.99-.47,3.87-1.97.65-1.11.95-2.34,1.43-3.52.24-.59.51-.58.91-.18.52.52,1.03,1.04,1.57,1.53,1.43,1.31,3.07,1.6,4.86.86,1.06-.44,1.91-1.19,2.68-2.02.45-.48.41-1.03.03-1.54-.18-.25-.42-.46-.64-.67-1-.96-1.09-1.33-.48-2.6.57-1.19,1.26-2.33,1.81-3.54,1.36-3.04-.71-6.01-4.05-5.92-1.95.05-3.5.92-4.97,2.07-1.3,1.02-2.15,2.46-3.38,3.55-1.41,1.25-2.81,1.29-4.23.06-.8-.69-1.64-1.28-2.71-1.49-.25-.05-.5-.1-.75-.13-.22-.03-.45-.03-.68-.03-3.07,0-5.96.8-8.78,1.91-1.38.54-1.77,1.31-1.37,2.75.71,2.53,1.56,5.01,2.77,7.35Z"/>
      <path class="cls-1" d="m25.01,60.63c.75,2.01,2.24,3.01,4.38,2.9,1.59-.08,3.11.03,4.66.49,1.88.55,2.91-.09,3.6-1.94.19-.5.36-1.01.58-1.5.49-1.12.87-1.19,1.64-.26.49.58.97,1.18,1.36,1.83.36.59.86.86,1.5.97,1.62.29,3.01-.19,4.22-1.26,1.07-.96,1.24-1.72.58-3-.67-1.31-.57-2.47.4-3.59.53-.62,1.09-1.22,1.49-1.94.71-1.29.69-2.55-.16-3.74-.83-1.17-2.08-1.38-3.33-1.07-2.55.63-4.9,1.66-6.62,3.79-1.24,1.54-2.9,1.61-4.3.25-.46-.45-.92-.92-1.4-1.35-.65-.6-1.38-1.07-2.23-1.32-2.24-.36-4.38-.04-6.46.84-1.61.68-2.03,1.33-1.77,3.07.35,2.35,1.04,4.62,1.87,6.84Z"/>
      <path class="cls-1" d="m58.37,116.51c-1.81-.02-3.34.72-4.66,1.91-.69.62-1.33,1.31-2.05,1.9-2,1.65-2.64,1.53-3.64-.85-.85-2.04-2.42-2.85-4.48-3.04-1.47-.13-2.84.34-4.24.66-1.41.33-2.23,1.19-2.49,2.65-.45,2.54-.38,5.11-.47,7.2.11,2.2.76,3.08,2.38,3.25,2.25.23,4.35.84,6.39,1.8,1.38.65,2.58.11,3.33-1.24.46-.84.94-1.67,1.49-2.46.66-.94.96-.91,1.43.11.37.79.64,1.62,1,2.42.67,1.53,1.74,1.96,3.29,1.35.55-.22,1.04-.56,1.51-.93,1.37-1.09,1.52-1.92.63-3.42-.85-1.43-.67-2.48.61-3.58.41-.35.83-.67,1.26-1,.56-.43,1.11-.88,1.47-1.5.71-1.2.77-2.47.13-3.71-.6-1.17-1.7-1.51-2.91-1.53Z"/>
      <path class="cls-1" d="m26.03,45.88c1.79.5,3.61.93,5.18,2,.76.52,1.54.42,2.32,0,.93-.5,1.69-1.22,2.48-1.9.92-.79.94-.8,1.37.33.59,1.54,1.56,2.59,3.28,2.81,1.55.2,2.62-.75,2.57-2.29-.02-.79.29-1.34,1.01-1.7,1.04-.52,1.99-1.18,2.67-2.15,1.5-2.14.69-4.94-1.73-5.89-1.19-.47-2.38-.32-3.56.08-1.32.45-2.48,1.21-3.73,1.8-1.57.75-2.2.55-2.78-1.07-.62-1.72-1.75-2.71-3.21-2.9-1.56-.33-2.8-.43-4.04-.47-1.76-.05-2.58.58-3.26,2.23-1,2.41-.69,4.87-.36,7.33.14,1.03.83,1.51,1.79,1.78Z"/>
      <path class="cls-1" d="m51.51,133.28c-1.34.29-2.41,1.05-3.41,1.95-.54.49-1.08,1-1.77,1.28-.72.29-1.08.08-1.21-.65-.07-.42-.11-.84-.14-1.26-.1-1.38-.83-2.24-2.14-2.62-1.04-.3-2.11-.32-3.18-.28-2.02.07-3.29,1.05-3.74,3-.37,1.6-.56,3.22-.52,4.86.03,1.06.47,1.98,1.45,2.41,1.39.62,2.56,1.51,3.73,2.44,1.47,1.16,2.72.8,3.51-.92.27-.59.53-1.19.97-1.67.62-.68,1.03-.64,1.49.18.48.86.92,1.74,1.42,2.59.6,1.01,1.18,1.26,2.16,1,1.07-.28,1.55-.75,1.44-1.95-.14-1.52.42-2.55,1.7-3.28.19-.11.37-.27.52-.43,1.11-1.16,1.82-2.49,1.78-3.85-.26-2.06-2.15-3.22-4.06-2.8Z"/>
      <path class="cls-1" d="m28.2,30.86c1.3.9,2.59,1.8,3.88,2.7.66.47,1.36.56,2.06.13.55-.34,1.07-.73,1.59-1.11.39-.28.63-.28.76.26.16.65.32,1.31.7,1.89.69,1.04,1.61,1.7,2.89,1.54,1.23-.15,1.46-1.2,1.69-2.16.17-.72.58-1.2,1.23-1.51.66-.32,1.33-.63,1.96-.99,1.29-.74,1.94-2.06,1.66-3.32-.27-1.24-1.44-2.1-2.96-2.21-.89-.06-1.74.08-2.58.33-.81.24-1.61.54-2.47.55-.79,0-1.41-.22-1.74-1.05-.72-1.83-2.18-2.8-3.72-3.26-.89-.22-1.51-.2-2.13-.23-1.27-.06-2.04.7-2.49,1.69-.56,1.23-1.04,2.49-1.72,3.67-.37.65-.3,1.31.16,1.9.35.44.74.85,1.21,1.17Z"/>
      <path class="cls-1" d="m45.63,147.78c-.89.23-1.63.77-2.47,1.09-.96.37-1.17.32-1.32-.68-.3-2.08-1.61-3.05-3.53-3.43-1.16-.23-1.78.05-2.01,1.19-.29,1.38-.64,2.73-1.2,4.04-.32.73-.2,1.51.54,1.94.92.53,1.62,1.29,2.38,2.01.68.64,1.25.59,1.89-.11.4-.44.8-.87,1.22-1.29.5-.51.85-.36,1.15.25.3.59.46,1.21.48,1.68.12,1.48.5,1.86,1.36,1.53.51-.2.8-.62.77-1.11-.09-1.54.79-2.38,2.01-3.02.22-.12.42-.29.61-.45.93-.78,1.24-1.87.79-2.78-.44-.87-1.43-1.17-2.66-.84Z"/>
      <path class="cls-1" d="m37.2,21.09c.42.71,1.07.97,1.88.74.32-.09.64-.2.97-.3,1.1-.34,1.42-.11,1.51,1.06.05.7-.15,1.34-.39,1.97-.16.41-.52.85.06,1.17.53.3,1.1.09,1.29-.42.53-1.47,1.62-2.03,3.07-2.21.34-.04.69-.26.98-.47,1.29-.93,1.09-2.77-.33-3.45-.65-.31-1.31-.32-1.98-.16-.49.11-.98.27-1.47.39-.57.14-.83-.04-.62-.65.16-.45.32-.9.47-1.35.49-1.62-.31-2.73-1.44-3.69-1.01-.86-1.97-.86-2.96,0-.78.69-1.48,1.47-2.13,2.28-.38.47-.54,1.01-.36,1.59.37,1.21.82,2.4,1.46,3.5Z"/>
      <path class="cls-1" d="m43.2,11.72q.9,1.66,2.76,1.26c.06-.01.11-.03.17-.03.6-.05.94.17.83.82-.04.22-.1.44-.18.79-.14.3-.09.76-.16,1.21-.05.33-.04.66.34.76.41.11.67-.16.76-.51.26-1.08.83-1.59,2.02-1.59.95,0,1.7-.97,1.65-1.83-.05-.84-.8-1.51-1.81-1.56-.25-.01-.51.03-.76.05-.82.08-.9-.03-.59-.82.47-1.21.33-1.98-.51-2.76-.93-.87-1.72-.97-2.93-.36-.43.22-.86.43-1.27.68-1.22.74-1.48,1.57-.87,2.86.17.36.39.69.57,1.04Z"/>
      <path class="cls-1" d="m40.82,158.81s-.1.06-.15.09c-.37.23-.64.16-.79-.26-.1-.26-.19-.53-.26-.8-.26-1.01-.94-1.57-1.92-1.8-.54-.13-1,.02-1.2.52-.42,1.05-.56,2.17-.64,3.27.22.89.77,1.48,1.51,1.87.63.32,1.05-.16,1.44-.57.35-.37.58-.27.68.2.1.44.17.88.28,1.32.1.42.33.73.81.71.46-.02.7-.32.84-.71.14-.36.06-.72.03-1.09-.04-.45.06-.81.46-1.1.8-.57,1.01-1.15.61-1.66-.56-.7-1.14-.34-1.71.02Z"/>
      <path class="cls-1" d="m51.27,6.24c1.33.72,1.32.74,1.07,2.26,0,.06-.02.11-.04.17-.06.3-.03.58.29.71.35.15.64,0,.78-.31.3-.65.87-1.02,1.4-1.44.26-.21.54-.43.72-.71.36-.56.22-1.22-.39-1.28-1.33-.13-1.39-.81-1.14-1.85.12-.49-.17-.93-.5-1.29-.35-.38-.77-.48-1.23-.26-.93.46-1.5,1.25-1.95,2.22.09.71.26,1.37,1,1.78Z"/>
      <path class="cls-1" d="m38.88,166c-.43.19-.69.03-.85-.39-.14-.37-.3-.74-.65-.96-.54-.34-1.05-.24-1.24.34-.23.71-.29,1.48-.4,2.06.17.84.51,1.22,1.22.95.55-.21.79.06.95.51.07.21.1.44.14.66.06.33.18.62.57.62.38,0,.59-.27.58-.6-.03-.73.32-1.29.68-1.86.23-.36.41-.77.08-1.17-.3-.37-.69-.32-1.08-.15Z"/>
      <path class="cls-1" d="m56.85,2.23c.38.09.49.28.49.65,0,.53-.08,1.18.54,1.38.6.2.93-.4,1.33-.73.09-.07.16-.16.23-.25.45-.54.45-1.02-.2-1.39-.29-.16-.49-.35-.48-.72.01-.62-.16-1.13-.9-1.18-.62-.04-1.56.66-1.69,1.27-.05.47.16.84.68.96Z"/>
      <path class="cls-2" d="m57.42,43.7c-.25-2.4-1.18-4.04-1.18-4.04l-6.23,4.95c-.26.21-.19.63.14.73l6.98,2.2c.31-1.12.4-2.18.36-3.15,11.63.12,21.19,4.53,25.01,12.74,6.41,13.78-5.75,33.03-27.16,42.99-21.41,9.96-43.97,6.87-50.38-6.91-2.25-4.83-2.21-10.34-.29-15.88-3.63,7.54-6.42,15.07-3.35,21.66,7.27,15.63,32.86,19.14,57.15,7.84,24.29-11.3,38.08-33.14,30.81-48.77-4.71-10.12-17.1-15.14-31.85-14.37Z"/>
      <path class="cls-1" d="m124.22,29.82v105.8h15.12V20.38h-5.68c-5.21,0-9.44,4.23-9.44,9.44Z"/>
      <path class="cls-1" d="m200.84,48.24c-2.13-1.95-4.65-3.47-7.56-4.56-2.91-1.09-6.08-1.63-9.54-1.63-4.99,0-9.26,1.29-12.8,3.88-3.54,2.59-5.9,6.24-7.09,10.97v-12.94l-14.98,4.63v87.04h14.98v-69.61c0-2.45.39-4.77,1.16-6.95.77-2.18,1.82-4.13,3.13-5.86,1.32-1.72,2.82-3.09,4.5-4.08,1.68-1,3.42-1.5,5.24-1.5,4.45,0,7.99,1.82,10.62,5.45,2.63,3.63,3.95,8.22,3.95,13.76v68.79h15.12v-70.97c0-3.36-.59-6.45-1.77-9.26-1.18-2.81-2.84-5.2-4.97-7.15Z"/>
      <path class="cls-1" d="m271.27,58.05c-2.23-4.95-4.99-8.85-8.31-11.71-3.32-2.86-7.11-4.29-11.37-4.29-5.9,0-10.51,1.2-13.83,3.61-3.32,2.41-5.88,5.79-7.7,10.15l-3.13-11.85-10.49,4.63v112.2c0,6.5,5.27,11.77,11.77,11.77h3.36v-50c1.63,4.9,3.93,8.7,6.88,11.37,2.95,2.68,7.06,4.02,12.33,4.02,4.18,0,7.95-1.18,11.31-3.54,3.36-2.36,6.22-5.49,8.58-9.4,2.36-3.91,4.2-8.36,5.52-13.35,1.32-4.99,1.98-10.17,1.98-15.53,0-7.35-.59-14.3-1.77-20.84-1.18-6.54-2.88-12.28-5.11-17.23Zm-9.06,55.65c-.55,3.91-1.39,7.27-2.52,10.08-1.14,2.82-2.57,5-4.29,6.54-1.73,1.54-3.72,2.31-5.99,2.31s-4.47-.84-6.61-2.52c-2.14-1.68-4.04-3.77-5.72-6.27-1.68-2.5-3.02-5.15-4.02-7.97-1-2.82-1.5-5.4-1.5-7.76v-40.05c0-1.63.34-3.63,1.02-5.99.68-2.36,1.57-4.61,2.66-6.74,1.09-2.13,2.36-3.97,3.81-5.52,1.45-1.54,2.95-2.31,4.5-2.31,2.73,0,5.27,1.45,7.63,4.36,2.36,2.91,4.43,6.81,6.2,11.72,1.77,4.9,3.15,10.58,4.15,17.03,1,6.45,1.5,13.17,1.5,20.16,0,4.72-.27,9.04-.81,12.94Z"/>
      <path class="cls-1" d="m327.59,113.15c0,2.36-.34,4.61-1.02,6.74-.68,2.13-1.63,4.02-2.86,5.65-1.23,1.63-2.7,2.93-4.43,3.88-1.73.95-3.63,1.43-5.72,1.43s-4.16-.5-5.93-1.5c-1.77-1-3.32-2.38-4.63-4.15-1.32-1.77-2.32-3.84-3-6.2-.68-2.36-1.02-4.95-1.02-7.76V43.4l-14.98,4.77v64.98c0,3.54.61,6.72,1.84,9.53,1.23,2.82,2.91,5.25,5.04,7.29,2.13,2.04,4.63,3.61,7.49,4.7,2.86,1.09,5.97,1.63,9.33,1.63,4.72,0,8.92-1.13,12.6-3.4,3.68-2.27,6.11-5.31,7.29-9.13l3.13,11.85h11.99V43.4l-15.12,4.77v64.98Z"/>
      <path class="cls-1" d="m384.67,133.31c-1.73,0-3.39-.48-4.97-1.43-1.59-.95-2.99-2.22-4.22-3.81-1.22-1.59-2.23-3.36-3-5.31-.77-1.95-1.16-3.88-1.16-5.79V47.22h11.99v-3.27h-11.99v-22.34c-2,14.9-9.4,22.34-22.21,22.34v3.27h7.08v67.57c0,3.45.59,6.58,1.77,9.4,1.18,2.82,2.81,5.24,4.9,7.29,2.09,2.04,4.61,3.64,7.56,4.77,2.95,1.13,6.15,1.7,9.6,1.7,2.36,0,4.7-.32,7.02-.95,2.32-.64,4.47-1.86,6.47-3.68l-1.36-3.27c-2.73,2.18-5.22,3.27-7.49,3.27Z"/>
      <path class="cls-1" d="m440.11,91.22c-2.81-2.27-5.97-4.31-9.47-6.13-3.5-1.81-6.97-3.72-10.42-5.72-3.09-1.72-5.34-3.97-6.74-6.74-1.41-2.77-2.11-6.06-2.11-9.88,0-2,.39-3.9,1.16-5.72.77-1.81,1.84-3.43,3.2-4.84,1.36-1.41,2.93-2.52,4.7-3.34,1.77-.82,3.65-1.23,5.65-1.23,3.09,0,5.83.89,8.24,2.66,2.41,1.77,4.61,4.11,6.61,7.02l4.36-3.54c-2.63-4.27-5.77-7.29-9.4-9.06-3.63-1.77-8.44-2.66-14.44-2.66-3.45,0-6.7.7-9.74,2.11-3.04,1.41-5.7,3.32-7.97,5.72-2.27,2.41-4.06,5.18-5.38,8.31-1.32,3.13-1.97,6.38-1.97,9.74,0,4.9.93,8.97,2.79,12.19,1.86,3.23,4.2,5.99,7.02,8.31,2.81,2.32,5.88,4.34,9.2,6.06,3.31,1.73,6.38,3.57,9.19,5.52,2.81,1.95,5.15,4.18,7.01,6.67,1.86,2.5,2.79,5.65,2.79,9.47,0,2.09-.32,4.08-.95,5.99-.64,1.91-1.64,3.63-3,5.18-1.36,1.55-3.09,2.77-5.18,3.68-2.09.91-4.54,1.36-7.36,1.36-1.91,0-3.75-.43-5.52-1.29-1.77-.86-3.43-1.98-4.97-3.34-1.55-1.36-2.93-2.9-4.16-4.63-1.23-1.73-2.2-3.45-2.93-5.18l-5.31,3.4c1.27,2.36,2.68,4.54,4.22,6.54,1.54,2,3.27,3.75,5.18,5.24,1.91,1.5,4.09,2.68,6.54,3.54,2.45.86,5.18,1.29,8.17,1.29,5.27,0,9.81-.77,13.62-2.32s6.97-3.61,9.47-6.2c2.5-2.59,4.36-5.54,5.59-8.85,1.23-3.31,1.84-6.7,1.84-10.15,0-4.45-.89-8.19-2.66-11.24-1.77-3.04-4.06-5.7-6.88-7.97Z"/>
      <path class="cls-1" d="m521.15,83.5c-3.44-3.26-6.88-6.36-10.32-9.3-3.44-2.94-6.52-5.95-9.23-9.03-2.71-3.08-4.93-6.29-6.65-9.64-1.72-3.35-2.58-7.11-2.58-11.27,0-2.62.41-5.14,1.22-7.53.81-2.4,1.97-4.48,3.46-6.25,1.49-1.77,3.35-3.17,5.57-4.21,2.22-1.04,4.73-1.56,7.53-1.56s5.27.97,7.67,2.92c2.4,1.95,4.64,4.55,6.72,7.81l4.48-3.53c-2.63-3.8-5.52-6.83-8.69-9.1-3.17-2.26-7.24-3.4-12.22-3.4s-9.14.73-12.76,2.17c-3.62,1.45-6.63,3.42-9.03,5.91-2.4,2.49-4.19,5.43-5.36,8.83-1.18,3.39-1.77,7.04-1.77,10.93,0,4.35.75,8.28,2.24,11.81,1.5,3.53,3.51,6.81,6.04,9.84,2.53,3.03,5.39,6,8.55,8.89,3.17,2.9,6.47,5.89,9.91,8.96,3.53,3.26,6.04,6.77,7.54,10.52,1.49,3.76,2.24,7.54,2.24,11.34s-.43,7.2-1.29,10.18c-.86,2.99-2.02,5.5-3.46,7.53-1.45,2.04-3.15,3.58-5.09,4.62-1.95,1.04-3.96,1.56-6.04,1.56s-4.26-.41-6.24-1.22c-1.99-.81-3.8-1.9-5.43-3.26-1.63-1.36-3.01-2.92-4.14-4.68-1.13-1.77-1.97-3.6-2.51-5.5l-5.43,3.4c2.08,5.43,5.23,9.55,9.44,12.36,4.21,2.8,9.12,4.21,14.73,4.21,9.59,0,17.08-2.58,22.47-7.74,5.38-5.16,8.08-12.17,8.08-21.05,0-4.43-.75-8.96-2.24-13.58s-3.96-8.6-7.4-11.95Z"/>
      <path class="cls-1" d="m595.42,63.54c0-2.9-.59-5.63-1.77-8.21-1.18-2.58-2.85-4.84-5.02-6.79-2.17-1.94-4.84-3.48-8.01-4.62-3.17-1.13-6.74-1.7-10.73-1.7-12.04,0-21.09,4.07-27.15,12.22l4.62,2.17c4.62-5.97,9.91-8.96,15.88-8.96,2.35,0,4.57.56,6.65,1.7,2.08,1.13,3.89,2.58,5.43,4.35,1.54,1.77,2.76,3.71,3.67,5.84.9,2.13,1.36,4.19,1.36,6.18v6.93c-.91,3.8-2.6,6.68-5.09,8.62-2.49,1.95-5.68,3.33-9.57,4.14-9.69,2.08-16.9,5.39-21.66,9.91-4.75,4.53-7.13,9.96-7.13,16.29,0,3.71.41,7.15,1.22,10.32.81,3.17,2.15,5.93,4,8.28,1.85,2.35,4.3,4.21,7.33,5.57,3.03,1.36,6.81,2.04,11.34,2.04,2.99,0,5.54-.39,7.67-1.16,2.13-.77,3.96-1.79,5.5-3.05,1.54-1.27,2.78-2.76,3.73-4.48.95-1.72,1.79-3.48,2.51-5.3,0,2.17.25,4.21.75,6.11.5,1.9,1.34,3.71,2.51,5.43h14.8c-1.9-2.81-2.85-6.7-2.85-11.68v-60.15Zm-15.07,48.06l-.54,4.75c-1.36,4.8-3.17,8.85-5.43,12.15-2.26,3.3-4.98,4.96-8.15,4.96-2.72,0-5-.75-6.86-2.24-1.86-1.49-3.35-3.42-4.48-5.77-1.13-2.35-1.92-5.02-2.38-8.01-.45-2.99-.68-5.93-.68-8.83,0-8.51,6.11-14.75,18.33-18.74,2.9-.99,5.23-2.31,6.99-3.94,1.76-1.63,2.83-3.8,3.19-6.52v32.18Z"/>
      <path class="cls-1" d="m604.25,124.18c0,6.18,5.01,11.19,11.19,11.19h3.88V18.2l-15.07,4.62v101.37Z"/>
      <path class="cls-1" d="m671.72,113.1c0,2.35-.34,4.6-1.02,6.72-.68,2.13-1.63,4-2.85,5.63-1.22,1.63-2.69,2.92-4.41,3.87-1.72.95-3.62,1.43-5.7,1.43s-4.14-.5-5.91-1.5c-1.77-.99-3.3-2.37-4.62-4.14-1.31-1.77-2.31-3.82-2.99-6.18-.68-2.35-1.02-4.93-1.02-7.74V43.58l-14.93,4.75v64.76c0,3.53.61,6.7,1.83,9.5,1.22,2.81,2.9,5.23,5.02,7.26,2.13,2.04,4.62,3.6,7.47,4.68,2.85,1.09,5.95,1.63,9.3,1.63,4.71,0,8.89-1.13,12.56-3.4,3.67-2.26,6.09-5.3,7.26-9.1l3.12,11.81h11.95V43.58l-15.07,4.75v64.76Z"/>
      <path class="cls-1" d="m749.23,19.78c-5.88,1.8-9.89,7.23-9.89,13.38v23.87c-1.9-5.25-4.57-9.03-8.01-11.34-3.44-2.31-7.74-3.46-12.9-3.46-4.07,0-7.69,1.13-10.86,3.4-3.17,2.26-5.84,5.27-8.01,9.03-2.17,3.76-3.82,8.13-4.96,13.1-1.13,4.98-1.7,10.18-1.7,15.61,0,7.69.63,14.87,1.9,21.52,1.27,6.65,3.05,12.42,5.36,17.31,2.31,4.89,5.09,8.71,8.35,11.47,3.26,2.76,6.92,4.14,11,4.14,2.8,0,5.25-.34,7.33-1.02,2.08-.68,3.91-1.61,5.5-2.78,1.58-1.18,2.92-2.56,4.01-4.14,1.09-1.58,2.08-3.28,2.99-5.09l3.12,10.73h11.95V18.2l-5.18,1.59Zm-9.89,92.77c0,1.9-.36,3.98-1.09,6.25-.73,2.26-1.68,4.41-2.85,6.45-1.18,2.04-2.47,3.73-3.87,5.09-1.4,1.36-2.78,2.04-4.14,2.04-2.81,0-5.43-1.65-7.87-4.96-2.44-3.3-4.55-7.56-6.31-12.76-1.77-5.2-3.15-11.07-4.14-17.58-1-6.52-1.49-12.99-1.49-19.42,0-9.86,1.31-17.35,3.94-22.47,2.62-5.11,6.47-7.67,11.54-7.67,2.35,0,4.53.86,6.52,2.58,1.99,1.72,3.71,3.85,5.16,6.38,1.45,2.54,2.58,5.18,3.4,7.94.81,2.76,1.22,5.14,1.22,7.13v41Z"/>
    </g>
  </g>
</svg>