<?xml version="1.0" encoding="UTF-8"?>
<svg id="Capa_2" data-name="Capa 2" xmlns="http://www.w3.org/2000/svg" viewBox="0 0 375.45 402.04">
  <defs>
    <style>
      .cls-1 {
        fill: #79a39f;
      }

      .cls-1, .cls-2, .cls-3 {
        stroke-width: 0px;
      }

      .cls-2 {
        fill: #769793;
      }

      .cls-3 {
        fill: #656666;
      }
    </style>
  </defs>
  <g id="Capa_1-2" data-name="Capa 1">
    <g>
      <g>
        <path class="cls-3" d="m153.48,338.85l-3.32,13.82c-.04.17-.16.24-.33.2l-.92-.22c-.16-.04-.24-.17-.2-.33l3.32-13.82c.04-.16.16-.24.33-.2l.92.22c.16.04.24.17.2.33Z"/>
        <path class="cls-3" d="m144.43,336.51l-4.59,13.46c-.05.16-.19.22-.35.17l-.9-.3c-.14-.05-.2-.13-.24-.28l-3.01-13.15c-.01-.09-.1-.1-.13,0l-3.66,10.74c-.05.16-.19.23-.35.17l-.9-.31c-.16-.05-.22-.19-.17-.35l4.59-13.46c.05-.16.19-.22.35-.17l.9.3c.14.05.2.14.24.28l3.01,13.19c.01.09.1.1.13,0l3.65-10.79c.06-.18.19-.22.35-.17l.9.31c.16.05.22.19.17.35Z"/>
        <path class="cls-3" d="m114.62,335.59c1.04-2.21,3.24-2.97,5.51-1.89l3.7,1.75c.06.03.12,0,.14-.05l2.65-5.6c.07-.15.21-.2.37-.13l.86.41c.15.07.2.21.13.36l-6.08,12.86c-.07.15-.21.2-.37.13l-4.95-2.34c-2.23-1.05-3.01-3.24-1.95-5.49Zm1.34.61c-.73,1.54-.19,3.06,1.32,3.77l3.6,1.7c.06.03.11,0,.14-.05l2.33-4.92c.03-.06,0-.11-.05-.14l-3.6-1.7c-1.51-.71-3.01-.19-3.73,1.34Z"/>
        <path class="cls-3" d="m111.17,326.75l-5.24,8.44c-.09.14-.24.18-.38.09l-.8-.5c-.14-.09-.18-.23-.09-.38l5.26-8.47c1.06-1.7.58-3.61-1.21-4.72-1.79-1.11-3.71-.69-4.77,1.01l-5.26,8.47c-.09.14-.24.18-.38.09l-.8-.5c-.14-.09-.18-.23-.09-.38l5.24-8.43c1.5-2.42,4.19-2.96,6.75-1.36,2.54,1.58,3.27,4.24,1.77,6.66Z"/>
        <path class="cls-3" d="m82.74,318.9l.48-.61c.1-.13.25-.15.38-.05l3.18,2.51s.11.03.15-.02l8.08-10.25c.1-.13.25-.15.39-.04l.74.59c.13.11.15.25.05.38l-8.08,10.25s-.03.11.02.15l3.04,2.4c.13.11.15.25.05.38l-.48.61c-.1.13-.25.15-.38.05l-7.56-5.97c-.13-.11-.15-.25-.05-.38Z"/>
        <path class="cls-3" d="m84.62,306.29l-.41.42c-.12.12-.27.12-.39,0l-.65-.63c-.12-.12-.12-.27,0-.39l.35-.36c1.1-1.13.89-2.93-.77-4.55-1.58-1.55-3.09-1.57-4.12-.52-1.05,1.07-.72,2.36.44,5.09,1.1,2.49,1.9,4.36.2,6.09-1.67,1.7-3.88,1.43-5.92-.58-2.23-2.18-2.47-4.65-.79-6.37l.28-.29c.12-.12.27-.12.39,0l.66.65c.12.12.12.27,0,.39l-.22.23c-1.11,1.13-1.04,2.87.65,4.52,1.42,1.38,2.79,1.55,3.86.45,1.1-1.13.61-2.32-.52-4.81-1.12-2.57-1.84-4.66-.16-6.38,1.61-1.64,3.98-1.54,6.22.66,2.23,2.18,2.54,4.67.88,6.37Z"/>
        <path class="cls-3" d="m67.62,287.96l-.48.35c-.14.1-.28.08-.38-.06l-.54-.73c-.1-.13-.07-.28.06-.38l.41-.3c1.27-.94,1.36-2.75-.02-4.62-1.31-1.79-2.79-2.06-3.98-1.18-1.21.88-1.09,2.21-.39,5.1.68,2.64,1.16,4.61-.79,6.05-1.92,1.41-4.06.78-5.75-1.53-1.84-2.52-1.68-4.99.26-6.41l.32-.24c.14-.1.28-.08.38.06l.55.75c.1.14.08.28-.06.38l-.26.19c-1.27.93-1.49,2.67-.1,4.57,1.17,1.6,2.5,1.98,3.74,1.07,1.28-.93.99-2.19.27-4.83-.68-2.72-1.06-4.9.88-6.32,1.85-1.36,4.17-.87,6.03,1.67,1.85,2.52,1.75,5.02-.17,6.43Z"/>
        <path class="cls-3" d="m56.53,264.58l-1.81,2.01s-.05.08-.02.13l3.14,5.45c.03.05.08.05.13.05l2.64-.57c.17-.05.27.01.35.14l.5.88c.1.17.04.32-.16.36l-14.64,3.07c-.17.05-.28-.01-.35-.14l-.67-1.17c-.07-.13-.07-.25.05-.37l9.99-11.13c.13-.15.3-.12.39.04l.5.88c.07.13.07.25-.05.37Zm.02,7.82l-2.7-4.7c-.03-.06-.09-.07-.15-.01l-6.11,6.68c-.08.07-.04.14.06.11l8.83-1.95c.08-.02.1-.08.07-.14Z"/>
        <path class="cls-3" d="m52.84,257.33l-13.02,5.69c-.15.07-.29.02-.36-.14l-.38-.87c-.07-.15-.01-.29.14-.36l11.98-5.24c.06-.03.08-.08.05-.14l-2.95-6.74c-.07-.15-.01-.29.14-.36l.7-.3c.15-.07.29-.01.36.14l3.48,7.96c.07.16.02.29-.14.36Z"/>
        <path class="cls-3" d="m42.83,244.14l-9.49,2.94c-.16.05-.29-.02-.34-.18l-.28-.91c-.05-.16.02-.29.18-.34l9.53-2.95c1.91-.59,2.81-2.35,2.18-4.36-.62-2.01-2.35-2.96-4.27-2.37l-9.53,2.95c-.16.05-.29-.02-.34-.18l-.28-.91c-.05-.16.02-.29.18-.34l9.49-2.94c2.72-.84,5.11.52,6,3.4.89,2.86-.31,5.35-3.03,6.19Z"/>
        <path class="cls-3" d="m42.14,225.85l-13.97,2.61c-.16.03-.29-.05-.32-.22l-.9-4.83c-.51-2.74.7-4.76,3.16-5.23l6.51-1.22c2.47-.46,4.33.99,4.84,3.73l.9,4.83c.03.16-.05.29-.22.32Zm-1.31-1.39l-.67-3.59c-.34-1.8-1.67-2.73-3.45-2.4l-6.11,1.14c-1.8.34-2.71,1.67-2.37,3.49l.67,3.59c.01.06.06.1.12.08l11.73-2.2c.06-.01.1-.06.08-.12Z"/>
        <path class="cls-3" d="m32.8,193.75l-.76-.02c-.17,0-.27-.11-.27-.28l.13-6.11c0-.17.11-.27.28-.27l.76.02c.17,0,.27.11.27.28l-.13,6.12c0,.17-.11.27-.28.27Z"/>
        <path class="cls-3" d="m40.31,172.24l-14.05-2.13c-.17-.02-.26-.14-.23-.31l.14-.94c.02-.17.14-.26.31-.23l14.05,2.13c.17.03.25.14.23.31l-.14.94c-.03.17-.15.26-.31.23Z"/>
        <path class="cls-3" d="m41.86,163.03l-13.8-3.41c-.16-.04-.24-.17-.2-.33l.23-.92c.03-.14.12-.21.26-.26l12.84-4.13c.09-.02.09-.11-.01-.13l-11.02-2.72c-.16-.04-.24-.17-.2-.33l.23-.92c.04-.16.17-.24.33-.2l13.8,3.41c.16.04.24.17.2.33l-.23.92c-.04.14-.12.21-.26.26l-12.89,4.14c-.09.02-.09.11.01.13l11.06,2.71c.18.04.24.17.2.33l-.23.92c-.04.16-.17.24-.33.2Z"/>
        <path class="cls-3" d="m40.24,133.21c2.29.85,3.23,2.98,2.36,5.33l-1.43,3.83c-.02.06,0,.11.06.13l5.81,2.16c.16.06.22.19.16.35l-.33.89c-.06.16-.19.22-.35.16l-13.33-4.96c-.16-.06-.22-.19-.16-.35l1.91-5.13c.86-2.31,2.97-3.28,5.3-2.41Zm-.49,1.39c-1.6-.59-3.06.08-3.64,1.64l-1.39,3.73c-.02.06,0,.11.06.14l5.1,1.89c.06.02.11,0,.14-.06l1.39-3.73c.58-1.56-.07-3.02-1.65-3.61Z"/>
        <path class="cls-3" d="m48.74,129.01l-8.86-4.5c-.15-.08-.2-.22-.12-.37l.43-.85c.08-.15.22-.2.37-.12l8.9,4.52c1.79.91,3.65.27,4.61-1.61.95-1.88.37-3.76-1.42-4.67l-8.9-4.52c-.15-.08-.2-.22-.12-.37l.43-.85c.08-.15.22-.2.37-.12l8.86,4.5c2.54,1.29,3.31,3.93,1.94,6.62-1.36,2.67-3.95,3.63-6.49,2.34Z"/>
        <path class="cls-3" d="m54.12,100.01l.65.43c.14.09.17.24.08.38l-2.23,3.38c-.03.05-.02.11.03.14l10.9,7.18c.14.09.17.24.08.38l-.52.79c-.09.14-.24.17-.38.08l-10.9-7.18c-.05-.03-.11-.02-.15.03l-2.13,3.24c-.09.14-.24.17-.38.08l-.65-.43c-.14-.09-.17-.24-.08-.38l5.3-8.05c.09-.14.24-.17.38-.08Z"/>
        <path class="cls-3" d="m66.81,100.85l-.46-.38c-.13-.11-.14-.25-.04-.38l.58-.7c.11-.13.26-.14.38-.04l.39.32c1.22,1.01,3,.64,4.47-1.15,1.41-1.71,1.31-3.21.17-4.15-1.16-.95-2.42-.52-5.04.88-2.39,1.31-4.19,2.26-6.06.72-1.84-1.52-1.75-3.74.07-5.96,1.99-2.41,4.43-2.85,6.29-1.33l.31.25c.13.11.15.26.04.39l-.59.72c-.11.13-.26.15-.39.04l-.24-.2c-1.22-1.01-2.95-.79-4.46,1.03-1.26,1.53-1.31,2.91-.12,3.89,1.22,1.01,2.36.42,4.75-.92,2.46-1.33,4.49-2.23,6.35-.7,1.77,1.46,1.87,3.84-.13,6.26-1.98,2.41-4.44,2.93-6.28,1.42Z"/>
        <path class="cls-3" d="m83.64,82.35l-.39-.45c-.11-.13-.1-.27.03-.39l.68-.6c.13-.11.28-.1.39.03l.33.38c1.04,1.19,2.86,1.11,4.6-.41,1.67-1.46,1.81-2.96.84-4.07-.98-1.13-2.3-.9-5.12.05-2.57.91-4.5,1.56-6.09-.27-1.57-1.8-1.13-3.98,1.03-5.87,2.35-2.06,4.83-2.1,6.42-.29l.26.3c.11.13.1.27-.03.39l-.7.61c-.13.11-.28.1-.39-.03l-.21-.24c-1.04-1.19-2.79-1.26-4.56.29-1.49,1.31-1.76,2.66-.75,3.82,1.04,1.19,2.26.79,4.84-.14,2.65-.92,4.79-1.48,6.38.33,1.51,1.73,1.22,4.09-1.14,6.16-2.35,2.05-4.85,2.17-6.42.38Z"/>
        <path class="cls-3" d="m106.02,69.27l-2.16-1.63s-.08-.05-.13,0l-5.16,3.59c-.05.04-.05.08-.04.13l.79,2.58c.06.16.01.27-.11.36l-.83.58c-.15.11-.31.06-.37-.13l-4.31-14.32c-.06-.16-.01-.27.11-.36l1.11-.77c.12-.08.24-.09.38.02l11.95,9.01c.16.12.15.29,0,.39l-.83.58c-.12.08-.24.09-.38-.02Zm-7.79.7l4.45-3.1c.05-.04.06-.1,0-.15l-7.18-5.51c-.08-.07-.15-.03-.1.07l2.7,8.64c.03.08.09.09.14.06Z"/>
        <path class="cls-3" d="m112.89,64.97l-6.79-12.48c-.08-.15-.04-.29.11-.37l.83-.45c.15-.08.29-.04.37.11l6.25,11.48c.03.06.09.07.14.04l6.46-3.52c.15-.08.29-.04.37.11l.37.67c.08.15.04.29-.11.37l-7.63,4.15c-.15.08-.29.04-.37-.11Z"/>
        <path class="cls-3" d="m125.22,53.84l-3.75-9.2c-.06-.16,0-.3.15-.36l.88-.36c.16-.06.29,0,.36.15l3.76,9.24c.75,1.86,2.58,2.59,4.54,1.8,1.95-.79,2.75-2.6,1.99-4.45l-3.76-9.24c-.06-.16,0-.29.15-.36l.88-.36c.16-.06.29,0,.36.15l3.75,9.2c1.07,2.64-.07,5.13-2.87,6.27-2.77,1.13-5.36.15-6.43-2.48Z"/>
        <path class="cls-3" d="m143.31,51.61l-3.8-13.7c-.05-.16.03-.29.19-.34l4.73-1.31c2.68-.74,4.81.29,5.48,2.71l1.77,6.38c.67,2.42-.62,4.39-3.3,5.14l-4.73,1.31c-.16.04-.29-.03-.34-.19Zm1.27-1.42l3.51-.98c1.77-.49,2.58-1.9,2.1-3.64l-1.66-5.99c-.49-1.77-1.89-2.56-3.68-2.07l-3.51.97c-.06.02-.09.07-.07.13l3.19,11.5c.02.06.07.09.13.07Z"/>
      </g>
      <g>
        <path class="cls-3" d="m232.7,51.8l4.34-13.54c.05-.16.18-.23.35-.18l.9.29c.16.05.23.19.18.34l-4.34,13.54c-.05.16-.18.23-.35.18l-.9-.29c-.16-.05-.23-.18-.18-.34Z"/>
        <path class="cls-3" d="m241.55,54.8l5.57-13.08c.07-.16.21-.21.36-.14l.87.37c.14.06.19.15.22.3l2.02,13.33c0,.09.09.11.13,0l4.45-10.44c.07-.16.2-.21.36-.14l.87.37c.16.06.21.2.14.36l-5.57,13.08c-.07.16-.21.21-.36.14l-.87-.37c-.14-.06-.19-.15-.22-.3l-2.03-13.38c0-.09-.09-.11-.13,0l-4.44,10.49c-.08.17-.21.21-.36.14l-.87-.37c-.16-.07-.21-.2-.14-.36Z"/>
        <path class="cls-3" d="m271.21,57.94c-1.21,2.13-3.46,2.72-5.64,1.48l-3.56-2.02c-.06-.03-.11-.02-.14.04l-3.06,5.39c-.08.15-.23.18-.37.1l-.82-.47c-.15-.08-.19-.23-.1-.37l7.02-12.38c.08-.14.23-.19.37-.1l4.77,2.71c2.15,1.22,2.76,3.46,1.54,5.62Zm-1.3-.71c.84-1.48.42-3.03-1.03-3.86l-3.46-1.97c-.05-.03-.11-.02-.14.04l-2.68,4.73c-.03.06-.02.11.04.14l3.46,1.97c1.45.82,2.99.41,3.82-1.06Z"/>
        <path class="cls-3" d="m273.99,67.01l5.85-8.02c.1-.14.25-.16.38-.06l.76.56c.14.1.16.25.06.38l-5.88,8.06c-1.18,1.62-.85,3.56.86,4.8,1.7,1.24,3.65.97,4.83-.65l5.88-8.06c.1-.14.25-.16.38-.06l.77.56c.14.1.16.25.06.38l-5.85,8.02c-1.68,2.3-4.4,2.64-6.84.86-2.42-1.76-2.95-4.47-1.27-6.77Z"/>
        <path class="cls-3" d="m301.76,76.95l-.53.58c-.11.12-.26.13-.39.02l-2.98-2.74s-.11-.04-.15,0l-8.82,9.62c-.11.13-.26.13-.39.02l-.7-.64c-.12-.11-.13-.26-.02-.39l8.82-9.62s.04-.11,0-.15l-2.86-2.62c-.13-.12-.13-.26-.02-.39l.53-.57c.11-.13.26-.13.39-.02l7.1,6.51c.13.12.13.26.02.39Z"/>
        <path class="cls-3" d="m298.95,89.37l.44-.39c.13-.11.28-.1.39.03l.6.68c.11.13.1.27-.03.38l-.38.34c-1.19,1.04-1.11,2.86.43,4.6,1.46,1.66,2.96,1.8,4.07.82,1.12-.99.89-2.3-.06-5.11-.91-2.57-1.57-4.49.25-6.09,1.79-1.57,3.97-1.14,5.86,1.01,2.06,2.34,2.11,4.82.31,6.41l-.3.27c-.13.11-.28.1-.39-.03l-.61-.7c-.11-.13-.1-.27.02-.39l.24-.21c1.19-1.05,1.25-2.79-.31-4.56-1.31-1.49-2.67-1.75-3.82-.74-1.19,1.05-.78,2.27.16,4.83.92,2.64,1.49,4.78-.31,6.37-1.72,1.52-4.08,1.23-6.16-1.12-2.06-2.34-2.19-4.84-.4-6.42Z"/>
        <path class="cls-3" d="m314.54,108.91l.5-.31c.14-.09.29-.06.38.09l.48.77c.09.14.05.29-.09.38l-.43.27c-1.34.84-1.56,2.64-.33,4.6,1.18,1.88,2.63,2.26,3.88,1.48,1.27-.79,1.26-2.13.77-5.05-.48-2.68-.82-4.69,1.24-5.97,2.02-1.26,4.1-.48,5.62,1.96,1.65,2.65,1.3,5.1-.74,6.38l-.34.21c-.14.09-.29.06-.38-.09l-.49-.79c-.09-.14-.06-.29.09-.38l.27-.17c1.34-.84,1.69-2.55.44-4.55-1.05-1.68-2.35-2.16-3.65-1.35-1.34.84-1.14,2.11-.63,4.79.48,2.76.69,4.96-1.35,6.24-1.95,1.22-4.23.56-5.89-2.11-1.65-2.65-1.37-5.13.65-6.4Z"/>
        <path class="cls-3" d="m323.86,133.06l1.96-1.88s.06-.08.03-.13l-2.72-5.66c-.03-.06-.08-.06-.12-.06l-2.68.37c-.17.03-.27-.03-.34-.17l-.44-.91c-.08-.17-.01-.32.18-.35l14.82-1.98c.17-.03.27.03.34.16l.58,1.22c.06.13.05.26-.08.37l-10.79,10.36c-.14.14-.3.1-.38-.07l-.44-.91c-.06-.13-.05-.26.08-.37Zm.56-7.8l2.35,4.89c.03.06.08.08.15.02l6.59-6.21c.09-.07.05-.14-.05-.12l-8.95,1.29c-.08.02-.1.07-.08.13Z"/>
        <path class="cls-3" d="m327.01,140.56l13.41-4.71c.16-.06.29,0,.35.17l.31.89c.06.16,0,.29-.17.35l-12.33,4.33c-.06.02-.09.07-.06.13l2.44,6.94c.06.16,0,.29-.17.35l-.72.25c-.16.06-.29,0-.35-.17l-2.88-8.19c-.06-.16,0-.29.17-.35Z"/>
        <path class="cls-3" d="m336.01,154.45l9.68-2.23c.17-.04.29.04.33.21l.21.93c.04.16-.04.29-.21.33l-9.72,2.24c-1.95.45-2.97,2.13-2.5,4.19.47,2.05,2.13,3.12,4.08,2.68l9.72-2.24c.16-.04.29.04.33.21l.21.93c.04.16-.04.29-.21.33l-9.68,2.23c-2.77.64-5.05-.89-5.73-3.83-.67-2.92.7-5.31,3.48-5.95Z"/>
        <path class="cls-3" d="m335.35,172.75l14.13-1.57c.17-.02.28.07.3.24l.54,4.88c.31,2.77-1.05,4.7-3.54,4.98l-6.58.73c-2.49.28-4.24-1.31-4.55-4.08l-.54-4.88c-.02-.17.07-.29.24-.3Zm1.2,1.48l.4,3.63c.2,1.82,1.46,2.85,3.26,2.65l6.18-.69c1.82-.2,2.83-1.46,2.62-3.3l-.4-3.63c0-.06-.05-.1-.12-.09l-11.86,1.32c-.06,0-.1.05-.09.11Z"/>
        <path class="cls-3" d="m342.27,205.46l.76.07c.17.02.26.13.25.3l-.59,6.09c-.02.17-.13.26-.3.25l-.76-.07c-.17-.02-.26-.13-.25-.3l.59-6.09c.02-.17.13-.26.3-.25Z"/>
        <path class="cls-3" d="m333.19,226.34l13.86,3.17c.16.04.24.16.21.33l-.21.92c-.04.17-.16.24-.33.21l-13.86-3.17c-.16-.04-.24-.17-.21-.33l.21-.93c.04-.16.16-.24.33-.21Z"/>
        <path class="cls-3" d="m330.96,235.41l13.51,4.43c.16.05.23.19.18.35l-.3.9c-.05.14-.13.2-.28.24l-13.11,3.16c-.09.02-.1.1,0,.13l10.79,3.53c.16.05.23.18.17.35l-.29.9c-.05.16-.19.23-.35.17l-13.51-4.43c-.16-.05-.23-.19-.17-.35l.29-.9c.05-.14.13-.2.28-.24l13.16-3.17c.09-.02.1-.1,0-.13l-10.83-3.53c-.18-.06-.23-.19-.18-.35l.3-.9c.05-.16.19-.23.35-.18Z"/>
        <path class="cls-3" d="m330.36,265.28c-2.22-1.02-3-3.21-1.96-5.49l1.7-3.72c.03-.06,0-.11-.05-.14l-5.63-2.58c-.15-.07-.2-.21-.13-.36l.4-.86c.07-.15.21-.2.36-.13l12.93,5.93c.15.07.21.21.13.36l-2.29,4.98c-1.03,2.24-3.21,3.05-5.47,2.01Zm.6-1.35c1.55.71,3.06.15,3.75-1.36l1.66-3.62c.03-.06,0-.11-.05-.14l-4.94-2.27c-.06-.03-.11,0-.14.05l-1.66,3.62c-.69,1.51-.16,3.01,1.38,3.72Z"/>
        <path class="cls-3" d="m321.58,268.83l8.5,5.14c.15.09.18.23.1.38l-.49.81c-.09.14-.23.18-.38.09l-8.54-5.17c-1.72-1.04-3.62-.54-4.71,1.27-1.09,1.8-.65,3.72,1.06,4.76l8.54,5.16c.14.09.18.23.09.38l-.49.81c-.09.14-.23.18-.38.09l-8.5-5.15c-2.44-1.48-3-4.16-1.44-6.74,1.55-2.56,4.21-3.33,6.64-1.85Z"/>
        <path class="cls-3" d="m314.05,297.35l-.62-.48c-.13-.1-.15-.25-.05-.38l2.47-3.21c.04-.05.03-.11-.02-.15l-10.34-7.96c-.14-.1-.15-.25-.05-.38l.58-.75c.1-.13.25-.15.38-.05l10.34,7.96s.11.03.15-.02l2.37-3.07c.1-.13.25-.15.38-.05l.62.48c.13.1.15.25.05.38l-5.88,7.63c-.1.13-.25.15-.38.05Z"/>
        <path class="cls-3" d="m301.47,295.57l.43.41c.12.12.12.27,0,.39l-.63.66c-.12.12-.27.12-.39,0l-.37-.35c-1.14-1.09-2.94-.86-4.55.82-1.53,1.6-1.54,3.11-.48,4.13,1.08,1.04,2.37.69,5.09-.5,2.48-1.13,4.34-1.94,6.1-.27,1.72,1.65,1.47,3.86-.51,5.94-2.16,2.26-4.63,2.52-6.37.86l-.29-.28c-.12-.12-.13-.27,0-.39l.64-.67c.11-.12.26-.13.39,0l.23.22c1.14,1.09,2.89,1.01,4.52-.7,1.37-1.43,1.52-2.81.41-3.87-1.14-1.09-2.33-.59-4.81.57-2.56,1.15-4.64,1.89-6.38.23-1.66-1.59-1.58-3.96.59-6.24,2.16-2.26,4.64-2.59,6.37-.95Z"/>
        <path class="cls-3" d="m283.31,312.78l.35.47c.1.13.08.28-.05.38l-.73.54c-.13.1-.28.08-.38-.05l-.3-.4c-.95-1.26-2.77-1.33-4.62.07-1.77,1.33-2.03,2.82-1.14,3.99.9,1.2,2.23,1.07,5.11.33,2.63-.71,4.6-1.22,6.06.72,1.43,1.91.83,4.05-1.46,5.77-2.49,1.88-4.98,1.74-6.42-.18l-.24-.32c-.1-.14-.08-.28.05-.38l.74-.56c.13-.1.28-.08.38.05l.19.25c.95,1.27,2.69,1.47,4.57.05,1.58-1.19,1.95-2.53,1.03-3.76-.95-1.27-2.2-.96-4.83-.22-2.71.72-4.89,1.12-6.33-.8-1.38-1.84-.92-4.17,1.59-6.06,2.49-1.88,5-1.81,6.43.1Z"/>
        <path class="cls-3" d="m260.02,324.16l2.04,1.79s.08.05.13.02l5.41-3.2c.05-.03.05-.08.05-.13l-.6-2.63c-.05-.17,0-.27.14-.35l.87-.52c.16-.1.32-.04.36.16l3.24,14.6c.05.17,0,.27-.13.35l-1.16.69c-.13.08-.25.08-.37-.05l-11.25-9.87c-.15-.13-.13-.3.04-.39l.87-.51c.13-.08.25-.08.37.05Zm7.82-.12l-4.67,2.76c-.05.03-.07.09,0,.15l6.75,6.03c.07.08.14.04.11-.06l-2.05-8.81c-.02-.08-.08-.1-.14-.06Z"/>
        <path class="cls-3" d="m252.85,327.93l5.85,12.95c.07.15.02.29-.14.36l-.86.39c-.16.07-.29.02-.36-.14l-5.38-11.91c-.03-.06-.08-.08-.14-.05l-6.71,3.03c-.15.07-.29.02-.36-.14l-.31-.69c-.07-.15-.02-.29.14-.36l7.91-3.58c.15-.07.29-.02.36.14Z"/>
        <path class="cls-3" d="m239.73,338.12l3.05,9.46c.05.16-.02.29-.18.35l-.91.29c-.16.05-.29-.02-.34-.18l-3.06-9.49c-.62-1.91-2.38-2.78-4.39-2.13-2.01.65-2.93,2.39-2.31,4.3l3.06,9.49c.05.16-.02.29-.18.35l-.9.29c-.16.05-.29-.02-.35-.18l-3.05-9.45c-.88-2.71.46-5.11,3.32-6.04,2.85-.92,5.36.24,6.23,2.95Z"/>
        <path class="cls-3" d="m221.53,339l2.77,13.94c.03.17-.05.29-.22.32l-4.82.96c-2.73.54-4.77-.64-5.26-3.1l-1.29-6.49c-.49-2.46.95-4.34,3.67-4.88l4.82-.96c.17-.03.29.05.32.22Zm-1.37,1.33l-3.58.71c-1.8.36-2.71,1.7-2.36,3.48l1.21,6.1c.36,1.8,1.7,2.69,3.52,2.33l3.58-.71c.06-.01.1-.06.08-.13l-2.33-11.71c-.01-.06-.06-.1-.13-.08Z"/>
      </g>
      <g>
        <path class="cls-1" d="m187.72,10.39c2.32,0,4.62.06,6.91.14.11-.25.22-.51.36-.75.69-1.17,1.36-2.28,1.98-3.38-3.07-.15-6.15-.23-9.25-.23C84.21,6.17,0,90.39,0,193.9c0,94.93,70.83,173.61,162.41,186.01-.45-1.48-.83-2.97-1.19-4.43C72.55,362.6,4.22,286.09,4.22,193.9,4.22,92.71,86.54,10.39,187.72,10.39Z"/>
        <path class="cls-2" d="m229.01,10.76c-.71,1.3-1.45,2.58-2.25,3.83,82.49,17.94,144.47,91.52,144.47,179.31,0,98.66-78.26,179.36-175.95,183.34.14,1.36.03,2.8-.24,4.23,100.13-3.86,180.41-86.51,180.41-187.57,0-89.33-62.72-164.28-146.44-183.14Z"/>
      </g>
      <g>
        <path class="cls-1" d="m50.86,193.9c0-59.14,37.71-109.63,90.35-128.71.16-.82.34-1.62.54-2.41-54.1,19.02-93,70.6-93,131.12,0,67.26,48.05,123.44,111.61,136.2-.01-.72,0-1.43.05-2.14-62.41-12.7-109.55-67.95-109.55-134.06Z"/>
        <path class="cls-2" d="m201.5,55.61c-.28.68-.74,1.36-1.32,2.01,69.65,6.32,124.4,65.01,124.4,136.27,0,64.4-44.74,118.5-104.75,133,.07.71.07,1.45-.04,2.18,61.21-14.53,106.9-69.59,106.9-135.18,0-71.98-55.01-131.35-125.2-138.29Z"/>
      </g>
      <g>
        <g>
          <path class="cls-3" d="m228.66,195.88c-.26,1.35-.86,2.61-1.57,3.82-1.65,2.84-2.85,5.89-3.82,9.01-.91,2.96-.55,5.72,1.35,8.34,2.68,3.7,2.28,5.36-1.62,7.72-2.11,1.28-4.26,2.52-6.69,3.13-3.25.81-6.03.28-8.23-2.53-1.44-1.83-3.15-3.45-4.72-5.17-1.2-1.31-2.07-1.06-2.9.44-1.01,1.82-1.72,3.76-2.44,5.7-2.41,6.42-6.19,8.77-12.77,6.9-5.4-1.53-10.32-1.12-15.35,1.11-3.93,1.74-7.86.9-11.65-.73-1.72-.74-2.72-2.21-3.21-3.91-1.88-6.54-4.07-12.99-6.02-19.51-1.35-4.5-.28-7.09,3.8-9.45,6.7-3.88,14.05-5.78,21.78-5.98,3.06-.08,5.69,1.31,7.92,3.38.93.86,1.75,1.84,2.62,2.76,2.18,2.32,3.5,2.6,6.36,1.09,3.25-1.71,5.56-4.55,8.13-7.06,2.77-2.71,5.62-5.32,8.58-7.82,3.09-2.62,6.74-3.66,10.65-4.17,7.02-.91,11.49,7.78,9.8,12.94Z"/>
          <path class="cls-3" d="m163.83,156.48c2.52.48,4.52,1.88,6.42,3.52,3.37,2.92,6.68,2.83,10.02-.14,2.9-2.57,4.91-5.98,7.99-8.4,3.49-2.74,7.16-4.79,11.77-4.91,7.91-.21,12.82,6.81,9.59,14.02-1.28,2.86-2.92,5.55-4.27,8.37-1.44,3.01-1.22,3.87,1.14,6.15.53.51,1.08,1.01,1.51,1.6.9,1.21.98,2.52-.08,3.66-1.82,1.97-3.84,3.74-6.35,4.78-4.23,1.76-8.1,1.06-11.5-2.03-1.28-1.17-2.5-2.4-3.73-3.63-.95-.96-1.59-.98-2.16.42-1.13,2.77-1.85,5.7-3.38,8.33-2.09,3.57-5.14,5.39-9.16,4.68-6.13-1.09-12.26-1.67-18.48-1.73-4.68-.05-8.08-2.54-10.2-6.65-2.85-5.54-4.87-11.41-6.55-17.39-.95-3.39-.03-5.22,3.24-6.5,6.68-2.63,13.54-4.54,20.8-4.52.53,0,1.07.01,1.6.08.59.07,1.18.21,1.77.32Z"/>
          <path class="cls-3" d="m157.82,118.12c2.01.58,3.74,1.71,5.28,3.13,1.13,1.04,2.21,2.13,3.31,3.2,3.31,3.23,7.25,3.06,10.18-.59,4.07-5.06,9.64-7.49,15.67-8.98,2.98-.73,5.93-.24,7.89,2.53,2.01,2.83,2.07,5.81.38,8.86-.95,1.71-2.26,3.14-3.53,4.6-2.29,2.65-2.54,5.4-.94,8.51,1.56,3.03,1.15,4.84-1.38,7.11-2.85,2.55-6.15,3.68-9.98,3-1.51-.27-2.7-.9-3.55-2.31-.93-1.53-2.06-2.95-3.21-4.34-1.82-2.19-2.73-2.03-3.89.62-.51,1.16-.92,2.37-1.36,3.55-1.65,4.39-4.07,5.9-8.53,4.59-3.66-1.08-7.25-1.35-11.02-1.16-5.07.25-8.6-2.1-10.37-6.87-1.95-5.25-3.59-10.63-4.43-16.2-.62-4.14.38-5.67,4.19-7.28,4.92-2.08,9.99-2.82,15.3-1.98Z"/>
          <path class="cls-3" d="m169.65,300.58c.21-4.95.03-11.02,1.1-17.04.61-3.44,2.55-5.48,5.89-6.27,3.3-.78,6.54-1.89,10.03-1.57,4.89.44,8.59,2.37,10.61,7.2,2.35,5.62,3.87,5.91,8.61,2.01,1.7-1.4,3.21-3.01,4.84-4.49,3.13-2.83,6.73-4.58,11.03-4.53,2.87.03,5.47.84,6.89,3.62,1.51,2.96,1.36,5.94-.31,8.79-.85,1.46-2.15,2.53-3.49,3.55-1.01.77-2.02,1.53-2.99,2.36-3.04,2.61-3.44,5.08-1.44,8.48,2.09,3.55,1.74,5.51-1.5,8.09-1.1.87-2.26,1.68-3.57,2.2-3.66,1.46-6.2.43-7.79-3.19-.83-1.89-1.49-3.87-2.36-5.74-1.12-2.4-1.83-2.48-3.38-.26-1.3,1.86-2.44,3.83-3.53,5.81-1.76,3.19-4.62,4.48-7.88,2.94-4.83-2.28-9.81-3.72-15.13-4.27-3.83-.39-5.37-2.48-5.63-7.69Z"/>
          <path class="cls-3" d="m159.1,82.9c3.45.44,6.14,2.79,7.6,6.86,1.37,3.82,2.87,4.3,6.59,2.53,2.95-1.41,5.7-3.21,8.83-4.27,2.79-.95,5.6-1.3,8.42-.19,5.73,2.26,7.66,8.89,4.1,13.95-1.63,2.32-3.86,3.87-6.33,5.1-1.7.85-2.45,2.15-2.39,4.02.11,3.64-2.43,5.89-6.1,5.42-4.05-.52-6.36-3.03-7.76-6.66-1.02-2.66-1.06-2.63-3.25-.77-1.88,1.6-3.67,3.31-5.88,4.49-1.85.99-3.69,1.22-5.49,0-3.72-2.54-8.03-3.56-12.27-4.74-2.28-.63-3.91-1.76-4.24-4.21-.78-5.83-1.51-11.65.86-17.36,1.62-3.9,3.55-5.4,7.73-5.28,2.94.09,5.87.33,9.56,1.11Z"/>
          <path class="cls-3" d="m215.14,322.22c.11,3.23-1.58,6.37-4.21,9.12-.37.38-.78.76-1.23,1.02-3.02,1.73-4.35,4.15-4.02,7.76.26,2.84-.87,3.95-3.41,4.61-2.32.6-3.72,0-5.13-2.38-1.19-2.01-2.22-4.1-3.36-6.14-1.08-1.93-2.05-2.04-3.52-.42-1.05,1.15-1.67,2.56-2.3,3.96-1.85,4.08-4.83,4.93-8.3,2.19-2.78-2.2-5.56-4.31-8.84-5.78-2.31-1.03-3.36-3.2-3.42-5.71-.1-3.89.36-7.73,1.23-11.51,1.06-4.62,4.07-6.96,8.85-7.11,2.55-.08,5.07-.05,7.53.66,3.09.9,4.83,2.94,5.06,6.2.07,1,.16,2,.33,2.98.29,1.74,1.14,2.21,2.85,1.54,1.64-.65,2.92-1.87,4.2-3.02,2.36-2.12,4.89-3.92,8.06-4.61,4.53-.99,9,1.77,9.62,6.64Z"/>
          <path class="cls-3" d="m162.07,53.64c3.65,1.08,7.1,3.39,8.81,7.71.77,1.96,2.25,2.49,4.12,2.48,2.04,0,3.93-.72,5.84-1.29,2-.6,4.02-.94,6.12-.79,3.62.26,6.37,2.29,7.02,5.24.66,2.98-.87,6.1-3.93,7.85-1.5.86-3.08,1.59-4.64,2.35-1.53.75-2.5,1.87-2.92,3.58-.55,2.28-1.11,4.77-4.01,5.12-3.04.36-5.21-1.19-6.84-3.65-.91-1.37-1.29-2.93-1.67-4.48-.32-1.29-.89-1.29-1.81-.62-1.24.9-2.46,1.84-3.77,2.63-1.66,1.01-3.31.79-4.88-.31-3.06-2.14-6.12-4.27-9.19-6.39-1.11-.77-2.04-1.72-2.87-2.78-1.1-1.4-1.26-2.96-.38-4.5,1.6-2.79,2.75-5.77,4.07-8.68,1.07-2.36,2.88-4.16,5.89-4.01,1.47.07,2.94.04,5.04.55Z"/>
          <path class="cls-3" d="m184.77,365.74c-.05-1.11-.44-2.56-1.14-3.97-.72-1.44-1.53-1.79-2.72-.59-.99.99-1.95,2.01-2.89,3.05-1.51,1.65-2.86,1.79-4.47.26-1.78-1.7-3.44-3.49-5.63-4.75-1.76-1.01-2.04-2.85-1.29-4.59,1.33-3.09,2.17-6.28,2.85-9.55.56-2.7,2.02-3.37,4.77-2.82,4.55.91,7.64,3.19,8.36,8.13.35,2.37.84,2.48,3.12,1.61,2-.76,3.76-2.02,5.85-2.57,2.93-.76,5.27-.06,6.3,2,1.08,2.14.35,4.72-1.86,6.57-.46.38-.93.79-1.45,1.06-2.9,1.52-4.97,3.51-4.77,7.15.07,1.16-.6,2.16-1.82,2.63-2.03.79-2.94-.1-3.21-3.61Z"/>
          <path class="cls-3" d="m184.48,41.22c-.38,1.07-.76,2.14-1.13,3.21-.49,1.44.13,1.86,1.47,1.54,1.17-.28,2.32-.64,3.49-.91,1.6-.37,3.16-.35,4.69.38,3.38,1.62,3.83,5.99.79,8.18-.69.5-1.52,1.01-2.33,1.1-3.42.41-6,1.74-7.26,5.23-.44,1.21-1.79,1.69-3.05.98-1.37-.77-.51-1.79-.13-2.77.58-1.49,1.06-3.02.93-4.67-.22-2.78-.96-3.32-3.57-2.52-.76.24-1.52.5-2.29.72-1.92.54-3.46-.06-4.46-1.75-1.53-2.6-2.58-5.41-3.47-8.29-.42-1.37-.04-2.64.85-3.75,1.54-1.93,3.19-3.78,5.05-5.41,2.36-2.06,4.64-2.05,7.02-.02,2.68,2.29,4.58,4.92,3.42,8.74Z"/>
          <path class="cls-3" d="m194.28,34.46c.19-.82.35-1.34.43-1.86.26-1.56-.55-2.06-1.96-1.95-.13.01-.26.05-.39.08q-4.41.96-6.52-2.98c-.44-.82-.96-1.61-1.36-2.45-1.43-3.04-.82-5.02,2.07-6.76.97-.58,1.99-1.09,3-1.6,2.86-1.44,4.74-1.2,6.94.85,1.98,1.85,2.32,3.68,1.2,6.54-.74,1.88-.55,2.13,1.39,1.95.6-.06,1.2-.16,1.79-.12,2.39.14,4.18,1.7,4.3,3.7.12,2.03-1.64,4.33-3.9,4.33-2.79,0-4.17,1.2-4.77,3.76-.19.81-.83,1.47-1.79,1.21-.9-.24-.92-1.04-.8-1.81.16-1.05.03-2.15.37-2.86Z"/>
          <path class="cls-3" d="m168.46,378.44c.19-2.61.52-5.26,1.51-7.75.47-1.19,1.58-1.54,2.85-1.23,2.33.56,3.93,1.89,4.55,4.27.17.64.38,1.28.61,1.9.36.99,1.01,1.16,1.88.62.11-.07.23-.13.34-.2,1.34-.85,2.73-1.71,4.05-.05.96,1.2.45,2.59-1.44,3.93-.95.68-1.19,1.54-1.1,2.6.07.86.25,1.73-.07,2.57-.35.93-.91,1.65-2,1.69-1.14.04-1.68-.68-1.92-1.67-.25-1.03-.43-2.09-.66-3.13-.24-1.12-.79-1.36-1.62-.48-.94.99-1.93,2.12-3.41,1.36-1.75-.9-3.07-2.31-3.58-4.42Z"/>
          <path class="cls-3" d="m202.58,10.56c1.08-2.31,2.42-4.19,4.63-5.27,1.08-.53,2.08-.28,2.9.61.8.87,1.48,1.91,1.2,3.06-.6,2.46-.46,4.07,2.7,4.37,1.45.14,1.78,1.72.92,3.04-.42.65-1.07,1.19-1.69,1.68-1.26.99-2.6,1.86-3.31,3.4-.33.72-1.02,1.09-1.84.74-.75-.32-.82-.98-.69-1.69.02-.13.06-.26.08-.39.6-3.59.62-3.62-2.52-5.34-1.76-.96-2.17-2.54-2.37-4.22Z"/>
          <path class="cls-3" d="m168.16,395.56c.25-1.37.4-3.19.95-4.88.45-1.38,1.67-1.63,2.93-.82.83.53,1.21,1.4,1.54,2.28.37.99.99,1.37,2.02.92.92-.4,1.84-.51,2.55.36.78.96.35,1.92-.2,2.78-.86,1.36-1.69,2.69-1.61,4.41.03.79-.48,1.42-1.37,1.42-.92,0-1.2-.68-1.34-1.46-.09-.52-.15-1.06-.32-1.56-.36-1.07-.93-1.71-2.24-1.21-1.69.65-2.49-.26-2.9-2.25Z"/>
          <path class="cls-3" d="m216.56,3.02c.31-1.46,2.55-3.12,4-3.02,1.74.12,2.16,1.33,2.13,2.8-.02.86.45,1.31,1.14,1.7,1.55.87,1.54,2.02.47,3.29-.17.2-.34.42-.54.59-.95.78-1.74,2.18-3.16,1.72-1.46-.48-1.29-2.02-1.29-3.27,0-.87-.26-1.33-1.16-1.54-1.21-.29-1.71-1.17-1.6-2.27Z"/>
        </g>
        <path class="cls-2" d="m294.92,137.51c-11.15-23.96-40.47-35.89-75.37-34.07-.58-5.67-2.84-9.53-2.84-9.53l-14.76,11.73c-.62.5-.44,1.49.32,1.72l16.54,5.22c.74-2.65.95-5.17.86-7.47,27.54.28,50.18,10.74,59.23,30.19,15.18,32.63-13.61,78.21-64.31,101.81-50.7,23.59-104.11,16.26-119.3-16.37-5.33-11.45-5.24-24.49-.69-37.61-8.59,17.85-15.2,35.69-7.94,51.29,17.22,37.02,77.81,45.33,135.32,18.57,57.51-26.76,90.17-78.46,72.95-115.48Z"/>
      </g>
    </g>
  </g>
</svg>