<?xml version="1.0" encoding="UTF-8"?>
<svg id="Capa_2" data-name="Capa 2" xmlns="http://www.w3.org/2000/svg" viewBox="0 0 619.34 384.84">
  <defs>
    <style>
      .cls-1 {
        fill: #fff;
        stroke-width: 0px;
      }
    </style>
  </defs>
  <g id="Capa_1-2" data-name="Capa 1">
    <g>
      <g>
        <path class="cls-1" d="m269.94,39.35v129.76h-17.02V49.98c0-5.87,4.76-10.63,10.63-10.63h6.39Z"/>
        <path class="cls-1" d="m297.55,65.88v14.57c1.33-5.32,3.99-9.43,7.98-12.35,3.99-2.92,8.79-4.37,14.42-4.37,3.89,0,7.46.61,10.74,1.84,3.27,1.23,6.11,2.94,8.51,5.14,2.4,2.2,4.27,4.88,5.6,8.05,1.33,3.17,1.99,6.65,1.99,10.43v79.91h-17.02v-77.46c0-6.24-1.48-11.4-4.45-15.49-2.97-4.09-6.95-6.14-11.96-6.14-2.05,0-4.01.56-5.9,1.69-1.89,1.12-3.58,2.66-5.06,4.6-1.48,1.95-2.66,4.14-3.53,6.6-.87,2.45-1.3,5.06-1.3,7.82v78.38h-16.87v-98.01l16.87-5.22Z"/>
        <path class="cls-1" d="m368.57,65.88l3.53,13.34c2.05-4.91,4.93-8.72,8.67-11.43,3.73-2.71,8.92-4.07,15.57-4.07,4.81,0,9.07,1.61,12.81,4.83,3.73,3.22,6.85,7.62,9.36,13.19,2.5,5.57,4.42,12.04,5.75,19.4,1.33,7.36,1.99,15.19,1.99,23.47,0,6.04-.74,11.86-2.22,17.49-1.48,5.62-3.55,10.64-6.21,15.03-2.66,4.4-5.88,7.92-9.66,10.58-3.78,2.66-8.03,3.99-12.73,3.99-5.93,0-10.56-1.51-13.88-4.52-3.32-3.01-5.9-7.29-7.75-12.81v56.3h-3.78c-7.32,0-13.25-5.93-13.25-13.25v-126.34l11.81-5.22Zm5.22,72.24c0,2.66.56,5.57,1.69,8.74s2.63,6.16,4.52,8.97c1.89,2.81,4.04,5.16,6.44,7.06,2.4,1.89,4.88,2.84,7.44,2.84s4.81-.87,6.75-2.61c1.94-1.74,3.55-4.19,4.83-7.36,1.28-3.17,2.22-6.95,2.84-11.35.61-4.4.92-9.25.92-14.57,0-7.87-.56-15.44-1.69-22.7-1.13-7.26-2.68-13.65-4.68-19.17-2-5.52-4.32-9.92-6.98-13.19-2.66-3.27-5.52-4.91-8.59-4.91-1.74,0-3.43.87-5.06,2.61-1.64,1.74-3.07,3.81-4.3,6.21-1.23,2.4-2.22,4.94-2.99,7.59-.77,2.66-1.15,4.91-1.15,6.75v45.1Z"/>
        <path class="cls-1" d="m449.7,65.27v76.39c0,3.17.38,6.08,1.15,8.74.77,2.66,1.89,4.98,3.37,6.98,1.48,1.99,3.22,3.55,5.22,4.68,1.99,1.13,4.22,1.69,6.67,1.69s4.5-.54,6.44-1.61c1.94-1.07,3.6-2.53,4.98-4.37,1.38-1.84,2.45-3.96,3.22-6.37.77-2.4,1.15-4.93,1.15-7.59v-73.17l17.02-5.37v103.84h-13.5l-3.53-13.34c-1.33,4.3-4.07,7.72-8.21,10.28-4.14,2.56-8.87,3.83-14.19,3.83-3.78,0-7.29-.61-10.51-1.84-3.22-1.23-6.04-2.99-8.44-5.29-2.4-2.3-4.3-5.04-5.68-8.21-1.38-3.17-2.07-6.75-2.07-10.74v-73.17l16.87-5.37Z"/>
        <path class="cls-1" d="m531.15,65.88h13.5v3.68h-13.5v78.53c0,2.15.43,4.32,1.3,6.52.87,2.2,2,4.19,3.37,5.98,1.38,1.79,2.97,3.22,4.75,4.3,1.79,1.07,3.66,1.61,5.6,1.61,2.55,0,5.37-1.23,8.44-3.68l1.53,3.68c-2.25,2.05-4.68,3.42-7.29,4.14-2.61.71-5.24,1.07-7.9,1.07-3.89,0-7.49-.64-10.81-1.92-3.33-1.28-6.16-3.07-8.51-5.37-2.35-2.3-4.19-5.03-5.52-8.2-1.33-3.17-1.99-6.7-1.99-10.58v-76.08h-7.98v-3.68c14.42,0,22.75-8.38,25-25.16v25.16Z"/>
        <path class="cls-1" d="m609.53,80.91c-2.25-3.27-4.73-5.9-7.44-7.9-2.71-1.99-5.8-2.99-9.28-2.99-2.25,0-4.37.46-6.37,1.38-1.99.92-3.76,2.17-5.29,3.76-1.53,1.59-2.74,3.4-3.6,5.45-.87,2.05-1.3,4.2-1.3,6.44,0,4.3.79,8,2.38,11.12,1.58,3.12,4.12,5.65,7.59,7.59,3.88,2.25,7.79,4.4,11.73,6.44,3.94,2.05,7.49,4.35,10.66,6.9,3.17,2.56,5.75,5.55,7.75,8.97,1.99,3.43,2.99,7.65,2.99,12.65,0,3.89-.69,7.7-2.07,11.43-1.38,3.73-3.48,7.06-6.29,9.97-2.81,2.91-6.37,5.24-10.66,6.98s-9.41,2.61-15.34,2.61c-3.37,0-6.44-.49-9.2-1.46-2.76-.97-5.21-2.3-7.36-3.99-2.15-1.69-4.09-3.65-5.83-5.9-1.74-2.25-3.33-4.7-4.75-7.36l5.98-3.83c.82,1.94,1.92,3.89,3.3,5.83,1.38,1.94,2.94,3.68,4.68,5.21,1.74,1.53,3.6,2.79,5.6,3.76,1.99.97,4.07,1.46,6.21,1.46,3.17,0,5.93-.51,8.28-1.53,2.35-1.02,4.3-2.4,5.83-4.14,1.53-1.74,2.66-3.68,3.37-5.83.71-2.15,1.07-4.4,1.07-6.75,0-4.3-1.05-7.85-3.15-10.66-2.1-2.81-4.73-5.32-7.9-7.52-3.17-2.2-6.62-4.27-10.35-6.21-3.73-1.94-7.19-4.22-10.35-6.82-3.17-2.61-5.8-5.72-7.9-9.36-2.1-3.63-3.14-8.21-3.14-13.73,0-3.78.74-7.44,2.22-10.97,1.48-3.53,3.5-6.65,6.06-9.36,2.56-2.71,5.55-4.86,8.97-6.44,3.42-1.58,7.08-2.38,10.97-2.38,6.75,0,12.17,1,16.26,2.99,4.09,2,7.62,5.4,10.58,10.2l-4.91,3.99Z"/>
      </g>
      <g>
        <path class="cls-1" d="m302.25,236.93c-2.77-4.33-5.75-7.79-8.94-10.38-3.19-2.59-6.59-3.88-10.2-3.88s-7.07.69-10.02,2.08c-2.95,1.39-5.42,3.25-7.4,5.6-1.99,2.35-3.52,5.12-4.6,8.31-1.09,3.19-1.63,6.53-1.63,10.02,0,5.54,1.14,10.53,3.43,14.99,2.29,4.45,5.24,8.73,8.85,12.82,3.61,4.09,7.7,8.1,12.28,12.01,4.57,3.91,9.15,8.03,13.72,12.37,4.57,4.45,7.85,9.75,9.84,15.89,1.99,6.14,2.98,12.16,2.98,18.05,0,11.8-3.58,21.12-10.74,27.99-7.16,6.86-17.12,10.29-29.88,10.29-7.46,0-13.99-1.87-19.59-5.6-5.6-3.73-9.78-9.21-12.55-16.43l7.22-4.51c.72,2.53,1.83,4.97,3.34,7.31,1.5,2.35,3.34,4.42,5.51,6.23,2.17,1.81,4.57,3.25,7.22,4.33,2.64,1.08,5.42,1.63,8.3,1.63s5.45-.69,8.03-2.08c2.59-1.38,4.84-3.43,6.77-6.14,1.92-2.71,3.46-6.05,4.6-10.02,1.14-3.97,1.72-8.49,1.72-13.54s-.99-10.08-2.98-15.08c-1.99-4.99-5.33-9.66-10.02-13.99-4.57-4.09-8.97-8.06-13.18-11.92-4.21-3.85-8-7.79-11.37-11.83-3.37-4.03-6.05-8.39-8.03-13.09-1.99-4.69-2.98-9.93-2.98-15.71,0-5.17.78-10.02,2.35-14.53,1.56-4.51,3.94-8.43,7.13-11.74,3.19-3.31,7.19-5.93,12.01-7.85,4.81-1.92,10.47-2.89,16.97-2.89s12.03,1.51,16.25,4.51c4.21,3.01,8.06,7.04,11.55,12.1l-5.96,4.69Z"/>
        <path class="cls-1" d="m326.44,262.21c8.06-10.83,20.1-16.25,36.11-16.25,5.3,0,10.05.75,14.26,2.26,4.21,1.51,7.77,3.55,10.65,6.14,2.89,2.59,5.11,5.6,6.68,9.03,1.56,3.43,2.35,7.07,2.35,10.92v79.98c0,6.62,1.26,11.8,3.79,15.53h-19.68c-1.56-2.28-2.68-4.69-3.34-7.22-.66-2.53-.99-5.24-.99-8.12-.97,2.41-2.08,4.76-3.34,7.04-1.26,2.29-2.92,4.27-4.96,5.96-2.05,1.69-4.49,3.04-7.31,4.06-2.83,1.02-6.23,1.54-10.2,1.54-6.02,0-11.05-.9-15.08-2.71-4.04-1.81-7.29-4.27-9.75-7.4-2.47-3.13-4.24-6.8-5.33-11.01-1.09-4.21-1.63-8.79-1.63-13.72,0-8.42,3.16-15.65,9.48-21.67,6.32-6.02,15.92-10.41,28.8-13.18,5.18-1.08,9.42-2.92,12.73-5.51,3.31-2.59,5.57-6.41,6.77-11.46v-9.21c0-2.64-.6-5.39-1.81-8.21-1.2-2.83-2.83-5.42-4.87-7.76-2.05-2.35-4.45-4.27-7.22-5.78-2.77-1.5-5.72-2.25-8.85-2.25-7.94,0-14.98,3.97-21.12,11.92l-6.14-2.89Zm50.01,33.22c-.48,3.61-1.9,6.5-4.24,8.67-2.35,2.17-5.45,3.91-9.3,5.24-16.25,5.3-24.38,13.6-24.38,24.92,0,3.85.3,7.77.9,11.74.6,3.97,1.65,7.52,3.16,10.65,1.5,3.13,3.49,5.69,5.96,7.67,2.46,1.99,5.51,2.98,9.12,2.98,4.21,0,7.82-2.2,10.83-6.59,3.01-4.39,5.42-9.78,7.22-16.16l.72-6.32v-42.79Z"/>
        <path class="cls-1" d="m428.27,214v155.81h-5.16c-8.22,0-14.88-6.66-14.88-14.88v-134.8l20.04-6.14Z"/>
        <path class="cls-1" d="m460.04,247.77v89.91c0,3.73.45,7.16,1.35,10.29.9,3.13,2.22,5.87,3.97,8.22,1.74,2.35,3.79,4.18,6.14,5.51,2.35,1.33,4.97,1.99,7.85,1.99s5.3-.63,7.58-1.9c2.28-1.26,4.24-2.98,5.87-5.15,1.63-2.17,2.89-4.66,3.79-7.49.9-2.83,1.35-5.81,1.35-8.94v-86.12l20.04-6.32v122.23h-15.89l-4.15-15.71c-1.56,5.05-4.78,9.09-9.66,12.1-4.88,3.01-10.44,4.51-16.7,4.51-4.45,0-8.58-.72-12.37-2.17-3.79-1.44-7.1-3.52-9.93-6.23-2.83-2.71-5.06-5.93-6.68-9.66-1.62-3.73-2.44-7.94-2.44-12.64v-86.12l19.86-6.32Z"/>
        <path class="cls-1" d="m607.91,214v155.99h-15.89l-4.15-14.26c-1.2,2.41-2.53,4.66-3.97,6.77-1.44,2.11-3.22,3.94-5.33,5.51-2.11,1.56-4.54,2.8-7.31,3.7-2.77.9-6.02,1.35-9.75,1.35-5.42,0-10.29-1.84-14.62-5.51-4.33-3.67-8.03-8.76-11.1-15.26-3.07-6.5-5.45-14.18-7.13-23.02-1.69-8.85-2.53-18.39-2.53-28.62,0-7.22.75-14.14,2.26-20.76,1.5-6.62,3.7-12.43,6.59-17.42,2.89-4.99,6.44-8.99,10.65-12.01,4.21-3.01,9.03-4.51,14.44-4.51,6.86,0,12.58,1.53,17.15,4.6,4.57,3.07,8.13,8.1,10.65,15.08v-31.74c0-8.18,5.34-15.39,13.15-17.79l6.89-2.11Zm-20.04,70.96c0-2.65-.54-5.81-1.62-9.48-1.09-3.67-2.59-7.19-4.51-10.56-1.93-3.37-4.22-6.2-6.86-8.49-2.65-2.28-5.54-3.43-8.67-3.43-6.74,0-11.86,3.4-15.35,10.2-3.49,6.8-5.24,16.76-5.24,29.88,0,8.55.66,17.15,1.99,25.82,1.32,8.67,3.16,16.46,5.51,23.38,2.35,6.92,5.15,12.58,8.4,16.97,3.25,4.4,6.74,6.59,10.47,6.59,1.81,0,3.64-.9,5.51-2.71,1.87-1.8,3.58-4.06,5.15-6.77,1.56-2.71,2.83-5.56,3.79-8.58.96-3.01,1.44-5.78,1.44-8.31v-54.52Z"/>
      </g>
      <g>
        <g>
          <path class="cls-1" d="m138.92,187.5c-.25,1.29-.83,2.49-1.51,3.66-1.58,2.72-2.73,5.64-3.65,8.63-.88,2.83-.52,5.48,1.29,7.99,2.57,3.55,2.18,5.13-1.55,7.39-2.02,1.22-4.07,2.41-6.4,2.99-3.11.77-5.77.27-7.88-2.42-1.38-1.75-3.01-3.3-4.52-4.95-1.15-1.26-1.98-1.01-2.78.42-.97,1.74-1.64,3.6-2.34,5.45-2.3,6.15-5.92,8.39-12.22,6.61-5.17-1.47-9.88-1.07-14.69,1.06-3.76,1.66-7.52.86-11.15-.7-1.65-.71-2.6-2.12-3.07-3.74-1.8-6.26-3.9-12.43-5.76-18.67-1.29-4.31-.27-6.79,3.64-9.05,6.42-3.72,13.45-5.53,20.85-5.73,2.93-.08,5.45,1.25,7.58,3.23.89.83,1.67,1.76,2.5,2.64,2.08,2.22,3.35,2.49,6.09,1.04,3.11-1.64,5.32-4.36,7.78-6.76,2.66-2.59,5.38-5.09,8.21-7.49,2.96-2.51,6.46-3.5,10.2-3.99,6.72-.87,11,7.45,9.38,12.38Z"/>
          <path class="cls-1" d="m76.86,149.79c2.41.46,4.33,1.8,6.14,3.37,3.23,2.8,6.39,2.71,9.59-.13,2.78-2.46,4.7-5.72,7.65-8.04,3.34-2.62,6.86-4.58,11.27-4.7,7.57-.2,12.27,6.52,9.18,13.42-1.23,2.73-2.79,5.31-4.09,8.02-1.38,2.88-1.17,3.71,1.09,5.89.51.49,1.03.97,1.45,1.53.86,1.16.93,2.41-.07,3.5-1.74,1.88-3.68,3.58-6.07,4.58-4.05,1.68-7.76,1.02-11.01-1.94-1.23-1.12-2.4-2.3-3.57-3.47-.91-.92-1.52-.94-2.07.4-1.08,2.66-1.77,5.46-3.24,7.97-2,3.42-4.92,5.16-8.77,4.48-5.87-1.04-11.74-1.6-17.69-1.66-4.48-.05-7.74-2.44-9.76-6.36-2.73-5.3-4.66-10.93-6.27-16.65-.91-3.25-.03-5,3.1-6.22,6.39-2.51,12.96-4.35,19.91-4.33.51,0,1.02.01,1.53.07.57.07,1.13.2,1.7.3Z"/>
          <path class="cls-1" d="m71.11,113.06c1.93.56,3.58,1.64,5.05,2.99,1.08.99,2.12,2.04,3.17,3.07,3.17,3.09,6.94,2.93,9.74-.56,3.89-4.84,9.22-7.17,15-8.59,2.85-.7,5.68-.23,7.56,2.42,1.93,2.71,1.98,5.56.36,8.48-.91,1.64-2.17,3.01-3.38,4.4-2.2,2.54-2.43,5.17-.9,8.14,1.49,2.9,1.1,4.64-1.32,6.81-2.73,2.44-5.89,3.52-9.56,2.87-1.44-.26-2.58-.86-3.4-2.21-.89-1.47-1.97-2.83-3.08-4.15-1.74-2.1-2.61-1.95-3.72.59-.48,1.11-.88,2.26-1.3,3.4-1.58,4.2-3.9,5.65-8.17,4.4-3.5-1.03-6.94-1.29-10.55-1.11-4.85.24-8.23-2.01-9.93-6.58-1.87-5.03-3.44-10.18-4.24-15.51-.59-3.96.36-5.43,4.01-6.97,4.71-1.99,9.56-2.7,14.65-1.89Z"/>
          <path class="cls-1" d="m82.43,287.72c.2-4.73.03-10.55,1.05-16.31.58-3.29,2.44-5.25,5.64-6,3.16-.74,6.26-1.81,9.6-1.5,4.68.43,8.22,2.27,10.15,6.89,2.25,5.38,3.71,5.65,8.24,1.92,1.62-1.34,3.07-2.89,4.64-4.3,2.99-2.71,6.45-4.39,10.55-4.34,2.75.03,5.23.8,6.6,3.46,1.45,2.83,1.3,5.69-.3,8.42-.82,1.4-2.06,2.43-3.34,3.4-.97.73-1.94,1.47-2.86,2.26-2.91,2.49-3.29,4.86-1.38,8.11,2,3.4,1.67,5.28-1.44,7.74-1.05.84-2.16,1.61-3.42,2.11-3.5,1.4-5.94.41-7.46-3.05-.8-1.81-1.42-3.7-2.26-5.49-1.07-2.3-1.75-2.37-3.24-.25-1.24,1.78-2.33,3.67-3.38,5.57-1.68,3.06-4.42,4.29-7.54,2.82-4.62-2.18-9.39-3.56-14.48-4.08-3.67-.38-5.14-2.38-5.39-7.36Z"/>
          <path class="cls-1" d="m72.33,79.35c3.3.42,5.88,2.67,7.28,6.57,1.31,3.66,2.75,4.12,6.31,2.42,2.82-1.35,5.46-3.08,8.45-4.09,2.67-.91,5.36-1.24,8.06-.18,5.49,2.16,7.33,8.51,3.93,13.35-1.56,2.22-3.69,3.7-6.06,4.88-1.63.81-2.34,2.06-2.29,3.85.11,3.49-2.33,5.64-5.84,5.19-3.88-.5-6.09-2.9-7.42-6.38-.98-2.55-1.02-2.52-3.11-.74-1.8,1.53-3.52,3.17-5.63,4.3-1.77.95-3.53,1.17-5.26,0-3.56-2.43-7.69-3.41-11.74-4.54-2.18-.6-3.75-1.68-4.06-4.03-.75-5.58-1.45-11.15.82-16.62,1.55-3.73,3.4-5.17,7.4-5.05,2.81.08,5.62.32,9.15,1.06Z"/>
          <path class="cls-1" d="m125.97,308.44c.1,3.09-1.51,6.1-4.03,8.73-.35.37-.74.72-1.18.97-2.89,1.65-4.16,3.97-3.85,7.42.25,2.72-.83,3.79-3.26,4.42-2.22.58-3.56,0-4.91-2.28-1.13-1.92-2.13-3.93-3.22-5.88-1.04-1.85-1.97-1.95-3.37-.41-1,1.1-1.6,2.45-2.2,3.79-1.77,3.9-4.62,4.71-7.94,2.09-2.66-2.1-5.32-4.13-8.46-5.53-2.21-.99-3.21-3.06-3.28-5.46-.1-3.72.34-7.4,1.17-11.02,1.02-4.43,3.9-6.66,8.47-6.81,2.44-.08,4.86-.05,7.21.64,2.96.86,4.63,2.81,4.85,5.94.07.95.16,1.91.31,2.86.28,1.66,1.09,2.12,2.73,1.47,1.57-.62,2.79-1.79,4.02-2.89,2.26-2.03,4.68-3.75,7.72-4.41,4.34-.95,8.61,1.69,9.21,6.36Z"/>
          <path class="cls-1" d="m75.17,51.35c3.49,1.03,6.8,3.24,8.43,7.38.74,1.88,2.15,2.38,3.94,2.38,1.95,0,3.76-.69,5.59-1.24,1.91-.58,3.85-.9,5.86-.76,3.47.25,6.1,2.2,6.72,5.02.63,2.85-.83,5.84-3.76,7.52-1.44.82-2.95,1.53-4.44,2.25-1.47.71-2.4,1.79-2.79,3.43-.53,2.18-1.06,4.57-3.84,4.9-2.91.35-4.99-1.14-6.55-3.5-.87-1.31-1.23-2.81-1.6-4.29-.3-1.24-.85-1.23-1.73-.6-1.19.86-2.36,1.76-3.61,2.52-1.59.97-3.16.75-4.67-.3-2.93-2.05-5.86-4.09-8.8-6.12-1.06-.74-1.96-1.65-2.74-2.66-1.05-1.34-1.21-2.84-.37-4.31,1.53-2.67,2.63-5.53,3.89-8.31,1.02-2.26,2.76-3.98,5.64-3.84,1.4.07,2.81.03,4.82.52Z"/>
          <path class="cls-1" d="m96.9,350.1c-.05-1.06-.42-2.45-1.09-3.8-.69-1.38-1.47-1.71-2.61-.56-.94.95-1.86,1.92-2.76,2.91-1.44,1.58-2.74,1.71-4.27.25-1.71-1.62-3.3-3.34-5.39-4.55-1.68-.97-1.95-2.73-1.24-4.39,1.27-2.95,2.07-6.01,2.73-9.15.54-2.58,1.94-3.23,4.56-2.7,4.36.87,7.31,3.06,8,7.78.33,2.27.8,2.37,2.99,1.54,1.91-.72,3.6-1.94,5.6-2.46,2.8-.73,5.04-.06,6.04,1.92,1.03,2.05.34,4.52-1.78,6.29-.44.37-.89.75-1.39,1.02-2.77,1.45-4.76,3.36-4.56,6.84.06,1.11-.58,2.07-1.74,2.52-1.94.76-2.81-.1-3.08-3.46Z"/>
          <path class="cls-1" d="m96.62,39.46c-.36,1.02-.73,2.04-1.08,3.07-.47,1.38.12,1.78,1.41,1.47,1.12-.27,2.22-.62,3.34-.87,1.53-.35,3.02-.34,4.49.37,3.23,1.55,3.67,5.73.75,7.83-.66.48-1.45.96-2.23,1.06-3.27.39-5.75,1.67-6.95,5.01-.42,1.16-1.71,1.62-2.92.94-1.31-.74-.49-1.72-.13-2.65.55-1.43,1.01-2.89.89-4.47-.21-2.66-.92-3.18-3.42-2.41-.73.23-1.46.48-2.19.69-1.84.52-3.31-.06-4.27-1.68-1.47-2.49-2.47-5.18-3.32-7.93-.4-1.31-.04-2.53.81-3.59,1.48-1.85,3.05-3.62,4.83-5.18,2.26-1.98,4.44-1.96,6.72-.02,2.57,2.19,4.38,4.71,3.28,8.37Z"/>
          <path class="cls-1" d="m106.01,32.98c.19-.79.33-1.28.42-1.78.25-1.49-.53-1.97-1.88-1.87-.13,0-.25.05-.37.08q-4.22.91-6.25-2.86c-.42-.79-.92-1.54-1.3-2.35-1.37-2.91-.79-4.81,1.98-6.47.93-.56,1.91-1.05,2.88-1.53,2.73-1.38,4.54-1.15,6.64.81,1.9,1.77,2.22,3.52,1.15,6.26-.7,1.8-.53,2.04,1.33,1.87.57-.05,1.15-.15,1.72-.12,2.29.13,4,1.63,4.11,3.54.11,1.94-1.57,4.15-3.73,4.15-2.67,0-3.99,1.15-4.57,3.6-.18.78-.79,1.4-1.71,1.15-.86-.23-.88-.99-.77-1.73.15-1.01.03-2.06.35-2.74Z"/>
          <path class="cls-1" d="m81.29,362.25c.18-2.5.5-5.03,1.45-7.42.45-1.14,1.51-1.47,2.73-1.18,2.23.54,3.76,1.81,4.35,4.09.16.62.36,1.22.58,1.82.34.94.96,1.11,1.8.59.11-.07.22-.13.33-.19,1.29-.82,2.62-1.63,3.88-.05.92,1.15.43,2.48-1.38,3.76-.91.65-1.13,1.47-1.05,2.49.07.82.24,1.65-.07,2.46-.34.89-.88,1.58-1.92,1.62-1.09.04-1.61-.65-1.84-1.6-.24-.99-.41-2-.63-2.99-.23-1.07-.75-1.3-1.55-.46-.9.95-1.84,2.03-3.27,1.3-1.68-.86-2.94-2.21-3.43-4.23Z"/>
          <path class="cls-1" d="m113.95,10.11c1.04-2.21,2.31-4.01,4.43-5.04,1.04-.51,1.99-.27,2.78.59.76.83,1.41,1.83,1.14,2.93-.57,2.36-.44,3.89,2.58,4.18,1.39.13,1.71,1.64.88,2.91-.41.62-1.02,1.14-1.62,1.61-1.2.95-2.48,1.78-3.17,3.26-.32.69-.98,1.04-1.76.71-.72-.3-.79-.93-.66-1.62.02-.13.06-.25.08-.37.57-3.44.59-3.47-2.41-5.11-1.69-.92-2.08-2.44-2.27-4.04Z"/>
          <path class="cls-1" d="m81.01,378.64c.24-1.31.38-3.05.91-4.67.43-1.32,1.6-1.56,2.81-.78.79.51,1.16,1.34,1.47,2.18.36.95.95,1.31,1.93.88.88-.38,1.76-.49,2.44.35.74.91.33,1.84-.19,2.66-.82,1.3-1.61,2.57-1.54,4.22.03.75-.46,1.36-1.31,1.36-.88,0-1.15-.65-1.28-1.4-.09-.5-.15-1.02-.31-1.5-.35-1.02-.89-1.64-2.15-1.16-1.61.62-2.38-.25-2.77-2.15Z"/>
          <path class="cls-1" d="m127.33,2.89c.3-1.39,2.44-2.98,3.83-2.89,1.67.11,2.07,1.27,2.04,2.68-.02.83.43,1.26,1.09,1.63,1.48.84,1.47,1.93.45,3.15-.16.2-.32.4-.52.56-.91.74-1.67,2.09-3.02,1.64-1.4-.46-1.24-1.93-1.23-3.13,0-.83-.25-1.28-1.11-1.48-1.16-.27-1.64-1.12-1.54-2.17Z"/>
        </g>
        <path class="cls-1" d="m127.47,89.9s4.74,8.05,2.01,17.88l-15.83-5c-.73-.23-.9-1.18-.31-1.65l14.13-11.23Z"/>
        <path class="cls-1" d="m10.58,175.3c-8.22,17.09-14.55,34.16-7.6,49.09,16.49,35.43,74.48,43.39,129.53,17.78,55.05-25.62,86.31-75.11,69.83-110.54-11.8-25.35-44.85-36.64-82.86-31.62.15.33.3.66.45,1,30.97-2.54,57.3,7.51,67.08,28.52,14.54,31.24-13.03,74.87-61.56,97.45-48.53,22.58-99.66,15.57-114.19-15.67-5.1-10.96-5.01-23.44-.66-36"/>
      </g>
    </g>
  </g>
</svg>